%TF.GenerationSoftware,KiCad,Pcbnew,7.0.6*%
%TF.CreationDate,2023-07-23T20:46:28-06:00*%
%TF.ProjectId,Caress,43617265-7373-42e6-9b69-6361645f7063,2*%
%TF.SameCoordinates,Original*%
%TF.FileFunction,Soldermask,Top*%
%TF.FilePolarity,Negative*%
%FSLAX46Y46*%
G04 Gerber Fmt 4.6, Leading zero omitted, Abs format (unit mm)*
G04 Created by KiCad (PCBNEW 7.0.6) date 2023-07-23 20:46:28*
%MOMM*%
%LPD*%
G01*
G04 APERTURE LIST*
G04 Aperture macros list*
%AMRoundRect*
0 Rectangle with rounded corners*
0 $1 Rounding radius*
0 $2 $3 $4 $5 $6 $7 $8 $9 X,Y pos of 4 corners*
0 Add a 4 corners polygon primitive as box body*
4,1,4,$2,$3,$4,$5,$6,$7,$8,$9,$2,$3,0*
0 Add four circle primitives for the rounded corners*
1,1,$1+$1,$2,$3*
1,1,$1+$1,$4,$5*
1,1,$1+$1,$6,$7*
1,1,$1+$1,$8,$9*
0 Add four rect primitives between the rounded corners*
20,1,$1+$1,$2,$3,$4,$5,0*
20,1,$1+$1,$4,$5,$6,$7,0*
20,1,$1+$1,$6,$7,$8,$9,0*
20,1,$1+$1,$8,$9,$2,$3,0*%
G04 Aperture macros list end*
%ADD10C,1.600000*%
%ADD11O,1.600000X1.600000*%
%ADD12RoundRect,0.250000X-0.600000X-0.725000X0.600000X-0.725000X0.600000X0.725000X-0.600000X0.725000X0*%
%ADD13O,1.700000X1.950000*%
%ADD14RoundRect,0.250000X-0.725000X0.600000X-0.725000X-0.600000X0.725000X-0.600000X0.725000X0.600000X0*%
%ADD15O,1.950000X1.700000*%
%ADD16R,1.676400X1.676400*%
%ADD17C,1.676400*%
%ADD18RoundRect,0.250000X-0.600000X-0.750000X0.600000X-0.750000X0.600000X0.750000X-0.600000X0.750000X0*%
%ADD19O,1.700000X2.000000*%
%ADD20RoundRect,0.400000X0.450000X-0.400000X0.450000X0.400000X-0.450000X0.400000X-0.450000X-0.400000X0*%
%ADD21C,1.879600*%
%ADD22R,1.600000X1.600000*%
%ADD23R,1.905000X2.000000*%
%ADD24O,1.905000X2.000000*%
G04 APERTURE END LIST*
D10*
%TO.C,R4*%
X55895881Y-71120000D03*
D11*
X48275881Y-71120000D03*
%TD*%
D12*
%TO.C,J4*%
X88940000Y-50800000D03*
D13*
X91480000Y-50800000D03*
X94020000Y-50800000D03*
%TD*%
D14*
%TO.C,J1*%
X45720000Y-93980000D03*
D15*
X45720000Y-96520000D03*
X45720000Y-99060000D03*
X45720000Y-101600000D03*
%TD*%
D16*
%TO.C,U4*%
X87630000Y-59690000D03*
D17*
X87630000Y-62230000D03*
X87630000Y-64770000D03*
X87630000Y-67310000D03*
X87630000Y-69850000D03*
X87630000Y-72390000D03*
X87630000Y-74930000D03*
X87630000Y-77470000D03*
X87630000Y-80010000D03*
X87630000Y-82550000D03*
X95250000Y-82550000D03*
X95250000Y-80010000D03*
X95250000Y-77470000D03*
X95250000Y-74930000D03*
X95250000Y-72390000D03*
X95250000Y-69850000D03*
X95250000Y-67310000D03*
X95250000Y-64770000D03*
X95250000Y-62230000D03*
X95250000Y-59690000D03*
%TD*%
D10*
%TO.C,C1*%
X88900000Y-99140000D03*
X88900000Y-104140000D03*
%TD*%
D18*
%TO.C,J2*%
X50840000Y-116840000D03*
D19*
X53380000Y-116840000D03*
%TD*%
D20*
%TO.C,U1*%
X43180000Y-61206660D03*
D10*
X45720000Y-61206660D03*
X48260000Y-61206660D03*
X50800000Y-61206660D03*
X53340000Y-61206660D03*
X55880000Y-61206660D03*
X58420000Y-61206660D03*
X60960000Y-61206660D03*
%TD*%
%TO.C,R1*%
X48275881Y-76200000D03*
D11*
X55895881Y-76200000D03*
%TD*%
D10*
%TO.C,R6*%
X59690000Y-99060000D03*
D11*
X67310000Y-99060000D03*
%TD*%
D10*
%TO.C,R5*%
X59690000Y-93980000D03*
D11*
X67310000Y-93980000D03*
%TD*%
D10*
%TO.C,C2*%
X93980000Y-99140000D03*
X93980000Y-104140000D03*
%TD*%
D18*
%TO.C,J3*%
X88940000Y-116840000D03*
D19*
X91480000Y-116840000D03*
%TD*%
D21*
%TO.C,U2*%
X52070000Y-93980000D03*
X52070000Y-96520000D03*
X52070000Y-99060000D03*
X52070000Y-101600000D03*
X52070000Y-104140000D03*
X80010000Y-104140000D03*
X80010000Y-101600000D03*
X80010000Y-99060000D03*
X80010000Y-96520000D03*
X80010000Y-93980000D03*
X72390000Y-101600000D03*
X72390000Y-104140000D03*
%TD*%
D22*
%TO.C,A1*%
X81280000Y-79400000D03*
D11*
X81280000Y-76860000D03*
X81280000Y-74320000D03*
X81280000Y-71780000D03*
X81280000Y-69240000D03*
X81280000Y-66700000D03*
X81280000Y-64160000D03*
X81280000Y-61620000D03*
X81280000Y-59080000D03*
X81280000Y-56540000D03*
X81280000Y-54000000D03*
X81280000Y-51460000D03*
X81280000Y-48920000D03*
X81280000Y-46380000D03*
X81280000Y-43840000D03*
X66040000Y-43840000D03*
X66040000Y-46380000D03*
X66040000Y-48920000D03*
X66040000Y-51460000D03*
X66040000Y-54000000D03*
X66040000Y-56540000D03*
X66040000Y-59080000D03*
X66040000Y-61620000D03*
X66040000Y-64160000D03*
X66040000Y-66700000D03*
X66040000Y-69240000D03*
X66040000Y-71780000D03*
X66040000Y-74320000D03*
X66040000Y-76860000D03*
X66040000Y-79400000D03*
%TD*%
D10*
%TO.C,R3*%
X59690000Y-104140000D03*
D11*
X67310000Y-104140000D03*
%TD*%
D10*
%TO.C,R2*%
X48275881Y-66040000D03*
D11*
X55895881Y-66040000D03*
%TD*%
D23*
%TO.C,U3*%
X88900000Y-91440000D03*
D24*
X91440000Y-91440000D03*
X93980000Y-91440000D03*
%TD*%
M02*
