%TF.GenerationSoftware,KiCad,Pcbnew,7.0.6*%
%TF.CreationDate,2023-07-23T20:46:28-06:00*%
%TF.ProjectId,Caress,43617265-7373-42e6-9b69-6361645f7063,2*%
%TF.SameCoordinates,Original*%
%TF.FileFunction,Legend,Bot*%
%TF.FilePolarity,Positive*%
%FSLAX46Y46*%
G04 Gerber Fmt 4.6, Leading zero omitted, Abs format (unit mm)*
G04 Created by KiCad (PCBNEW 7.0.6) date 2023-07-23 20:46:28*
%MOMM*%
%LPD*%
G01*
G04 APERTURE LIST*
%ADD10C,0.250000*%
G04 APERTURE END LIST*
D10*
X76487297Y-133364380D02*
X76534916Y-133412000D01*
X76534916Y-133412000D02*
X76677773Y-133459619D01*
X76677773Y-133459619D02*
X76773011Y-133459619D01*
X76773011Y-133459619D02*
X76915868Y-133412000D01*
X76915868Y-133412000D02*
X77011106Y-133316761D01*
X77011106Y-133316761D02*
X77058725Y-133221523D01*
X77058725Y-133221523D02*
X77106344Y-133031047D01*
X77106344Y-133031047D02*
X77106344Y-132888190D01*
X77106344Y-132888190D02*
X77058725Y-132697714D01*
X77058725Y-132697714D02*
X77011106Y-132602476D01*
X77011106Y-132602476D02*
X76915868Y-132507238D01*
X76915868Y-132507238D02*
X76773011Y-132459619D01*
X76773011Y-132459619D02*
X76677773Y-132459619D01*
X76677773Y-132459619D02*
X76534916Y-132507238D01*
X76534916Y-132507238D02*
X76487297Y-132554857D01*
X75630154Y-133459619D02*
X75630154Y-132935809D01*
X75630154Y-132935809D02*
X75677773Y-132840571D01*
X75677773Y-132840571D02*
X75773011Y-132792952D01*
X75773011Y-132792952D02*
X75963487Y-132792952D01*
X75963487Y-132792952D02*
X76058725Y-132840571D01*
X75630154Y-133412000D02*
X75725392Y-133459619D01*
X75725392Y-133459619D02*
X75963487Y-133459619D01*
X75963487Y-133459619D02*
X76058725Y-133412000D01*
X76058725Y-133412000D02*
X76106344Y-133316761D01*
X76106344Y-133316761D02*
X76106344Y-133221523D01*
X76106344Y-133221523D02*
X76058725Y-133126285D01*
X76058725Y-133126285D02*
X75963487Y-133078666D01*
X75963487Y-133078666D02*
X75725392Y-133078666D01*
X75725392Y-133078666D02*
X75630154Y-133031047D01*
X75153963Y-133459619D02*
X75153963Y-132792952D01*
X75153963Y-132983428D02*
X75106344Y-132888190D01*
X75106344Y-132888190D02*
X75058725Y-132840571D01*
X75058725Y-132840571D02*
X74963487Y-132792952D01*
X74963487Y-132792952D02*
X74868249Y-132792952D01*
X74153963Y-133412000D02*
X74249201Y-133459619D01*
X74249201Y-133459619D02*
X74439677Y-133459619D01*
X74439677Y-133459619D02*
X74534915Y-133412000D01*
X74534915Y-133412000D02*
X74582534Y-133316761D01*
X74582534Y-133316761D02*
X74582534Y-132935809D01*
X74582534Y-132935809D02*
X74534915Y-132840571D01*
X74534915Y-132840571D02*
X74439677Y-132792952D01*
X74439677Y-132792952D02*
X74249201Y-132792952D01*
X74249201Y-132792952D02*
X74153963Y-132840571D01*
X74153963Y-132840571D02*
X74106344Y-132935809D01*
X74106344Y-132935809D02*
X74106344Y-133031047D01*
X74106344Y-133031047D02*
X74582534Y-133126285D01*
X73725391Y-133412000D02*
X73630153Y-133459619D01*
X73630153Y-133459619D02*
X73439677Y-133459619D01*
X73439677Y-133459619D02*
X73344439Y-133412000D01*
X73344439Y-133412000D02*
X73296820Y-133316761D01*
X73296820Y-133316761D02*
X73296820Y-133269142D01*
X73296820Y-133269142D02*
X73344439Y-133173904D01*
X73344439Y-133173904D02*
X73439677Y-133126285D01*
X73439677Y-133126285D02*
X73582534Y-133126285D01*
X73582534Y-133126285D02*
X73677772Y-133078666D01*
X73677772Y-133078666D02*
X73725391Y-132983428D01*
X73725391Y-132983428D02*
X73725391Y-132935809D01*
X73725391Y-132935809D02*
X73677772Y-132840571D01*
X73677772Y-132840571D02*
X73582534Y-132792952D01*
X73582534Y-132792952D02*
X73439677Y-132792952D01*
X73439677Y-132792952D02*
X73344439Y-132840571D01*
X72915867Y-133412000D02*
X72820629Y-133459619D01*
X72820629Y-133459619D02*
X72630153Y-133459619D01*
X72630153Y-133459619D02*
X72534915Y-133412000D01*
X72534915Y-133412000D02*
X72487296Y-133316761D01*
X72487296Y-133316761D02*
X72487296Y-133269142D01*
X72487296Y-133269142D02*
X72534915Y-133173904D01*
X72534915Y-133173904D02*
X72630153Y-133126285D01*
X72630153Y-133126285D02*
X72773010Y-133126285D01*
X72773010Y-133126285D02*
X72868248Y-133078666D01*
X72868248Y-133078666D02*
X72915867Y-132983428D01*
X72915867Y-132983428D02*
X72915867Y-132935809D01*
X72915867Y-132935809D02*
X72868248Y-132840571D01*
X72868248Y-132840571D02*
X72773010Y-132792952D01*
X72773010Y-132792952D02*
X72630153Y-132792952D01*
X72630153Y-132792952D02*
X72534915Y-132840571D01*
X71296819Y-133459619D02*
X71296819Y-132459619D01*
X71296819Y-132459619D02*
X70963486Y-133173904D01*
X70963486Y-133173904D02*
X70630153Y-132459619D01*
X70630153Y-132459619D02*
X70630153Y-133459619D01*
X70011105Y-133459619D02*
X70106343Y-133412000D01*
X70106343Y-133412000D02*
X70153962Y-133364380D01*
X70153962Y-133364380D02*
X70201581Y-133269142D01*
X70201581Y-133269142D02*
X70201581Y-132983428D01*
X70201581Y-132983428D02*
X70153962Y-132888190D01*
X70153962Y-132888190D02*
X70106343Y-132840571D01*
X70106343Y-132840571D02*
X70011105Y-132792952D01*
X70011105Y-132792952D02*
X69868248Y-132792952D01*
X69868248Y-132792952D02*
X69773010Y-132840571D01*
X69773010Y-132840571D02*
X69725391Y-132888190D01*
X69725391Y-132888190D02*
X69677772Y-132983428D01*
X69677772Y-132983428D02*
X69677772Y-133269142D01*
X69677772Y-133269142D02*
X69725391Y-133364380D01*
X69725391Y-133364380D02*
X69773010Y-133412000D01*
X69773010Y-133412000D02*
X69868248Y-133459619D01*
X69868248Y-133459619D02*
X70011105Y-133459619D01*
X68820629Y-133459619D02*
X68820629Y-132459619D01*
X68820629Y-133412000D02*
X68915867Y-133459619D01*
X68915867Y-133459619D02*
X69106343Y-133459619D01*
X69106343Y-133459619D02*
X69201581Y-133412000D01*
X69201581Y-133412000D02*
X69249200Y-133364380D01*
X69249200Y-133364380D02*
X69296819Y-133269142D01*
X69296819Y-133269142D02*
X69296819Y-132983428D01*
X69296819Y-132983428D02*
X69249200Y-132888190D01*
X69249200Y-132888190D02*
X69201581Y-132840571D01*
X69201581Y-132840571D02*
X69106343Y-132792952D01*
X69106343Y-132792952D02*
X68915867Y-132792952D01*
X68915867Y-132792952D02*
X68820629Y-132840571D01*
X67915867Y-132792952D02*
X67915867Y-133459619D01*
X68344438Y-132792952D02*
X68344438Y-133316761D01*
X68344438Y-133316761D02*
X68296819Y-133412000D01*
X68296819Y-133412000D02*
X68201581Y-133459619D01*
X68201581Y-133459619D02*
X68058724Y-133459619D01*
X68058724Y-133459619D02*
X67963486Y-133412000D01*
X67963486Y-133412000D02*
X67915867Y-133364380D01*
X67296819Y-133459619D02*
X67392057Y-133412000D01*
X67392057Y-133412000D02*
X67439676Y-133316761D01*
X67439676Y-133316761D02*
X67439676Y-132459619D01*
X66534914Y-133412000D02*
X66630152Y-133459619D01*
X66630152Y-133459619D02*
X66820628Y-133459619D01*
X66820628Y-133459619D02*
X66915866Y-133412000D01*
X66915866Y-133412000D02*
X66963485Y-133316761D01*
X66963485Y-133316761D02*
X66963485Y-132935809D01*
X66963485Y-132935809D02*
X66915866Y-132840571D01*
X66915866Y-132840571D02*
X66820628Y-132792952D01*
X66820628Y-132792952D02*
X66630152Y-132792952D01*
X66630152Y-132792952D02*
X66534914Y-132840571D01*
X66534914Y-132840571D02*
X66487295Y-132935809D01*
X66487295Y-132935809D02*
X66487295Y-133031047D01*
X66487295Y-133031047D02*
X66963485Y-133126285D01*
X65296818Y-133459619D02*
X65296818Y-132459619D01*
X65296818Y-132459619D02*
X64963485Y-133173904D01*
X64963485Y-133173904D02*
X64630152Y-132459619D01*
X64630152Y-132459619D02*
X64630152Y-133459619D01*
X64153961Y-133459619D02*
X64153961Y-132459619D01*
X64058723Y-133078666D02*
X63773009Y-133459619D01*
X63773009Y-132792952D02*
X64153961Y-133173904D01*
X63439675Y-132459619D02*
X62820628Y-132459619D01*
X62820628Y-132459619D02*
X63153961Y-132840571D01*
X63153961Y-132840571D02*
X63011104Y-132840571D01*
X63011104Y-132840571D02*
X62915866Y-132888190D01*
X62915866Y-132888190D02*
X62868247Y-132935809D01*
X62868247Y-132935809D02*
X62820628Y-133031047D01*
X62820628Y-133031047D02*
X62820628Y-133269142D01*
X62820628Y-133269142D02*
X62868247Y-133364380D01*
X62868247Y-133364380D02*
X62915866Y-133412000D01*
X62915866Y-133412000D02*
X63011104Y-133459619D01*
X63011104Y-133459619D02*
X63296818Y-133459619D01*
X63296818Y-133459619D02*
X63392056Y-133412000D01*
X63392056Y-133412000D02*
X63439675Y-133364380D01*
X80320631Y-135069619D02*
X80320631Y-134069619D01*
X80320631Y-134069619D02*
X79749203Y-135069619D01*
X79749203Y-135069619D02*
X79749203Y-134069619D01*
X78892060Y-135022000D02*
X78987298Y-135069619D01*
X78987298Y-135069619D02*
X79177774Y-135069619D01*
X79177774Y-135069619D02*
X79273012Y-135022000D01*
X79273012Y-135022000D02*
X79320631Y-134926761D01*
X79320631Y-134926761D02*
X79320631Y-134545809D01*
X79320631Y-134545809D02*
X79273012Y-134450571D01*
X79273012Y-134450571D02*
X79177774Y-134402952D01*
X79177774Y-134402952D02*
X78987298Y-134402952D01*
X78987298Y-134402952D02*
X78892060Y-134450571D01*
X78892060Y-134450571D02*
X78844441Y-134545809D01*
X78844441Y-134545809D02*
X78844441Y-134641047D01*
X78844441Y-134641047D02*
X79320631Y-134736285D01*
X77987298Y-134402952D02*
X77987298Y-135069619D01*
X78415869Y-134402952D02*
X78415869Y-134926761D01*
X78415869Y-134926761D02*
X78368250Y-135022000D01*
X78368250Y-135022000D02*
X78273012Y-135069619D01*
X78273012Y-135069619D02*
X78130155Y-135069619D01*
X78130155Y-135069619D02*
X78034917Y-135022000D01*
X78034917Y-135022000D02*
X77987298Y-134974380D01*
X77511107Y-135069619D02*
X77511107Y-134402952D01*
X77511107Y-134593428D02*
X77463488Y-134498190D01*
X77463488Y-134498190D02*
X77415869Y-134450571D01*
X77415869Y-134450571D02*
X77320631Y-134402952D01*
X77320631Y-134402952D02*
X77225393Y-134402952D01*
X76749202Y-135069619D02*
X76844440Y-135022000D01*
X76844440Y-135022000D02*
X76892059Y-134974380D01*
X76892059Y-134974380D02*
X76939678Y-134879142D01*
X76939678Y-134879142D02*
X76939678Y-134593428D01*
X76939678Y-134593428D02*
X76892059Y-134498190D01*
X76892059Y-134498190D02*
X76844440Y-134450571D01*
X76844440Y-134450571D02*
X76749202Y-134402952D01*
X76749202Y-134402952D02*
X76606345Y-134402952D01*
X76606345Y-134402952D02*
X76511107Y-134450571D01*
X76511107Y-134450571D02*
X76463488Y-134498190D01*
X76463488Y-134498190D02*
X76415869Y-134593428D01*
X76415869Y-134593428D02*
X76415869Y-134879142D01*
X76415869Y-134879142D02*
X76463488Y-134974380D01*
X76463488Y-134974380D02*
X76511107Y-135022000D01*
X76511107Y-135022000D02*
X76606345Y-135069619D01*
X76606345Y-135069619D02*
X76749202Y-135069619D01*
X76130154Y-134069619D02*
X75558726Y-134069619D01*
X75844440Y-135069619D02*
X75844440Y-134069619D01*
X74844440Y-135022000D02*
X74939678Y-135069619D01*
X74939678Y-135069619D02*
X75130154Y-135069619D01*
X75130154Y-135069619D02*
X75225392Y-135022000D01*
X75225392Y-135022000D02*
X75273011Y-134926761D01*
X75273011Y-134926761D02*
X75273011Y-134545809D01*
X75273011Y-134545809D02*
X75225392Y-134450571D01*
X75225392Y-134450571D02*
X75130154Y-134402952D01*
X75130154Y-134402952D02*
X74939678Y-134402952D01*
X74939678Y-134402952D02*
X74844440Y-134450571D01*
X74844440Y-134450571D02*
X74796821Y-134545809D01*
X74796821Y-134545809D02*
X74796821Y-134641047D01*
X74796821Y-134641047D02*
X75273011Y-134736285D01*
X73939678Y-135022000D02*
X74034916Y-135069619D01*
X74034916Y-135069619D02*
X74225392Y-135069619D01*
X74225392Y-135069619D02*
X74320630Y-135022000D01*
X74320630Y-135022000D02*
X74368249Y-134974380D01*
X74368249Y-134974380D02*
X74415868Y-134879142D01*
X74415868Y-134879142D02*
X74415868Y-134593428D01*
X74415868Y-134593428D02*
X74368249Y-134498190D01*
X74368249Y-134498190D02*
X74320630Y-134450571D01*
X74320630Y-134450571D02*
X74225392Y-134402952D01*
X74225392Y-134402952D02*
X74034916Y-134402952D01*
X74034916Y-134402952D02*
X73939678Y-134450571D01*
X73511106Y-135069619D02*
X73511106Y-134069619D01*
X73082535Y-135069619D02*
X73082535Y-134545809D01*
X73082535Y-134545809D02*
X73130154Y-134450571D01*
X73130154Y-134450571D02*
X73225392Y-134402952D01*
X73225392Y-134402952D02*
X73368249Y-134402952D01*
X73368249Y-134402952D02*
X73463487Y-134450571D01*
X73463487Y-134450571D02*
X73511106Y-134498190D01*
X72653963Y-135022000D02*
X72558725Y-135069619D01*
X72558725Y-135069619D02*
X72368249Y-135069619D01*
X72368249Y-135069619D02*
X72273011Y-135022000D01*
X72273011Y-135022000D02*
X72225392Y-134926761D01*
X72225392Y-134926761D02*
X72225392Y-134879142D01*
X72225392Y-134879142D02*
X72273011Y-134783904D01*
X72273011Y-134783904D02*
X72368249Y-134736285D01*
X72368249Y-134736285D02*
X72511106Y-134736285D01*
X72511106Y-134736285D02*
X72606344Y-134688666D01*
X72606344Y-134688666D02*
X72653963Y-134593428D01*
X72653963Y-134593428D02*
X72653963Y-134545809D01*
X72653963Y-134545809D02*
X72606344Y-134450571D01*
X72606344Y-134450571D02*
X72511106Y-134402952D01*
X72511106Y-134402952D02*
X72368249Y-134402952D01*
X72368249Y-134402952D02*
X72273011Y-134450571D01*
X70463487Y-135069619D02*
X70796820Y-134593428D01*
X71034915Y-135069619D02*
X71034915Y-134069619D01*
X71034915Y-134069619D02*
X70653963Y-134069619D01*
X70653963Y-134069619D02*
X70558725Y-134117238D01*
X70558725Y-134117238D02*
X70511106Y-134164857D01*
X70511106Y-134164857D02*
X70463487Y-134260095D01*
X70463487Y-134260095D02*
X70463487Y-134402952D01*
X70463487Y-134402952D02*
X70511106Y-134498190D01*
X70511106Y-134498190D02*
X70558725Y-134545809D01*
X70558725Y-134545809D02*
X70653963Y-134593428D01*
X70653963Y-134593428D02*
X71034915Y-134593428D01*
X69653963Y-135022000D02*
X69749201Y-135069619D01*
X69749201Y-135069619D02*
X69939677Y-135069619D01*
X69939677Y-135069619D02*
X70034915Y-135022000D01*
X70034915Y-135022000D02*
X70082534Y-134926761D01*
X70082534Y-134926761D02*
X70082534Y-134545809D01*
X70082534Y-134545809D02*
X70034915Y-134450571D01*
X70034915Y-134450571D02*
X69939677Y-134402952D01*
X69939677Y-134402952D02*
X69749201Y-134402952D01*
X69749201Y-134402952D02*
X69653963Y-134450571D01*
X69653963Y-134450571D02*
X69606344Y-134545809D01*
X69606344Y-134545809D02*
X69606344Y-134641047D01*
X69606344Y-134641047D02*
X70082534Y-134736285D01*
X69225391Y-135022000D02*
X69130153Y-135069619D01*
X69130153Y-135069619D02*
X68939677Y-135069619D01*
X68939677Y-135069619D02*
X68844439Y-135022000D01*
X68844439Y-135022000D02*
X68796820Y-134926761D01*
X68796820Y-134926761D02*
X68796820Y-134879142D01*
X68796820Y-134879142D02*
X68844439Y-134783904D01*
X68844439Y-134783904D02*
X68939677Y-134736285D01*
X68939677Y-134736285D02*
X69082534Y-134736285D01*
X69082534Y-134736285D02*
X69177772Y-134688666D01*
X69177772Y-134688666D02*
X69225391Y-134593428D01*
X69225391Y-134593428D02*
X69225391Y-134545809D01*
X69225391Y-134545809D02*
X69177772Y-134450571D01*
X69177772Y-134450571D02*
X69082534Y-134402952D01*
X69082534Y-134402952D02*
X68939677Y-134402952D01*
X68939677Y-134402952D02*
X68844439Y-134450571D01*
X67987296Y-135022000D02*
X68082534Y-135069619D01*
X68082534Y-135069619D02*
X68273010Y-135069619D01*
X68273010Y-135069619D02*
X68368248Y-135022000D01*
X68368248Y-135022000D02*
X68415867Y-134926761D01*
X68415867Y-134926761D02*
X68415867Y-134545809D01*
X68415867Y-134545809D02*
X68368248Y-134450571D01*
X68368248Y-134450571D02*
X68273010Y-134402952D01*
X68273010Y-134402952D02*
X68082534Y-134402952D01*
X68082534Y-134402952D02*
X67987296Y-134450571D01*
X67987296Y-134450571D02*
X67939677Y-134545809D01*
X67939677Y-134545809D02*
X67939677Y-134641047D01*
X67939677Y-134641047D02*
X68415867Y-134736285D01*
X67082534Y-135069619D02*
X67082534Y-134545809D01*
X67082534Y-134545809D02*
X67130153Y-134450571D01*
X67130153Y-134450571D02*
X67225391Y-134402952D01*
X67225391Y-134402952D02*
X67415867Y-134402952D01*
X67415867Y-134402952D02*
X67511105Y-134450571D01*
X67082534Y-135022000D02*
X67177772Y-135069619D01*
X67177772Y-135069619D02*
X67415867Y-135069619D01*
X67415867Y-135069619D02*
X67511105Y-135022000D01*
X67511105Y-135022000D02*
X67558724Y-134926761D01*
X67558724Y-134926761D02*
X67558724Y-134831523D01*
X67558724Y-134831523D02*
X67511105Y-134736285D01*
X67511105Y-134736285D02*
X67415867Y-134688666D01*
X67415867Y-134688666D02*
X67177772Y-134688666D01*
X67177772Y-134688666D02*
X67082534Y-134641047D01*
X66606343Y-135069619D02*
X66606343Y-134402952D01*
X66606343Y-134593428D02*
X66558724Y-134498190D01*
X66558724Y-134498190D02*
X66511105Y-134450571D01*
X66511105Y-134450571D02*
X66415867Y-134402952D01*
X66415867Y-134402952D02*
X66320629Y-134402952D01*
X65558724Y-135022000D02*
X65653962Y-135069619D01*
X65653962Y-135069619D02*
X65844438Y-135069619D01*
X65844438Y-135069619D02*
X65939676Y-135022000D01*
X65939676Y-135022000D02*
X65987295Y-134974380D01*
X65987295Y-134974380D02*
X66034914Y-134879142D01*
X66034914Y-134879142D02*
X66034914Y-134593428D01*
X66034914Y-134593428D02*
X65987295Y-134498190D01*
X65987295Y-134498190D02*
X65939676Y-134450571D01*
X65939676Y-134450571D02*
X65844438Y-134402952D01*
X65844438Y-134402952D02*
X65653962Y-134402952D01*
X65653962Y-134402952D02*
X65558724Y-134450571D01*
X65130152Y-135069619D02*
X65130152Y-134069619D01*
X64701581Y-135069619D02*
X64701581Y-134545809D01*
X64701581Y-134545809D02*
X64749200Y-134450571D01*
X64749200Y-134450571D02*
X64844438Y-134402952D01*
X64844438Y-134402952D02*
X64987295Y-134402952D01*
X64987295Y-134402952D02*
X65082533Y-134450571D01*
X65082533Y-134450571D02*
X65130152Y-134498190D01*
X62939676Y-134117238D02*
X63034914Y-134069619D01*
X63034914Y-134069619D02*
X63177771Y-134069619D01*
X63177771Y-134069619D02*
X63320628Y-134117238D01*
X63320628Y-134117238D02*
X63415866Y-134212476D01*
X63415866Y-134212476D02*
X63463485Y-134307714D01*
X63463485Y-134307714D02*
X63511104Y-134498190D01*
X63511104Y-134498190D02*
X63511104Y-134641047D01*
X63511104Y-134641047D02*
X63463485Y-134831523D01*
X63463485Y-134831523D02*
X63415866Y-134926761D01*
X63415866Y-134926761D02*
X63320628Y-135022000D01*
X63320628Y-135022000D02*
X63177771Y-135069619D01*
X63177771Y-135069619D02*
X63082533Y-135069619D01*
X63082533Y-135069619D02*
X62939676Y-135022000D01*
X62939676Y-135022000D02*
X62892057Y-134974380D01*
X62892057Y-134974380D02*
X62892057Y-134641047D01*
X62892057Y-134641047D02*
X63082533Y-134641047D01*
X62463485Y-135069619D02*
X62463485Y-134402952D01*
X62463485Y-134593428D02*
X62415866Y-134498190D01*
X62415866Y-134498190D02*
X62368247Y-134450571D01*
X62368247Y-134450571D02*
X62273009Y-134402952D01*
X62273009Y-134402952D02*
X62177771Y-134402952D01*
X61701580Y-135069619D02*
X61796818Y-135022000D01*
X61796818Y-135022000D02*
X61844437Y-134974380D01*
X61844437Y-134974380D02*
X61892056Y-134879142D01*
X61892056Y-134879142D02*
X61892056Y-134593428D01*
X61892056Y-134593428D02*
X61844437Y-134498190D01*
X61844437Y-134498190D02*
X61796818Y-134450571D01*
X61796818Y-134450571D02*
X61701580Y-134402952D01*
X61701580Y-134402952D02*
X61558723Y-134402952D01*
X61558723Y-134402952D02*
X61463485Y-134450571D01*
X61463485Y-134450571D02*
X61415866Y-134498190D01*
X61415866Y-134498190D02*
X61368247Y-134593428D01*
X61368247Y-134593428D02*
X61368247Y-134879142D01*
X61368247Y-134879142D02*
X61415866Y-134974380D01*
X61415866Y-134974380D02*
X61463485Y-135022000D01*
X61463485Y-135022000D02*
X61558723Y-135069619D01*
X61558723Y-135069619D02*
X61701580Y-135069619D01*
X60511104Y-134402952D02*
X60511104Y-135069619D01*
X60939675Y-134402952D02*
X60939675Y-134926761D01*
X60939675Y-134926761D02*
X60892056Y-135022000D01*
X60892056Y-135022000D02*
X60796818Y-135069619D01*
X60796818Y-135069619D02*
X60653961Y-135069619D01*
X60653961Y-135069619D02*
X60558723Y-135022000D01*
X60558723Y-135022000D02*
X60511104Y-134974380D01*
X60034913Y-134402952D02*
X60034913Y-135402952D01*
X60034913Y-134450571D02*
X59939675Y-134402952D01*
X59939675Y-134402952D02*
X59749199Y-134402952D01*
X59749199Y-134402952D02*
X59653961Y-134450571D01*
X59653961Y-134450571D02*
X59606342Y-134498190D01*
X59606342Y-134498190D02*
X59558723Y-134593428D01*
X59558723Y-134593428D02*
X59558723Y-134879142D01*
X59558723Y-134879142D02*
X59606342Y-134974380D01*
X59606342Y-134974380D02*
X59653961Y-135022000D01*
X59653961Y-135022000D02*
X59749199Y-135069619D01*
X59749199Y-135069619D02*
X59939675Y-135069619D01*
X59939675Y-135069619D02*
X60034913Y-135022000D01*
X74963487Y-136155809D02*
X74820630Y-136203428D01*
X74820630Y-136203428D02*
X74773011Y-136251047D01*
X74773011Y-136251047D02*
X74725392Y-136346285D01*
X74725392Y-136346285D02*
X74725392Y-136489142D01*
X74725392Y-136489142D02*
X74773011Y-136584380D01*
X74773011Y-136584380D02*
X74820630Y-136632000D01*
X74820630Y-136632000D02*
X74915868Y-136679619D01*
X74915868Y-136679619D02*
X75296820Y-136679619D01*
X75296820Y-136679619D02*
X75296820Y-135679619D01*
X75296820Y-135679619D02*
X74963487Y-135679619D01*
X74963487Y-135679619D02*
X74868249Y-135727238D01*
X74868249Y-135727238D02*
X74820630Y-135774857D01*
X74820630Y-135774857D02*
X74773011Y-135870095D01*
X74773011Y-135870095D02*
X74773011Y-135965333D01*
X74773011Y-135965333D02*
X74820630Y-136060571D01*
X74820630Y-136060571D02*
X74868249Y-136108190D01*
X74868249Y-136108190D02*
X74963487Y-136155809D01*
X74963487Y-136155809D02*
X75296820Y-136155809D01*
X74392058Y-136012952D02*
X74153963Y-136679619D01*
X73915868Y-136012952D02*
X74153963Y-136679619D01*
X74153963Y-136679619D02*
X74249201Y-136917714D01*
X74249201Y-136917714D02*
X74296820Y-136965333D01*
X74296820Y-136965333D02*
X74392058Y-137012952D01*
X72296820Y-136679619D02*
X72773010Y-136679619D01*
X72773010Y-136679619D02*
X72773010Y-135679619D01*
X71534915Y-136012952D02*
X71534915Y-136679619D01*
X71963486Y-136012952D02*
X71963486Y-136536761D01*
X71963486Y-136536761D02*
X71915867Y-136632000D01*
X71915867Y-136632000D02*
X71820629Y-136679619D01*
X71820629Y-136679619D02*
X71677772Y-136679619D01*
X71677772Y-136679619D02*
X71582534Y-136632000D01*
X71582534Y-136632000D02*
X71534915Y-136584380D01*
X71058724Y-136679619D02*
X71058724Y-135679619D01*
X70963486Y-136298666D02*
X70677772Y-136679619D01*
X70677772Y-136012952D02*
X71058724Y-136393904D01*
X69868248Y-136632000D02*
X69963486Y-136679619D01*
X69963486Y-136679619D02*
X70153962Y-136679619D01*
X70153962Y-136679619D02*
X70249200Y-136632000D01*
X70249200Y-136632000D02*
X70296819Y-136536761D01*
X70296819Y-136536761D02*
X70296819Y-136155809D01*
X70296819Y-136155809D02*
X70249200Y-136060571D01*
X70249200Y-136060571D02*
X70153962Y-136012952D01*
X70153962Y-136012952D02*
X69963486Y-136012952D01*
X69963486Y-136012952D02*
X69868248Y-136060571D01*
X69868248Y-136060571D02*
X69820629Y-136155809D01*
X69820629Y-136155809D02*
X69820629Y-136251047D01*
X69820629Y-136251047D02*
X70296819Y-136346285D01*
X68058724Y-136584380D02*
X68106343Y-136632000D01*
X68106343Y-136632000D02*
X68249200Y-136679619D01*
X68249200Y-136679619D02*
X68344438Y-136679619D01*
X68344438Y-136679619D02*
X68487295Y-136632000D01*
X68487295Y-136632000D02*
X68582533Y-136536761D01*
X68582533Y-136536761D02*
X68630152Y-136441523D01*
X68630152Y-136441523D02*
X68677771Y-136251047D01*
X68677771Y-136251047D02*
X68677771Y-136108190D01*
X68677771Y-136108190D02*
X68630152Y-135917714D01*
X68630152Y-135917714D02*
X68582533Y-135822476D01*
X68582533Y-135822476D02*
X68487295Y-135727238D01*
X68487295Y-135727238D02*
X68344438Y-135679619D01*
X68344438Y-135679619D02*
X68249200Y-135679619D01*
X68249200Y-135679619D02*
X68106343Y-135727238D01*
X68106343Y-135727238D02*
X68058724Y-135774857D01*
X67249200Y-136632000D02*
X67344438Y-136679619D01*
X67344438Y-136679619D02*
X67534914Y-136679619D01*
X67534914Y-136679619D02*
X67630152Y-136632000D01*
X67630152Y-136632000D02*
X67677771Y-136536761D01*
X67677771Y-136536761D02*
X67677771Y-136155809D01*
X67677771Y-136155809D02*
X67630152Y-136060571D01*
X67630152Y-136060571D02*
X67534914Y-136012952D01*
X67534914Y-136012952D02*
X67344438Y-136012952D01*
X67344438Y-136012952D02*
X67249200Y-136060571D01*
X67249200Y-136060571D02*
X67201581Y-136155809D01*
X67201581Y-136155809D02*
X67201581Y-136251047D01*
X67201581Y-136251047D02*
X67677771Y-136346285D01*
X66773009Y-136012952D02*
X66773009Y-137012952D01*
X66773009Y-136060571D02*
X66677771Y-136012952D01*
X66677771Y-136012952D02*
X66487295Y-136012952D01*
X66487295Y-136012952D02*
X66392057Y-136060571D01*
X66392057Y-136060571D02*
X66344438Y-136108190D01*
X66344438Y-136108190D02*
X66296819Y-136203428D01*
X66296819Y-136203428D02*
X66296819Y-136489142D01*
X66296819Y-136489142D02*
X66344438Y-136584380D01*
X66344438Y-136584380D02*
X66392057Y-136632000D01*
X66392057Y-136632000D02*
X66487295Y-136679619D01*
X66487295Y-136679619D02*
X66677771Y-136679619D01*
X66677771Y-136679619D02*
X66773009Y-136632000D01*
X65963485Y-136012952D02*
X65439676Y-136012952D01*
X65439676Y-136012952D02*
X65963485Y-136679619D01*
X65963485Y-136679619D02*
X65439676Y-136679619D01*
X64630152Y-136679619D02*
X64630152Y-136155809D01*
X64630152Y-136155809D02*
X64677771Y-136060571D01*
X64677771Y-136060571D02*
X64773009Y-136012952D01*
X64773009Y-136012952D02*
X64963485Y-136012952D01*
X64963485Y-136012952D02*
X65058723Y-136060571D01*
X64630152Y-136632000D02*
X64725390Y-136679619D01*
X64725390Y-136679619D02*
X64963485Y-136679619D01*
X64963485Y-136679619D02*
X65058723Y-136632000D01*
X65058723Y-136632000D02*
X65106342Y-136536761D01*
X65106342Y-136536761D02*
X65106342Y-136441523D01*
X65106342Y-136441523D02*
X65058723Y-136346285D01*
X65058723Y-136346285D02*
X64963485Y-136298666D01*
X64963485Y-136298666D02*
X64725390Y-136298666D01*
X64725390Y-136298666D02*
X64630152Y-136251047D01*
M02*
