%TF.GenerationSoftware,KiCad,Pcbnew,7.0.6*%
%TF.CreationDate,2023-07-23T20:46:28-06:00*%
%TF.ProjectId,Caress,43617265-7373-42e6-9b69-6361645f7063,2*%
%TF.SameCoordinates,Original*%
%TF.FileFunction,Copper,L1,Top*%
%TF.FilePolarity,Positive*%
%FSLAX46Y46*%
G04 Gerber Fmt 4.6, Leading zero omitted, Abs format (unit mm)*
G04 Created by KiCad (PCBNEW 7.0.6) date 2023-07-23 20:46:28*
%MOMM*%
%LPD*%
G01*
G04 APERTURE LIST*
G04 Aperture macros list*
%AMRoundRect*
0 Rectangle with rounded corners*
0 $1 Rounding radius*
0 $2 $3 $4 $5 $6 $7 $8 $9 X,Y pos of 4 corners*
0 Add a 4 corners polygon primitive as box body*
4,1,4,$2,$3,$4,$5,$6,$7,$8,$9,$2,$3,0*
0 Add four circle primitives for the rounded corners*
1,1,$1+$1,$2,$3*
1,1,$1+$1,$4,$5*
1,1,$1+$1,$6,$7*
1,1,$1+$1,$8,$9*
0 Add four rect primitives between the rounded corners*
20,1,$1+$1,$2,$3,$4,$5,0*
20,1,$1+$1,$4,$5,$6,$7,0*
20,1,$1+$1,$6,$7,$8,$9,0*
20,1,$1+$1,$8,$9,$2,$3,0*%
G04 Aperture macros list end*
%TA.AperFunction,ComponentPad*%
%ADD10C,1.600000*%
%TD*%
%TA.AperFunction,ComponentPad*%
%ADD11O,1.600000X1.600000*%
%TD*%
%TA.AperFunction,ComponentPad*%
%ADD12RoundRect,0.250000X-0.600000X-0.725000X0.600000X-0.725000X0.600000X0.725000X-0.600000X0.725000X0*%
%TD*%
%TA.AperFunction,ComponentPad*%
%ADD13O,1.700000X1.950000*%
%TD*%
%TA.AperFunction,ComponentPad*%
%ADD14RoundRect,0.250000X-0.725000X0.600000X-0.725000X-0.600000X0.725000X-0.600000X0.725000X0.600000X0*%
%TD*%
%TA.AperFunction,ComponentPad*%
%ADD15O,1.950000X1.700000*%
%TD*%
%TA.AperFunction,ComponentPad*%
%ADD16R,1.676400X1.676400*%
%TD*%
%TA.AperFunction,ComponentPad*%
%ADD17C,1.676400*%
%TD*%
%TA.AperFunction,ComponentPad*%
%ADD18RoundRect,0.250000X-0.600000X-0.750000X0.600000X-0.750000X0.600000X0.750000X-0.600000X0.750000X0*%
%TD*%
%TA.AperFunction,ComponentPad*%
%ADD19O,1.700000X2.000000*%
%TD*%
%TA.AperFunction,ComponentPad*%
%ADD20RoundRect,0.400000X0.450000X-0.400000X0.450000X0.400000X-0.450000X0.400000X-0.450000X-0.400000X0*%
%TD*%
%TA.AperFunction,ComponentPad*%
%ADD21C,1.879600*%
%TD*%
%TA.AperFunction,ComponentPad*%
%ADD22R,1.600000X1.600000*%
%TD*%
%TA.AperFunction,ComponentPad*%
%ADD23R,1.905000X2.000000*%
%TD*%
%TA.AperFunction,ComponentPad*%
%ADD24O,1.905000X2.000000*%
%TD*%
%TA.AperFunction,Conductor*%
%ADD25C,0.300000*%
%TD*%
%TA.AperFunction,Conductor*%
%ADD26C,0.500000*%
%TD*%
G04 APERTURE END LIST*
D10*
%TO.P,R4,1*%
%TO.N,+5V*%
X55895881Y-71120000D03*
D11*
%TO.P,R4,2*%
%TO.N,/D1_2A4*%
X48275881Y-71120000D03*
%TD*%
D12*
%TO.P,J4,1,Pin_1*%
%TO.N,GND*%
X88940000Y-50800000D03*
D13*
%TO.P,J4,2,Pin_2*%
%TO.N,+12V*%
X91480000Y-50800000D03*
%TO.P,J4,3,Pin_3*%
%TO.N,Net-(J4-Pin_3)*%
X94020000Y-50800000D03*
%TD*%
D14*
%TO.P,J1,1,Pin_1*%
%TO.N,Net-(J1-Pin_1)*%
X45720000Y-93980000D03*
D15*
%TO.P,J1,2,Pin_2*%
%TO.N,Net-(J1-Pin_2)*%
X45720000Y-96520000D03*
%TO.P,J1,3,Pin_3*%
%TO.N,Net-(J1-Pin_3)*%
X45720000Y-99060000D03*
%TO.P,J1,4,Pin_4*%
%TO.N,Net-(J1-Pin_4)*%
X45720000Y-101600000D03*
%TD*%
D16*
%TO.P,U4,1,1~G*%
%TO.N,/D2_G*%
X87630000Y-59690000D03*
D17*
%TO.P,U4,2,1A1*%
%TO.N,unconnected-(U4-1A1-Pad2)*%
X87630000Y-62230000D03*
%TO.P,U4,3,2Y4*%
%TO.N,Net-(J4-Pin_3)*%
X87630000Y-64770000D03*
%TO.P,U4,4,1A2*%
%TO.N,unconnected-(U4-1A2-Pad4)*%
X87630000Y-67310000D03*
%TO.P,U4,5,2Y3*%
%TO.N,unconnected-(U4-2Y3-Pad5)*%
X87630000Y-69850000D03*
%TO.P,U4,6,1A3*%
%TO.N,unconnected-(U4-1A3-Pad6)*%
X87630000Y-72390000D03*
%TO.P,U4,7,2Y2*%
%TO.N,unconnected-(U4-2Y2-Pad7)*%
X87630000Y-74930000D03*
%TO.P,U4,8,1A4*%
%TO.N,unconnected-(U4-1A4-Pad8)*%
X87630000Y-77470000D03*
%TO.P,U4,9,2Y1*%
%TO.N,unconnected-(U4-2Y1-Pad9)*%
X87630000Y-80010000D03*
%TO.P,U4,10,GND*%
%TO.N,GND*%
X87630000Y-82550000D03*
%TO.P,U4,11,2A1*%
%TO.N,unconnected-(U4-2A1-Pad11)*%
X95250000Y-82550000D03*
%TO.P,U4,12,1Y4*%
%TO.N,unconnected-(U4-1Y4-Pad12)*%
X95250000Y-80010000D03*
%TO.P,U4,13,2A2*%
%TO.N,unconnected-(U4-2A2-Pad13)*%
X95250000Y-77470000D03*
%TO.P,U4,14,1Y3*%
%TO.N,unconnected-(U4-1Y3-Pad14)*%
X95250000Y-74930000D03*
%TO.P,U4,15,2A3*%
%TO.N,unconnected-(U4-2A3-Pad15)*%
X95250000Y-72390000D03*
%TO.P,U4,16,1Y2*%
%TO.N,unconnected-(U4-1Y2-Pad16)*%
X95250000Y-69850000D03*
%TO.P,U4,17,2A4*%
%TO.N,/D1_2A4*%
X95250000Y-67310000D03*
%TO.P,U4,18,1Y1*%
%TO.N,/D0_1Y1*%
X95250000Y-64770000D03*
%TO.P,U4,19,2G*%
%TO.N,/D2_G*%
X95250000Y-62230000D03*
%TO.P,U4,20,VCC*%
%TO.N,+5V*%
X95250000Y-59690000D03*
%TD*%
D10*
%TO.P,C1,1*%
%TO.N,+12V*%
X88900000Y-99140000D03*
%TO.P,C1,2*%
%TO.N,GND*%
X88900000Y-104140000D03*
%TD*%
D18*
%TO.P,J2,1,Pin_1*%
%TO.N,+12V*%
X50840000Y-116840000D03*
D19*
%TO.P,J2,2,Pin_2*%
%TO.N,Net-(J2-Pin_2)*%
X53380000Y-116840000D03*
%TD*%
D20*
%TO.P,U1,1,GND*%
%TO.N,GND*%
X43180000Y-61206660D03*
D10*
%TO.P,U1,2,IRQ*%
%TO.N,/D8_IRQ*%
X45720000Y-61206660D03*
%TO.P,U1,3,MISO*%
%TO.N,/D12_MISO*%
X48260000Y-61206660D03*
%TO.P,U1,4,MOSI*%
%TO.N,/D11_MOSI*%
X50800000Y-61206660D03*
%TO.P,U1,5,SCK*%
%TO.N,/D13_SCK*%
X53340000Y-61206660D03*
%TO.P,U1,6,CSN*%
%TO.N,/D10_CSN*%
X55880000Y-61206660D03*
%TO.P,U1,7,CE*%
%TO.N,/D9_CE*%
X58420000Y-61206660D03*
%TO.P,U1,8,VCC*%
%TO.N,+5V*%
X60960000Y-61206660D03*
%TD*%
%TO.P,R1,1*%
%TO.N,+12V*%
X48275881Y-76200000D03*
D11*
%TO.P,R1,2*%
%TO.N,/A0_VBat*%
X55895881Y-76200000D03*
%TD*%
D10*
%TO.P,R6,1*%
%TO.N,+5V*%
X59690000Y-99060000D03*
D11*
%TO.P,R6,2*%
%TO.N,Net-(J4-Pin_3)*%
X67310000Y-99060000D03*
%TD*%
D10*
%TO.P,R5,1*%
%TO.N,+5V*%
X59690000Y-93980000D03*
D11*
%TO.P,R5,2*%
%TO.N,/D0_1Y1*%
X67310000Y-93980000D03*
%TD*%
D10*
%TO.P,C2,1*%
%TO.N,/VIN_5v*%
X93980000Y-99140000D03*
%TO.P,C2,2*%
%TO.N,GND*%
X93980000Y-104140000D03*
%TD*%
D18*
%TO.P,J3,1,Pin_1*%
%TO.N,+12V*%
X88940000Y-116840000D03*
D19*
%TO.P,J3,2,Pin_2*%
%TO.N,GND*%
X91480000Y-116840000D03*
%TD*%
D21*
%TO.P,U2,1,RED*%
%TO.N,Net-(J1-Pin_1)*%
X52070000Y-93980000D03*
%TO.P,U2,2,BLK*%
%TO.N,Net-(J1-Pin_2)*%
X52070000Y-96520000D03*
%TO.P,U2,3,WHT*%
%TO.N,Net-(J1-Pin_3)*%
X52070000Y-99060000D03*
%TO.P,U2,4,GRN*%
%TO.N,Net-(J1-Pin_4)*%
X52070000Y-101600000D03*
%TO.P,U2,5,YLW*%
%TO.N,unconnected-(U2-YLW-Pad5)*%
X52070000Y-104140000D03*
%TO.P,U2,6,GND*%
%TO.N,GND*%
X80010000Y-104140000D03*
%TO.P,U2,7,CLK*%
%TO.N,/D5_CLK*%
X80010000Y-101600000D03*
%TO.P,U2,8,DAT*%
%TO.N,/D6_DAT*%
X80010000Y-99060000D03*
%TO.P,U2,9,VCC*%
%TO.N,+5V*%
X80010000Y-96520000D03*
%TO.P,U2,10,VDD*%
X80010000Y-93980000D03*
%TO.P,U2,11,B+*%
%TO.N,unconnected-(U2-B+-Pad11)*%
X72390000Y-101600000D03*
%TO.P,U2,12,B-*%
%TO.N,unconnected-(U2-B--Pad12)*%
X72390000Y-104140000D03*
%TD*%
D22*
%TO.P,A1,1,D1/TX*%
%TO.N,/D1_2A4*%
X81280000Y-79400000D03*
D11*
%TO.P,A1,2,D0/RX*%
%TO.N,/D0_1Y1*%
X81280000Y-76860000D03*
%TO.P,A1,3,~{RESET}*%
%TO.N,unconnected-(A1-~{RESET}-Pad3)*%
X81280000Y-74320000D03*
%TO.P,A1,4,GND*%
%TO.N,GND*%
X81280000Y-71780000D03*
%TO.P,A1,5,D2*%
%TO.N,/D2_G*%
X81280000Y-69240000D03*
%TO.P,A1,6,D3*%
%TO.N,unconnected-(A1-D3-Pad6)*%
X81280000Y-66700000D03*
%TO.P,A1,7,D4*%
%TO.N,unconnected-(A1-D4-Pad7)*%
X81280000Y-64160000D03*
%TO.P,A1,8,D5*%
%TO.N,/D5_CLK*%
X81280000Y-61620000D03*
%TO.P,A1,9,D6*%
%TO.N,/D6_DAT*%
X81280000Y-59080000D03*
%TO.P,A1,10,D7*%
%TO.N,unconnected-(A1-D7-Pad10)*%
X81280000Y-56540000D03*
%TO.P,A1,11,D8*%
%TO.N,/D8_IRQ*%
X81280000Y-54000000D03*
%TO.P,A1,12,D9*%
%TO.N,/D9_CE*%
X81280000Y-51460000D03*
%TO.P,A1,13,D10*%
%TO.N,/D10_CSN*%
X81280000Y-48920000D03*
%TO.P,A1,14,D11*%
%TO.N,/D11_MOSI*%
X81280000Y-46380000D03*
%TO.P,A1,15,D12*%
%TO.N,/D12_MISO*%
X81280000Y-43840000D03*
%TO.P,A1,16,D13*%
%TO.N,/D13_SCK*%
X66040000Y-43840000D03*
%TO.P,A1,17,3V3*%
%TO.N,unconnected-(A1-3V3-Pad17)*%
X66040000Y-46380000D03*
%TO.P,A1,18,AREF*%
%TO.N,unconnected-(A1-AREF-Pad18)*%
X66040000Y-48920000D03*
%TO.P,A1,19,A0*%
%TO.N,/A0_VBat*%
X66040000Y-51460000D03*
%TO.P,A1,20,A1*%
%TO.N,unconnected-(A1-A1-Pad20)*%
X66040000Y-54000000D03*
%TO.P,A1,21,A2*%
%TO.N,unconnected-(A1-A2-Pad21)*%
X66040000Y-56540000D03*
%TO.P,A1,22,A3*%
%TO.N,unconnected-(A1-A3-Pad22)*%
X66040000Y-59080000D03*
%TO.P,A1,23,A4*%
%TO.N,unconnected-(A1-A4-Pad23)*%
X66040000Y-61620000D03*
%TO.P,A1,24,A5*%
%TO.N,unconnected-(A1-A5-Pad24)*%
X66040000Y-64160000D03*
%TO.P,A1,25,A6*%
%TO.N,unconnected-(A1-A6-Pad25)*%
X66040000Y-66700000D03*
%TO.P,A1,26,A7*%
%TO.N,unconnected-(A1-A7-Pad26)*%
X66040000Y-69240000D03*
%TO.P,A1,27,+5V*%
%TO.N,+5V*%
X66040000Y-71780000D03*
%TO.P,A1,28,~{RESET}*%
%TO.N,unconnected-(A1-~{RESET}-Pad28)*%
X66040000Y-74320000D03*
%TO.P,A1,29,GND*%
%TO.N,GND*%
X66040000Y-76860000D03*
%TO.P,A1,30,VIN*%
%TO.N,/VIN_5v*%
X66040000Y-79400000D03*
%TD*%
D10*
%TO.P,R3,1*%
%TO.N,Net-(J2-Pin_2)*%
X59690000Y-104140000D03*
D11*
%TO.P,R3,2*%
%TO.N,GND*%
X67310000Y-104140000D03*
%TD*%
D10*
%TO.P,R2,1*%
%TO.N,/A0_VBat*%
X48275881Y-66040000D03*
D11*
%TO.P,R2,2*%
%TO.N,GND*%
X55895881Y-66040000D03*
%TD*%
D23*
%TO.P,U3,1,VI*%
%TO.N,+12V*%
X88900000Y-91440000D03*
D24*
%TO.P,U3,2,GND*%
%TO.N,GND*%
X91440000Y-91440000D03*
%TO.P,U3,3,VO*%
%TO.N,/VIN_5v*%
X93980000Y-91440000D03*
%TD*%
D25*
%TO.N,GND*%
X79890000Y-73170000D02*
X81280000Y-71780000D01*
X54745881Y-67190000D02*
X54745881Y-72525881D01*
D26*
X93980000Y-104140000D02*
X91440000Y-106680000D01*
X85841800Y-67218200D02*
X79890000Y-73170000D01*
D25*
X87630000Y-82550000D02*
X87630000Y-87630000D01*
D26*
X78620200Y-105529800D02*
X68699800Y-105529800D01*
X80010000Y-104140000D02*
X78620200Y-105529800D01*
X85841800Y-53898200D02*
X85841800Y-67218200D01*
D25*
X54745881Y-72525881D02*
X55390000Y-73170000D01*
X87630000Y-82550000D02*
X71730000Y-82550000D01*
D26*
X91440000Y-101600000D02*
X91440000Y-91440000D01*
D25*
X87630000Y-87630000D02*
X91440000Y-91440000D01*
D26*
X91440000Y-116840000D02*
X91440000Y-106680000D01*
D25*
X55390000Y-73170000D02*
X79890000Y-73170000D01*
D26*
X88940000Y-50800000D02*
X85841800Y-53898200D01*
X91440000Y-106680000D02*
X88900000Y-104140000D01*
X93980000Y-104140000D02*
X91440000Y-101600000D01*
D25*
X55895881Y-66040000D02*
X54745881Y-67190000D01*
D26*
X68699800Y-105529800D02*
X67310000Y-104140000D01*
D25*
X71730000Y-82550000D02*
X66040000Y-76860000D01*
%TO.N,+5V*%
X55895881Y-71120000D02*
X56555881Y-71780000D01*
X60960000Y-61206660D02*
X60960000Y-66700000D01*
X60960000Y-66700000D02*
X66040000Y-71780000D01*
X80010000Y-96520000D02*
X80010000Y-93980000D01*
X63856346Y-99060000D02*
X59690000Y-99060000D01*
X68936346Y-93980000D02*
X63856346Y-99060000D01*
X80010000Y-93980000D02*
X68936346Y-93980000D01*
X59690000Y-99060000D02*
X59690000Y-93980000D01*
X56555881Y-71780000D02*
X66040000Y-71780000D01*
%TO.N,+12V*%
X48275881Y-76200000D02*
X43180000Y-81295881D01*
D26*
X88940000Y-116840000D02*
X87650000Y-115550000D01*
X88940000Y-116840000D02*
X90390000Y-118290000D01*
X96538200Y-51354722D02*
X94558478Y-49375000D01*
X52290000Y-118290000D02*
X87490000Y-118290000D01*
X94558478Y-49375000D02*
X92905000Y-49375000D01*
X92905000Y-49375000D02*
X91480000Y-50800000D01*
X50840000Y-116840000D02*
X52290000Y-118290000D01*
X87650000Y-100390000D02*
X88900000Y-99140000D01*
D25*
X43180000Y-81295881D02*
X43180000Y-109180000D01*
X43180000Y-109180000D02*
X50840000Y-116840000D01*
D26*
X90390000Y-118290000D02*
X95070000Y-118290000D01*
X87650000Y-115550000D02*
X87650000Y-100390000D01*
X88900000Y-99140000D02*
X88900000Y-91440000D01*
X87490000Y-118290000D02*
X88940000Y-116840000D01*
X95070000Y-118290000D02*
X96538200Y-116821800D01*
X96538200Y-116821800D02*
X96538200Y-51354722D01*
D25*
%TO.N,/D1_2A4*%
X91440000Y-78740000D02*
X91440000Y-71120000D01*
X78250000Y-75710000D02*
X81280000Y-78740000D01*
X52442227Y-71120000D02*
X57032227Y-75710000D01*
X81280000Y-78740000D02*
X81280000Y-79400000D01*
X57032227Y-75710000D02*
X78250000Y-75710000D01*
X91440000Y-71120000D02*
X95250000Y-67310000D01*
X81940000Y-78740000D02*
X91440000Y-78740000D01*
X81280000Y-79400000D02*
X81940000Y-78740000D01*
X48275881Y-71120000D02*
X52442227Y-71120000D01*
%TO.N,/D0_1Y1*%
X81940000Y-76200000D02*
X81280000Y-76860000D01*
X86360000Y-71120000D02*
X81940000Y-75540000D01*
X81940000Y-75540000D02*
X81940000Y-76200000D01*
X95250000Y-64770000D02*
X88900000Y-71120000D01*
X88900000Y-71120000D02*
X86360000Y-71120000D01*
%TO.N,/D2_G*%
X95250000Y-62230000D02*
X90170000Y-62230000D01*
X90170000Y-62230000D02*
X87630000Y-59690000D01*
%TO.N,/D9_CE*%
X77350000Y-55390000D02*
X81280000Y-51460000D01*
X58420000Y-61206660D02*
X58420000Y-55880000D01*
X58420000Y-55880000D02*
X58910000Y-55390000D01*
X58910000Y-55390000D02*
X77350000Y-55390000D01*
%TO.N,/D10_CSN*%
X81280000Y-48920000D02*
X77350000Y-52850000D01*
X59970659Y-52850000D02*
X55880000Y-56940659D01*
X77350000Y-52850000D02*
X59970659Y-52850000D01*
X55880000Y-56940659D02*
X55880000Y-61206660D01*
%TO.N,/D13_SCK*%
X64465788Y-46940659D02*
X53340000Y-58066447D01*
X64465788Y-45414212D02*
X64465788Y-46940659D01*
X53340000Y-58066447D02*
X53340000Y-61206660D01*
X66040000Y-43840000D02*
X64465788Y-45414212D01*
%TO.N,/A0_VBat*%
X53355881Y-73660000D02*
X48260000Y-73660000D01*
X50800000Y-66040000D02*
X48275881Y-66040000D01*
X54730000Y-62110000D02*
X50800000Y-66040000D01*
X66040000Y-51460000D02*
X60653553Y-51460000D01*
X48260000Y-73660000D02*
X45720000Y-71120000D01*
X55380000Y-56733553D02*
X55380000Y-60080314D01*
X54730000Y-60730314D02*
X54730000Y-62110000D01*
X45720000Y-68595881D02*
X48275881Y-66040000D01*
X55895881Y-76200000D02*
X53355881Y-73660000D01*
X45720000Y-71120000D02*
X45720000Y-68595881D01*
X55380000Y-60080314D02*
X54730000Y-60730314D01*
X60653553Y-51460000D02*
X55380000Y-56733553D01*
D26*
%TO.N,Net-(J1-Pin_1)*%
X52070000Y-93980000D02*
X45720000Y-93980000D01*
%TO.N,Net-(J1-Pin_2)*%
X52070000Y-96520000D02*
X45720000Y-96520000D01*
%TO.N,Net-(J1-Pin_3)*%
X52070000Y-99060000D02*
X45720000Y-99060000D01*
%TO.N,Net-(J1-Pin_4)*%
X45720000Y-101600000D02*
X52070000Y-101600000D01*
D25*
%TO.N,Net-(J4-Pin_3)*%
X86441800Y-63581800D02*
X86441800Y-58298200D01*
X87630000Y-64770000D02*
X86441800Y-63581800D01*
X86441800Y-58298200D02*
X93940000Y-50800000D01*
D26*
%TO.N,Net-(J2-Pin_2)*%
X53340000Y-116840000D02*
X53340000Y-110490000D01*
X53340000Y-110490000D02*
X59690000Y-104140000D01*
%TD*%
M02*
