M48
; DRILL file {KiCad 7.0.6} date Sun Jul 23 20:46:35 2023
; FORMAT={-:-/ absolute / inch / decimal}
; #@! TF.CreationDate,2023-07-23T20:46:35-06:00
; #@! TF.GenerationSoftware,Kicad,Pcbnew,7.0.6
; #@! TF.FileFunction,Plated,1,2,PTH
FMAT,2
INCH
; #@! TA.AperFunction,Plated,PTH,ComponentDrill
T1C0.0315
; #@! TA.AperFunction,Plated,PTH,ComponentDrill
T2C0.0374
; #@! TA.AperFunction,Plated,PTH,ComponentDrill
T3C0.0394
; #@! TA.AperFunction,Plated,PTH,ComponentDrill
T4C0.0400
; #@! TA.AperFunction,Plated,PTH,ComponentDrill
T5C0.0433
; #@! TA.AperFunction,Plated,PTH,ComponentDrill
T6C0.0440
%
G90
G05
T1
X1.9006Y-2.6
X1.9006Y-2.8
X1.9006Y-3.0
X2.2006Y-2.6
X2.2006Y-2.8
X2.2006Y-3.0
X2.35Y-3.7
X2.35Y-3.9
X2.35Y-4.1
X2.65Y-3.7
X2.65Y-3.9
X2.65Y-4.1
X3.5Y-3.9031
X3.5Y-4.1
X3.7Y-3.9031
X3.7Y-4.1
T2
X1.8Y-3.7
X1.8Y-3.8
X1.8Y-3.9
X1.8Y-4.0
X3.5016Y-2.0
X3.6016Y-2.0
X3.7016Y-2.0
T3
X1.7Y-2.4097
X1.8Y-2.4097
X1.9Y-2.4097
X2.0Y-2.4097
X2.0016Y-4.6
X2.1Y-2.4097
X2.1016Y-4.6
X2.2Y-2.4097
X2.3Y-2.4097
X2.4Y-2.4097
X2.6Y-1.726
X2.6Y-1.826
X2.6Y-1.926
X2.6Y-2.026
X2.6Y-2.126
X2.6Y-2.226
X2.6Y-2.326
X2.6Y-2.426
X2.6Y-2.526
X2.6Y-2.626
X2.6Y-2.726
X2.6Y-2.826
X2.6Y-2.926
X2.6Y-3.026
X2.6Y-3.126
X3.2Y-1.726
X3.2Y-1.826
X3.2Y-1.926
X3.2Y-2.026
X3.2Y-2.126
X3.2Y-2.226
X3.2Y-2.326
X3.2Y-2.426
X3.2Y-2.526
X3.2Y-2.626
X3.2Y-2.726
X3.2Y-2.826
X3.2Y-2.926
X3.2Y-3.026
X3.2Y-3.126
X3.5016Y-4.6
X3.6016Y-4.6
T4
X2.05Y-3.7
X2.05Y-3.8
X2.05Y-3.9
X2.05Y-4.0
X2.05Y-4.1
X2.85Y-4.0
X2.85Y-4.1
X3.15Y-3.7
X3.15Y-3.8
X3.15Y-3.9
X3.15Y-4.0
X3.15Y-4.1
T5
X3.5Y-3.6
X3.6Y-3.6
X3.7Y-3.6
T6
X3.45Y-2.35
X3.45Y-2.45
X3.45Y-2.55
X3.45Y-2.65
X3.45Y-2.75
X3.45Y-2.85
X3.45Y-2.95
X3.45Y-3.05
X3.45Y-3.15
X3.45Y-3.25
X3.75Y-2.35
X3.75Y-2.45
X3.75Y-2.55
X3.75Y-2.65
X3.75Y-2.75
X3.75Y-2.85
X3.75Y-2.95
X3.75Y-3.05
X3.75Y-3.15
X3.75Y-3.25
T0
M30
