%TF.GenerationSoftware,KiCad,Pcbnew,7.0.6*%
%TF.CreationDate,2023-07-23T20:47:22-06:00*%
%TF.ProjectId,Air,4169722e-6b69-4636-9164-5f7063625858,2*%
%TF.SameCoordinates,Original*%
%TF.FileFunction,Legend,Top*%
%TF.FilePolarity,Positive*%
%FSLAX46Y46*%
G04 Gerber Fmt 4.6, Leading zero omitted, Abs format (unit mm)*
G04 Created by KiCad (PCBNEW 7.0.6) date 2023-07-23 20:47:22*
%MOMM*%
%LPD*%
G01*
G04 APERTURE LIST*
%ADD10C,0.500000*%
%ADD11C,0.200000*%
%ADD12C,0.250000*%
%ADD13C,0.150000*%
%ADD14C,0.120000*%
G04 APERTURE END LIST*
D10*
X86599234Y-48728837D02*
G75*
G03*
X86599234Y-48728837I-1276334J0D01*
G01*
X86587468Y-43649850D02*
G75*
G03*
X86587468Y-43649850I-1276334J0D01*
G01*
X66265252Y-79218266D02*
G75*
G03*
X66265252Y-79218266I-1276334J0D01*
G01*
D11*
X48000000Y-135000000D02*
G75*
G03*
X48000000Y-135000000I-3000000J0D01*
G01*
D10*
X86618309Y-71610573D02*
G75*
G03*
X86618309Y-71610573I-1276334J0D01*
G01*
X86584806Y-69043554D02*
G75*
G03*
X86584806Y-69043554I-1276334J0D01*
G01*
X66255026Y-51282967D02*
G75*
G03*
X66255026Y-51282967I-1276334J0D01*
G01*
D11*
X98000000Y-45000000D02*
G75*
G03*
X98000000Y-45000000I-3000000J0D01*
G01*
D10*
X86596640Y-63978820D02*
G75*
G03*
X86596640Y-63978820I-1276334J0D01*
G01*
X86586306Y-53807189D02*
G75*
G03*
X86586306Y-53807189I-1276334J0D01*
G01*
D11*
X48000000Y-45000000D02*
G75*
G03*
X48000000Y-45000000I-3000000J0D01*
G01*
D10*
X86602719Y-51279482D02*
G75*
G03*
X86602719Y-51279482I-1276334J0D01*
G01*
X66259835Y-43651187D02*
G75*
G03*
X66259835Y-43651187I-1276334J0D01*
G01*
X86599234Y-46201130D02*
G75*
G03*
X86599234Y-46201130I-1276334J0D01*
G01*
X66276086Y-71607763D02*
G75*
G03*
X66276086Y-71607763I-1276334J0D01*
G01*
X66278734Y-76678820D02*
G75*
G03*
X66278734Y-76678820I-1276334J0D01*
G01*
D11*
X98000000Y-135000000D02*
G75*
G03*
X98000000Y-135000000I-3000000J0D01*
G01*
D10*
X86595749Y-66504905D02*
G75*
G03*
X86595749Y-66504905I-1276334J0D01*
G01*
D12*
X84984724Y-126460421D02*
X84984724Y-125460421D01*
X84984724Y-125460421D02*
X85365676Y-125460421D01*
X85365676Y-125460421D02*
X85460914Y-125508040D01*
X85460914Y-125508040D02*
X85508533Y-125555659D01*
X85508533Y-125555659D02*
X85556152Y-125650897D01*
X85556152Y-125650897D02*
X85556152Y-125793754D01*
X85556152Y-125793754D02*
X85508533Y-125888992D01*
X85508533Y-125888992D02*
X85460914Y-125936611D01*
X85460914Y-125936611D02*
X85365676Y-125984230D01*
X85365676Y-125984230D02*
X84984724Y-125984230D01*
X86127581Y-126460421D02*
X86032343Y-126412802D01*
X86032343Y-126412802D02*
X85984724Y-126365182D01*
X85984724Y-126365182D02*
X85937105Y-126269944D01*
X85937105Y-126269944D02*
X85937105Y-125984230D01*
X85937105Y-125984230D02*
X85984724Y-125888992D01*
X85984724Y-125888992D02*
X86032343Y-125841373D01*
X86032343Y-125841373D02*
X86127581Y-125793754D01*
X86127581Y-125793754D02*
X86270438Y-125793754D01*
X86270438Y-125793754D02*
X86365676Y-125841373D01*
X86365676Y-125841373D02*
X86413295Y-125888992D01*
X86413295Y-125888992D02*
X86460914Y-125984230D01*
X86460914Y-125984230D02*
X86460914Y-126269944D01*
X86460914Y-126269944D02*
X86413295Y-126365182D01*
X86413295Y-126365182D02*
X86365676Y-126412802D01*
X86365676Y-126412802D02*
X86270438Y-126460421D01*
X86270438Y-126460421D02*
X86127581Y-126460421D01*
X86794248Y-125793754D02*
X86984724Y-126460421D01*
X86984724Y-126460421D02*
X87175200Y-125984230D01*
X87175200Y-125984230D02*
X87365676Y-126460421D01*
X87365676Y-126460421D02*
X87556152Y-125793754D01*
X88318057Y-126412802D02*
X88222819Y-126460421D01*
X88222819Y-126460421D02*
X88032343Y-126460421D01*
X88032343Y-126460421D02*
X87937105Y-126412802D01*
X87937105Y-126412802D02*
X87889486Y-126317563D01*
X87889486Y-126317563D02*
X87889486Y-125936611D01*
X87889486Y-125936611D02*
X87937105Y-125841373D01*
X87937105Y-125841373D02*
X88032343Y-125793754D01*
X88032343Y-125793754D02*
X88222819Y-125793754D01*
X88222819Y-125793754D02*
X88318057Y-125841373D01*
X88318057Y-125841373D02*
X88365676Y-125936611D01*
X88365676Y-125936611D02*
X88365676Y-126031849D01*
X88365676Y-126031849D02*
X87889486Y-126127087D01*
X88794248Y-126460421D02*
X88794248Y-125793754D01*
X88794248Y-125984230D02*
X88841867Y-125888992D01*
X88841867Y-125888992D02*
X88889486Y-125841373D01*
X88889486Y-125841373D02*
X88984724Y-125793754D01*
X88984724Y-125793754D02*
X89079962Y-125793754D01*
X90127582Y-126412802D02*
X90270439Y-126460421D01*
X90270439Y-126460421D02*
X90508534Y-126460421D01*
X90508534Y-126460421D02*
X90603772Y-126412802D01*
X90603772Y-126412802D02*
X90651391Y-126365182D01*
X90651391Y-126365182D02*
X90699010Y-126269944D01*
X90699010Y-126269944D02*
X90699010Y-126174706D01*
X90699010Y-126174706D02*
X90651391Y-126079468D01*
X90651391Y-126079468D02*
X90603772Y-126031849D01*
X90603772Y-126031849D02*
X90508534Y-125984230D01*
X90508534Y-125984230D02*
X90318058Y-125936611D01*
X90318058Y-125936611D02*
X90222820Y-125888992D01*
X90222820Y-125888992D02*
X90175201Y-125841373D01*
X90175201Y-125841373D02*
X90127582Y-125746135D01*
X90127582Y-125746135D02*
X90127582Y-125650897D01*
X90127582Y-125650897D02*
X90175201Y-125555659D01*
X90175201Y-125555659D02*
X90222820Y-125508040D01*
X90222820Y-125508040D02*
X90318058Y-125460421D01*
X90318058Y-125460421D02*
X90556153Y-125460421D01*
X90556153Y-125460421D02*
X90699010Y-125508040D01*
X91556153Y-125793754D02*
X91556153Y-126460421D01*
X91127582Y-125793754D02*
X91127582Y-126317563D01*
X91127582Y-126317563D02*
X91175201Y-126412802D01*
X91175201Y-126412802D02*
X91270439Y-126460421D01*
X91270439Y-126460421D02*
X91413296Y-126460421D01*
X91413296Y-126460421D02*
X91508534Y-126412802D01*
X91508534Y-126412802D02*
X91556153Y-126365182D01*
X92032344Y-125793754D02*
X92032344Y-126793754D01*
X92032344Y-125841373D02*
X92127582Y-125793754D01*
X92127582Y-125793754D02*
X92318058Y-125793754D01*
X92318058Y-125793754D02*
X92413296Y-125841373D01*
X92413296Y-125841373D02*
X92460915Y-125888992D01*
X92460915Y-125888992D02*
X92508534Y-125984230D01*
X92508534Y-125984230D02*
X92508534Y-126269944D01*
X92508534Y-126269944D02*
X92460915Y-126365182D01*
X92460915Y-126365182D02*
X92413296Y-126412802D01*
X92413296Y-126412802D02*
X92318058Y-126460421D01*
X92318058Y-126460421D02*
X92127582Y-126460421D01*
X92127582Y-126460421D02*
X92032344Y-126412802D01*
X92937106Y-125793754D02*
X92937106Y-126793754D01*
X92937106Y-125841373D02*
X93032344Y-125793754D01*
X93032344Y-125793754D02*
X93222820Y-125793754D01*
X93222820Y-125793754D02*
X93318058Y-125841373D01*
X93318058Y-125841373D02*
X93365677Y-125888992D01*
X93365677Y-125888992D02*
X93413296Y-125984230D01*
X93413296Y-125984230D02*
X93413296Y-126269944D01*
X93413296Y-126269944D02*
X93365677Y-126365182D01*
X93365677Y-126365182D02*
X93318058Y-126412802D01*
X93318058Y-126412802D02*
X93222820Y-126460421D01*
X93222820Y-126460421D02*
X93032344Y-126460421D01*
X93032344Y-126460421D02*
X92937106Y-126412802D01*
X93984725Y-126460421D02*
X93889487Y-126412802D01*
X93889487Y-126412802D02*
X93841868Y-126317563D01*
X93841868Y-126317563D02*
X93841868Y-125460421D01*
X94270440Y-125793754D02*
X94508535Y-126460421D01*
X94746630Y-125793754D02*
X94508535Y-126460421D01*
X94508535Y-126460421D02*
X94413297Y-126698516D01*
X94413297Y-126698516D02*
X94365678Y-126746135D01*
X94365678Y-126746135D02*
X94270440Y-126793754D01*
X65277511Y-133985888D02*
X65753701Y-133985888D01*
X65182273Y-134271603D02*
X65515606Y-133271603D01*
X65515606Y-133271603D02*
X65848939Y-134271603D01*
X66182273Y-134271603D02*
X66182273Y-133604936D01*
X66182273Y-133271603D02*
X66134654Y-133319222D01*
X66134654Y-133319222D02*
X66182273Y-133366841D01*
X66182273Y-133366841D02*
X66229892Y-133319222D01*
X66229892Y-133319222D02*
X66182273Y-133271603D01*
X66182273Y-133271603D02*
X66182273Y-133366841D01*
X66658463Y-134271603D02*
X66658463Y-133604936D01*
X66658463Y-133795412D02*
X66706082Y-133700174D01*
X66706082Y-133700174D02*
X66753701Y-133652555D01*
X66753701Y-133652555D02*
X66848939Y-133604936D01*
X66848939Y-133604936D02*
X66944177Y-133604936D01*
X68039416Y-134271603D02*
X68039416Y-133271603D01*
X68039416Y-133271603D02*
X68372749Y-133985888D01*
X68372749Y-133985888D02*
X68706082Y-133271603D01*
X68706082Y-133271603D02*
X68706082Y-134271603D01*
X69325130Y-134271603D02*
X69229892Y-134223984D01*
X69229892Y-134223984D02*
X69182273Y-134176364D01*
X69182273Y-134176364D02*
X69134654Y-134081126D01*
X69134654Y-134081126D02*
X69134654Y-133795412D01*
X69134654Y-133795412D02*
X69182273Y-133700174D01*
X69182273Y-133700174D02*
X69229892Y-133652555D01*
X69229892Y-133652555D02*
X69325130Y-133604936D01*
X69325130Y-133604936D02*
X69467987Y-133604936D01*
X69467987Y-133604936D02*
X69563225Y-133652555D01*
X69563225Y-133652555D02*
X69610844Y-133700174D01*
X69610844Y-133700174D02*
X69658463Y-133795412D01*
X69658463Y-133795412D02*
X69658463Y-134081126D01*
X69658463Y-134081126D02*
X69610844Y-134176364D01*
X69610844Y-134176364D02*
X69563225Y-134223984D01*
X69563225Y-134223984D02*
X69467987Y-134271603D01*
X69467987Y-134271603D02*
X69325130Y-134271603D01*
X70515606Y-134271603D02*
X70515606Y-133271603D01*
X70515606Y-134223984D02*
X70420368Y-134271603D01*
X70420368Y-134271603D02*
X70229892Y-134271603D01*
X70229892Y-134271603D02*
X70134654Y-134223984D01*
X70134654Y-134223984D02*
X70087035Y-134176364D01*
X70087035Y-134176364D02*
X70039416Y-134081126D01*
X70039416Y-134081126D02*
X70039416Y-133795412D01*
X70039416Y-133795412D02*
X70087035Y-133700174D01*
X70087035Y-133700174D02*
X70134654Y-133652555D01*
X70134654Y-133652555D02*
X70229892Y-133604936D01*
X70229892Y-133604936D02*
X70420368Y-133604936D01*
X70420368Y-133604936D02*
X70515606Y-133652555D01*
X71420368Y-133604936D02*
X71420368Y-134271603D01*
X70991797Y-133604936D02*
X70991797Y-134128745D01*
X70991797Y-134128745D02*
X71039416Y-134223984D01*
X71039416Y-134223984D02*
X71134654Y-134271603D01*
X71134654Y-134271603D02*
X71277511Y-134271603D01*
X71277511Y-134271603D02*
X71372749Y-134223984D01*
X71372749Y-134223984D02*
X71420368Y-134176364D01*
X72039416Y-134271603D02*
X71944178Y-134223984D01*
X71944178Y-134223984D02*
X71896559Y-134128745D01*
X71896559Y-134128745D02*
X71896559Y-133271603D01*
X72801321Y-134223984D02*
X72706083Y-134271603D01*
X72706083Y-134271603D02*
X72515607Y-134271603D01*
X72515607Y-134271603D02*
X72420369Y-134223984D01*
X72420369Y-134223984D02*
X72372750Y-134128745D01*
X72372750Y-134128745D02*
X72372750Y-133747793D01*
X72372750Y-133747793D02*
X72420369Y-133652555D01*
X72420369Y-133652555D02*
X72515607Y-133604936D01*
X72515607Y-133604936D02*
X72706083Y-133604936D01*
X72706083Y-133604936D02*
X72801321Y-133652555D01*
X72801321Y-133652555D02*
X72848940Y-133747793D01*
X72848940Y-133747793D02*
X72848940Y-133843031D01*
X72848940Y-133843031D02*
X72372750Y-133938269D01*
X74039417Y-134271603D02*
X74039417Y-133271603D01*
X74039417Y-133271603D02*
X74372750Y-133985888D01*
X74372750Y-133985888D02*
X74706083Y-133271603D01*
X74706083Y-133271603D02*
X74706083Y-134271603D01*
X75182274Y-134271603D02*
X75182274Y-133271603D01*
X75277512Y-133890650D02*
X75563226Y-134271603D01*
X75563226Y-133604936D02*
X75182274Y-133985888D01*
X75944179Y-133366841D02*
X75991798Y-133319222D01*
X75991798Y-133319222D02*
X76087036Y-133271603D01*
X76087036Y-133271603D02*
X76325131Y-133271603D01*
X76325131Y-133271603D02*
X76420369Y-133319222D01*
X76420369Y-133319222D02*
X76467988Y-133366841D01*
X76467988Y-133366841D02*
X76515607Y-133462079D01*
X76515607Y-133462079D02*
X76515607Y-133557317D01*
X76515607Y-133557317D02*
X76467988Y-133700174D01*
X76467988Y-133700174D02*
X75896560Y-134271603D01*
X75896560Y-134271603D02*
X76515607Y-134271603D01*
X60539414Y-135881603D02*
X60539414Y-134881603D01*
X60539414Y-134881603D02*
X61110842Y-135881603D01*
X61110842Y-135881603D02*
X61110842Y-134881603D01*
X61967985Y-135833984D02*
X61872747Y-135881603D01*
X61872747Y-135881603D02*
X61682271Y-135881603D01*
X61682271Y-135881603D02*
X61587033Y-135833984D01*
X61587033Y-135833984D02*
X61539414Y-135738745D01*
X61539414Y-135738745D02*
X61539414Y-135357793D01*
X61539414Y-135357793D02*
X61587033Y-135262555D01*
X61587033Y-135262555D02*
X61682271Y-135214936D01*
X61682271Y-135214936D02*
X61872747Y-135214936D01*
X61872747Y-135214936D02*
X61967985Y-135262555D01*
X61967985Y-135262555D02*
X62015604Y-135357793D01*
X62015604Y-135357793D02*
X62015604Y-135453031D01*
X62015604Y-135453031D02*
X61539414Y-135548269D01*
X62872747Y-135214936D02*
X62872747Y-135881603D01*
X62444176Y-135214936D02*
X62444176Y-135738745D01*
X62444176Y-135738745D02*
X62491795Y-135833984D01*
X62491795Y-135833984D02*
X62587033Y-135881603D01*
X62587033Y-135881603D02*
X62729890Y-135881603D01*
X62729890Y-135881603D02*
X62825128Y-135833984D01*
X62825128Y-135833984D02*
X62872747Y-135786364D01*
X63348938Y-135881603D02*
X63348938Y-135214936D01*
X63348938Y-135405412D02*
X63396557Y-135310174D01*
X63396557Y-135310174D02*
X63444176Y-135262555D01*
X63444176Y-135262555D02*
X63539414Y-135214936D01*
X63539414Y-135214936D02*
X63634652Y-135214936D01*
X64110843Y-135881603D02*
X64015605Y-135833984D01*
X64015605Y-135833984D02*
X63967986Y-135786364D01*
X63967986Y-135786364D02*
X63920367Y-135691126D01*
X63920367Y-135691126D02*
X63920367Y-135405412D01*
X63920367Y-135405412D02*
X63967986Y-135310174D01*
X63967986Y-135310174D02*
X64015605Y-135262555D01*
X64015605Y-135262555D02*
X64110843Y-135214936D01*
X64110843Y-135214936D02*
X64253700Y-135214936D01*
X64253700Y-135214936D02*
X64348938Y-135262555D01*
X64348938Y-135262555D02*
X64396557Y-135310174D01*
X64396557Y-135310174D02*
X64444176Y-135405412D01*
X64444176Y-135405412D02*
X64444176Y-135691126D01*
X64444176Y-135691126D02*
X64396557Y-135786364D01*
X64396557Y-135786364D02*
X64348938Y-135833984D01*
X64348938Y-135833984D02*
X64253700Y-135881603D01*
X64253700Y-135881603D02*
X64110843Y-135881603D01*
X64729891Y-134881603D02*
X65301319Y-134881603D01*
X65015605Y-135881603D02*
X65015605Y-134881603D01*
X66015605Y-135833984D02*
X65920367Y-135881603D01*
X65920367Y-135881603D02*
X65729891Y-135881603D01*
X65729891Y-135881603D02*
X65634653Y-135833984D01*
X65634653Y-135833984D02*
X65587034Y-135738745D01*
X65587034Y-135738745D02*
X65587034Y-135357793D01*
X65587034Y-135357793D02*
X65634653Y-135262555D01*
X65634653Y-135262555D02*
X65729891Y-135214936D01*
X65729891Y-135214936D02*
X65920367Y-135214936D01*
X65920367Y-135214936D02*
X66015605Y-135262555D01*
X66015605Y-135262555D02*
X66063224Y-135357793D01*
X66063224Y-135357793D02*
X66063224Y-135453031D01*
X66063224Y-135453031D02*
X65587034Y-135548269D01*
X66920367Y-135833984D02*
X66825129Y-135881603D01*
X66825129Y-135881603D02*
X66634653Y-135881603D01*
X66634653Y-135881603D02*
X66539415Y-135833984D01*
X66539415Y-135833984D02*
X66491796Y-135786364D01*
X66491796Y-135786364D02*
X66444177Y-135691126D01*
X66444177Y-135691126D02*
X66444177Y-135405412D01*
X66444177Y-135405412D02*
X66491796Y-135310174D01*
X66491796Y-135310174D02*
X66539415Y-135262555D01*
X66539415Y-135262555D02*
X66634653Y-135214936D01*
X66634653Y-135214936D02*
X66825129Y-135214936D01*
X66825129Y-135214936D02*
X66920367Y-135262555D01*
X67348939Y-135881603D02*
X67348939Y-134881603D01*
X67777510Y-135881603D02*
X67777510Y-135357793D01*
X67777510Y-135357793D02*
X67729891Y-135262555D01*
X67729891Y-135262555D02*
X67634653Y-135214936D01*
X67634653Y-135214936D02*
X67491796Y-135214936D01*
X67491796Y-135214936D02*
X67396558Y-135262555D01*
X67396558Y-135262555D02*
X67348939Y-135310174D01*
X68206082Y-135833984D02*
X68301320Y-135881603D01*
X68301320Y-135881603D02*
X68491796Y-135881603D01*
X68491796Y-135881603D02*
X68587034Y-135833984D01*
X68587034Y-135833984D02*
X68634653Y-135738745D01*
X68634653Y-135738745D02*
X68634653Y-135691126D01*
X68634653Y-135691126D02*
X68587034Y-135595888D01*
X68587034Y-135595888D02*
X68491796Y-135548269D01*
X68491796Y-135548269D02*
X68348939Y-135548269D01*
X68348939Y-135548269D02*
X68253701Y-135500650D01*
X68253701Y-135500650D02*
X68206082Y-135405412D01*
X68206082Y-135405412D02*
X68206082Y-135357793D01*
X68206082Y-135357793D02*
X68253701Y-135262555D01*
X68253701Y-135262555D02*
X68348939Y-135214936D01*
X68348939Y-135214936D02*
X68491796Y-135214936D01*
X68491796Y-135214936D02*
X68587034Y-135262555D01*
X70396558Y-135881603D02*
X70063225Y-135405412D01*
X69825130Y-135881603D02*
X69825130Y-134881603D01*
X69825130Y-134881603D02*
X70206082Y-134881603D01*
X70206082Y-134881603D02*
X70301320Y-134929222D01*
X70301320Y-134929222D02*
X70348939Y-134976841D01*
X70348939Y-134976841D02*
X70396558Y-135072079D01*
X70396558Y-135072079D02*
X70396558Y-135214936D01*
X70396558Y-135214936D02*
X70348939Y-135310174D01*
X70348939Y-135310174D02*
X70301320Y-135357793D01*
X70301320Y-135357793D02*
X70206082Y-135405412D01*
X70206082Y-135405412D02*
X69825130Y-135405412D01*
X71206082Y-135833984D02*
X71110844Y-135881603D01*
X71110844Y-135881603D02*
X70920368Y-135881603D01*
X70920368Y-135881603D02*
X70825130Y-135833984D01*
X70825130Y-135833984D02*
X70777511Y-135738745D01*
X70777511Y-135738745D02*
X70777511Y-135357793D01*
X70777511Y-135357793D02*
X70825130Y-135262555D01*
X70825130Y-135262555D02*
X70920368Y-135214936D01*
X70920368Y-135214936D02*
X71110844Y-135214936D01*
X71110844Y-135214936D02*
X71206082Y-135262555D01*
X71206082Y-135262555D02*
X71253701Y-135357793D01*
X71253701Y-135357793D02*
X71253701Y-135453031D01*
X71253701Y-135453031D02*
X70777511Y-135548269D01*
X71634654Y-135833984D02*
X71729892Y-135881603D01*
X71729892Y-135881603D02*
X71920368Y-135881603D01*
X71920368Y-135881603D02*
X72015606Y-135833984D01*
X72015606Y-135833984D02*
X72063225Y-135738745D01*
X72063225Y-135738745D02*
X72063225Y-135691126D01*
X72063225Y-135691126D02*
X72015606Y-135595888D01*
X72015606Y-135595888D02*
X71920368Y-135548269D01*
X71920368Y-135548269D02*
X71777511Y-135548269D01*
X71777511Y-135548269D02*
X71682273Y-135500650D01*
X71682273Y-135500650D02*
X71634654Y-135405412D01*
X71634654Y-135405412D02*
X71634654Y-135357793D01*
X71634654Y-135357793D02*
X71682273Y-135262555D01*
X71682273Y-135262555D02*
X71777511Y-135214936D01*
X71777511Y-135214936D02*
X71920368Y-135214936D01*
X71920368Y-135214936D02*
X72015606Y-135262555D01*
X72872749Y-135833984D02*
X72777511Y-135881603D01*
X72777511Y-135881603D02*
X72587035Y-135881603D01*
X72587035Y-135881603D02*
X72491797Y-135833984D01*
X72491797Y-135833984D02*
X72444178Y-135738745D01*
X72444178Y-135738745D02*
X72444178Y-135357793D01*
X72444178Y-135357793D02*
X72491797Y-135262555D01*
X72491797Y-135262555D02*
X72587035Y-135214936D01*
X72587035Y-135214936D02*
X72777511Y-135214936D01*
X72777511Y-135214936D02*
X72872749Y-135262555D01*
X72872749Y-135262555D02*
X72920368Y-135357793D01*
X72920368Y-135357793D02*
X72920368Y-135453031D01*
X72920368Y-135453031D02*
X72444178Y-135548269D01*
X73777511Y-135881603D02*
X73777511Y-135357793D01*
X73777511Y-135357793D02*
X73729892Y-135262555D01*
X73729892Y-135262555D02*
X73634654Y-135214936D01*
X73634654Y-135214936D02*
X73444178Y-135214936D01*
X73444178Y-135214936D02*
X73348940Y-135262555D01*
X73777511Y-135833984D02*
X73682273Y-135881603D01*
X73682273Y-135881603D02*
X73444178Y-135881603D01*
X73444178Y-135881603D02*
X73348940Y-135833984D01*
X73348940Y-135833984D02*
X73301321Y-135738745D01*
X73301321Y-135738745D02*
X73301321Y-135643507D01*
X73301321Y-135643507D02*
X73348940Y-135548269D01*
X73348940Y-135548269D02*
X73444178Y-135500650D01*
X73444178Y-135500650D02*
X73682273Y-135500650D01*
X73682273Y-135500650D02*
X73777511Y-135453031D01*
X74253702Y-135881603D02*
X74253702Y-135214936D01*
X74253702Y-135405412D02*
X74301321Y-135310174D01*
X74301321Y-135310174D02*
X74348940Y-135262555D01*
X74348940Y-135262555D02*
X74444178Y-135214936D01*
X74444178Y-135214936D02*
X74539416Y-135214936D01*
X75301321Y-135833984D02*
X75206083Y-135881603D01*
X75206083Y-135881603D02*
X75015607Y-135881603D01*
X75015607Y-135881603D02*
X74920369Y-135833984D01*
X74920369Y-135833984D02*
X74872750Y-135786364D01*
X74872750Y-135786364D02*
X74825131Y-135691126D01*
X74825131Y-135691126D02*
X74825131Y-135405412D01*
X74825131Y-135405412D02*
X74872750Y-135310174D01*
X74872750Y-135310174D02*
X74920369Y-135262555D01*
X74920369Y-135262555D02*
X75015607Y-135214936D01*
X75015607Y-135214936D02*
X75206083Y-135214936D01*
X75206083Y-135214936D02*
X75301321Y-135262555D01*
X75729893Y-135881603D02*
X75729893Y-134881603D01*
X76158464Y-135881603D02*
X76158464Y-135357793D01*
X76158464Y-135357793D02*
X76110845Y-135262555D01*
X76110845Y-135262555D02*
X76015607Y-135214936D01*
X76015607Y-135214936D02*
X75872750Y-135214936D01*
X75872750Y-135214936D02*
X75777512Y-135262555D01*
X75777512Y-135262555D02*
X75729893Y-135310174D01*
X77920369Y-134929222D02*
X77825131Y-134881603D01*
X77825131Y-134881603D02*
X77682274Y-134881603D01*
X77682274Y-134881603D02*
X77539417Y-134929222D01*
X77539417Y-134929222D02*
X77444179Y-135024460D01*
X77444179Y-135024460D02*
X77396560Y-135119698D01*
X77396560Y-135119698D02*
X77348941Y-135310174D01*
X77348941Y-135310174D02*
X77348941Y-135453031D01*
X77348941Y-135453031D02*
X77396560Y-135643507D01*
X77396560Y-135643507D02*
X77444179Y-135738745D01*
X77444179Y-135738745D02*
X77539417Y-135833984D01*
X77539417Y-135833984D02*
X77682274Y-135881603D01*
X77682274Y-135881603D02*
X77777512Y-135881603D01*
X77777512Y-135881603D02*
X77920369Y-135833984D01*
X77920369Y-135833984D02*
X77967988Y-135786364D01*
X77967988Y-135786364D02*
X77967988Y-135453031D01*
X77967988Y-135453031D02*
X77777512Y-135453031D01*
X78396560Y-135881603D02*
X78396560Y-135214936D01*
X78396560Y-135405412D02*
X78444179Y-135310174D01*
X78444179Y-135310174D02*
X78491798Y-135262555D01*
X78491798Y-135262555D02*
X78587036Y-135214936D01*
X78587036Y-135214936D02*
X78682274Y-135214936D01*
X79158465Y-135881603D02*
X79063227Y-135833984D01*
X79063227Y-135833984D02*
X79015608Y-135786364D01*
X79015608Y-135786364D02*
X78967989Y-135691126D01*
X78967989Y-135691126D02*
X78967989Y-135405412D01*
X78967989Y-135405412D02*
X79015608Y-135310174D01*
X79015608Y-135310174D02*
X79063227Y-135262555D01*
X79063227Y-135262555D02*
X79158465Y-135214936D01*
X79158465Y-135214936D02*
X79301322Y-135214936D01*
X79301322Y-135214936D02*
X79396560Y-135262555D01*
X79396560Y-135262555D02*
X79444179Y-135310174D01*
X79444179Y-135310174D02*
X79491798Y-135405412D01*
X79491798Y-135405412D02*
X79491798Y-135691126D01*
X79491798Y-135691126D02*
X79444179Y-135786364D01*
X79444179Y-135786364D02*
X79396560Y-135833984D01*
X79396560Y-135833984D02*
X79301322Y-135881603D01*
X79301322Y-135881603D02*
X79158465Y-135881603D01*
X80348941Y-135214936D02*
X80348941Y-135881603D01*
X79920370Y-135214936D02*
X79920370Y-135738745D01*
X79920370Y-135738745D02*
X79967989Y-135833984D01*
X79967989Y-135833984D02*
X80063227Y-135881603D01*
X80063227Y-135881603D02*
X80206084Y-135881603D01*
X80206084Y-135881603D02*
X80301322Y-135833984D01*
X80301322Y-135833984D02*
X80348941Y-135786364D01*
X80825132Y-135214936D02*
X80825132Y-136214936D01*
X80825132Y-135262555D02*
X80920370Y-135214936D01*
X80920370Y-135214936D02*
X81110846Y-135214936D01*
X81110846Y-135214936D02*
X81206084Y-135262555D01*
X81206084Y-135262555D02*
X81253703Y-135310174D01*
X81253703Y-135310174D02*
X81301322Y-135405412D01*
X81301322Y-135405412D02*
X81301322Y-135691126D01*
X81301322Y-135691126D02*
X81253703Y-135786364D01*
X81253703Y-135786364D02*
X81206084Y-135833984D01*
X81206084Y-135833984D02*
X81110846Y-135881603D01*
X81110846Y-135881603D02*
X80920370Y-135881603D01*
X80920370Y-135881603D02*
X80825132Y-135833984D01*
X65896558Y-136967793D02*
X66039415Y-137015412D01*
X66039415Y-137015412D02*
X66087034Y-137063031D01*
X66087034Y-137063031D02*
X66134653Y-137158269D01*
X66134653Y-137158269D02*
X66134653Y-137301126D01*
X66134653Y-137301126D02*
X66087034Y-137396364D01*
X66087034Y-137396364D02*
X66039415Y-137443984D01*
X66039415Y-137443984D02*
X65944177Y-137491603D01*
X65944177Y-137491603D02*
X65563225Y-137491603D01*
X65563225Y-137491603D02*
X65563225Y-136491603D01*
X65563225Y-136491603D02*
X65896558Y-136491603D01*
X65896558Y-136491603D02*
X65991796Y-136539222D01*
X65991796Y-136539222D02*
X66039415Y-136586841D01*
X66039415Y-136586841D02*
X66087034Y-136682079D01*
X66087034Y-136682079D02*
X66087034Y-136777317D01*
X66087034Y-136777317D02*
X66039415Y-136872555D01*
X66039415Y-136872555D02*
X65991796Y-136920174D01*
X65991796Y-136920174D02*
X65896558Y-136967793D01*
X65896558Y-136967793D02*
X65563225Y-136967793D01*
X66467987Y-136824936D02*
X66706082Y-137491603D01*
X66944177Y-136824936D02*
X66706082Y-137491603D01*
X66706082Y-137491603D02*
X66610844Y-137729698D01*
X66610844Y-137729698D02*
X66563225Y-137777317D01*
X66563225Y-137777317D02*
X66467987Y-137824936D01*
X68563225Y-137491603D02*
X68087035Y-137491603D01*
X68087035Y-137491603D02*
X68087035Y-136491603D01*
X69325130Y-136824936D02*
X69325130Y-137491603D01*
X68896559Y-136824936D02*
X68896559Y-137348745D01*
X68896559Y-137348745D02*
X68944178Y-137443984D01*
X68944178Y-137443984D02*
X69039416Y-137491603D01*
X69039416Y-137491603D02*
X69182273Y-137491603D01*
X69182273Y-137491603D02*
X69277511Y-137443984D01*
X69277511Y-137443984D02*
X69325130Y-137396364D01*
X69801321Y-137491603D02*
X69801321Y-136491603D01*
X69896559Y-137110650D02*
X70182273Y-137491603D01*
X70182273Y-136824936D02*
X69801321Y-137205888D01*
X70991797Y-137443984D02*
X70896559Y-137491603D01*
X70896559Y-137491603D02*
X70706083Y-137491603D01*
X70706083Y-137491603D02*
X70610845Y-137443984D01*
X70610845Y-137443984D02*
X70563226Y-137348745D01*
X70563226Y-137348745D02*
X70563226Y-136967793D01*
X70563226Y-136967793D02*
X70610845Y-136872555D01*
X70610845Y-136872555D02*
X70706083Y-136824936D01*
X70706083Y-136824936D02*
X70896559Y-136824936D01*
X70896559Y-136824936D02*
X70991797Y-136872555D01*
X70991797Y-136872555D02*
X71039416Y-136967793D01*
X71039416Y-136967793D02*
X71039416Y-137063031D01*
X71039416Y-137063031D02*
X70563226Y-137158269D01*
X72801321Y-137396364D02*
X72753702Y-137443984D01*
X72753702Y-137443984D02*
X72610845Y-137491603D01*
X72610845Y-137491603D02*
X72515607Y-137491603D01*
X72515607Y-137491603D02*
X72372750Y-137443984D01*
X72372750Y-137443984D02*
X72277512Y-137348745D01*
X72277512Y-137348745D02*
X72229893Y-137253507D01*
X72229893Y-137253507D02*
X72182274Y-137063031D01*
X72182274Y-137063031D02*
X72182274Y-136920174D01*
X72182274Y-136920174D02*
X72229893Y-136729698D01*
X72229893Y-136729698D02*
X72277512Y-136634460D01*
X72277512Y-136634460D02*
X72372750Y-136539222D01*
X72372750Y-136539222D02*
X72515607Y-136491603D01*
X72515607Y-136491603D02*
X72610845Y-136491603D01*
X72610845Y-136491603D02*
X72753702Y-136539222D01*
X72753702Y-136539222D02*
X72801321Y-136586841D01*
X73610845Y-137443984D02*
X73515607Y-137491603D01*
X73515607Y-137491603D02*
X73325131Y-137491603D01*
X73325131Y-137491603D02*
X73229893Y-137443984D01*
X73229893Y-137443984D02*
X73182274Y-137348745D01*
X73182274Y-137348745D02*
X73182274Y-136967793D01*
X73182274Y-136967793D02*
X73229893Y-136872555D01*
X73229893Y-136872555D02*
X73325131Y-136824936D01*
X73325131Y-136824936D02*
X73515607Y-136824936D01*
X73515607Y-136824936D02*
X73610845Y-136872555D01*
X73610845Y-136872555D02*
X73658464Y-136967793D01*
X73658464Y-136967793D02*
X73658464Y-137063031D01*
X73658464Y-137063031D02*
X73182274Y-137158269D01*
X74087036Y-136824936D02*
X74087036Y-137824936D01*
X74087036Y-136872555D02*
X74182274Y-136824936D01*
X74182274Y-136824936D02*
X74372750Y-136824936D01*
X74372750Y-136824936D02*
X74467988Y-136872555D01*
X74467988Y-136872555D02*
X74515607Y-136920174D01*
X74515607Y-136920174D02*
X74563226Y-137015412D01*
X74563226Y-137015412D02*
X74563226Y-137301126D01*
X74563226Y-137301126D02*
X74515607Y-137396364D01*
X74515607Y-137396364D02*
X74467988Y-137443984D01*
X74467988Y-137443984D02*
X74372750Y-137491603D01*
X74372750Y-137491603D02*
X74182274Y-137491603D01*
X74182274Y-137491603D02*
X74087036Y-137443984D01*
X74896560Y-136824936D02*
X75420369Y-136824936D01*
X75420369Y-136824936D02*
X74896560Y-137491603D01*
X74896560Y-137491603D02*
X75420369Y-137491603D01*
X76229893Y-137491603D02*
X76229893Y-136967793D01*
X76229893Y-136967793D02*
X76182274Y-136872555D01*
X76182274Y-136872555D02*
X76087036Y-136824936D01*
X76087036Y-136824936D02*
X75896560Y-136824936D01*
X75896560Y-136824936D02*
X75801322Y-136872555D01*
X76229893Y-137443984D02*
X76134655Y-137491603D01*
X76134655Y-137491603D02*
X75896560Y-137491603D01*
X75896560Y-137491603D02*
X75801322Y-137443984D01*
X75801322Y-137443984D02*
X75753703Y-137348745D01*
X75753703Y-137348745D02*
X75753703Y-137253507D01*
X75753703Y-137253507D02*
X75801322Y-137158269D01*
X75801322Y-137158269D02*
X75896560Y-137110650D01*
X75896560Y-137110650D02*
X76134655Y-137110650D01*
X76134655Y-137110650D02*
X76229893Y-137063031D01*
X44781435Y-124200450D02*
X44305245Y-124200450D01*
X44305245Y-124200450D02*
X44305245Y-123200450D01*
X45114769Y-123676640D02*
X45448102Y-123676640D01*
X45590959Y-124200450D02*
X45114769Y-124200450D01*
X45114769Y-124200450D02*
X45114769Y-123200450D01*
X45114769Y-123200450D02*
X45590959Y-123200450D01*
X46019531Y-124200450D02*
X46019531Y-123200450D01*
X46019531Y-123200450D02*
X46257626Y-123200450D01*
X46257626Y-123200450D02*
X46400483Y-123248069D01*
X46400483Y-123248069D02*
X46495721Y-123343307D01*
X46495721Y-123343307D02*
X46543340Y-123438545D01*
X46543340Y-123438545D02*
X46590959Y-123629021D01*
X46590959Y-123629021D02*
X46590959Y-123771878D01*
X46590959Y-123771878D02*
X46543340Y-123962354D01*
X46543340Y-123962354D02*
X46495721Y-124057592D01*
X46495721Y-124057592D02*
X46400483Y-124152831D01*
X46400483Y-124152831D02*
X46257626Y-124200450D01*
X46257626Y-124200450D02*
X46019531Y-124200450D01*
X48352864Y-124105211D02*
X48305245Y-124152831D01*
X48305245Y-124152831D02*
X48162388Y-124200450D01*
X48162388Y-124200450D02*
X48067150Y-124200450D01*
X48067150Y-124200450D02*
X47924293Y-124152831D01*
X47924293Y-124152831D02*
X47829055Y-124057592D01*
X47829055Y-124057592D02*
X47781436Y-123962354D01*
X47781436Y-123962354D02*
X47733817Y-123771878D01*
X47733817Y-123771878D02*
X47733817Y-123629021D01*
X47733817Y-123629021D02*
X47781436Y-123438545D01*
X47781436Y-123438545D02*
X47829055Y-123343307D01*
X47829055Y-123343307D02*
X47924293Y-123248069D01*
X47924293Y-123248069D02*
X48067150Y-123200450D01*
X48067150Y-123200450D02*
X48162388Y-123200450D01*
X48162388Y-123200450D02*
X48305245Y-123248069D01*
X48305245Y-123248069D02*
X48352864Y-123295688D01*
X48924293Y-124200450D02*
X48829055Y-124152831D01*
X48829055Y-124152831D02*
X48781436Y-124105211D01*
X48781436Y-124105211D02*
X48733817Y-124009973D01*
X48733817Y-124009973D02*
X48733817Y-123724259D01*
X48733817Y-123724259D02*
X48781436Y-123629021D01*
X48781436Y-123629021D02*
X48829055Y-123581402D01*
X48829055Y-123581402D02*
X48924293Y-123533783D01*
X48924293Y-123533783D02*
X49067150Y-123533783D01*
X49067150Y-123533783D02*
X49162388Y-123581402D01*
X49162388Y-123581402D02*
X49210007Y-123629021D01*
X49210007Y-123629021D02*
X49257626Y-123724259D01*
X49257626Y-123724259D02*
X49257626Y-124009973D01*
X49257626Y-124009973D02*
X49210007Y-124105211D01*
X49210007Y-124105211D02*
X49162388Y-124152831D01*
X49162388Y-124152831D02*
X49067150Y-124200450D01*
X49067150Y-124200450D02*
X48924293Y-124200450D01*
X49686198Y-123533783D02*
X49686198Y-124200450D01*
X49686198Y-123629021D02*
X49733817Y-123581402D01*
X49733817Y-123581402D02*
X49829055Y-123533783D01*
X49829055Y-123533783D02*
X49971912Y-123533783D01*
X49971912Y-123533783D02*
X50067150Y-123581402D01*
X50067150Y-123581402D02*
X50114769Y-123676640D01*
X50114769Y-123676640D02*
X50114769Y-124200450D01*
X50590960Y-123533783D02*
X50590960Y-124200450D01*
X50590960Y-123629021D02*
X50638579Y-123581402D01*
X50638579Y-123581402D02*
X50733817Y-123533783D01*
X50733817Y-123533783D02*
X50876674Y-123533783D01*
X50876674Y-123533783D02*
X50971912Y-123581402D01*
X50971912Y-123581402D02*
X51019531Y-123676640D01*
X51019531Y-123676640D02*
X51019531Y-124200450D01*
X51876674Y-124152831D02*
X51781436Y-124200450D01*
X51781436Y-124200450D02*
X51590960Y-124200450D01*
X51590960Y-124200450D02*
X51495722Y-124152831D01*
X51495722Y-124152831D02*
X51448103Y-124057592D01*
X51448103Y-124057592D02*
X51448103Y-123676640D01*
X51448103Y-123676640D02*
X51495722Y-123581402D01*
X51495722Y-123581402D02*
X51590960Y-123533783D01*
X51590960Y-123533783D02*
X51781436Y-123533783D01*
X51781436Y-123533783D02*
X51876674Y-123581402D01*
X51876674Y-123581402D02*
X51924293Y-123676640D01*
X51924293Y-123676640D02*
X51924293Y-123771878D01*
X51924293Y-123771878D02*
X51448103Y-123867116D01*
X52781436Y-124152831D02*
X52686198Y-124200450D01*
X52686198Y-124200450D02*
X52495722Y-124200450D01*
X52495722Y-124200450D02*
X52400484Y-124152831D01*
X52400484Y-124152831D02*
X52352865Y-124105211D01*
X52352865Y-124105211D02*
X52305246Y-124009973D01*
X52305246Y-124009973D02*
X52305246Y-123724259D01*
X52305246Y-123724259D02*
X52352865Y-123629021D01*
X52352865Y-123629021D02*
X52400484Y-123581402D01*
X52400484Y-123581402D02*
X52495722Y-123533783D01*
X52495722Y-123533783D02*
X52686198Y-123533783D01*
X52686198Y-123533783D02*
X52781436Y-123581402D01*
X53067151Y-123533783D02*
X53448103Y-123533783D01*
X53210008Y-123200450D02*
X53210008Y-124057592D01*
X53210008Y-124057592D02*
X53257627Y-124152831D01*
X53257627Y-124152831D02*
X53352865Y-124200450D01*
X53352865Y-124200450D02*
X53448103Y-124200450D01*
X53924294Y-124200450D02*
X53829056Y-124152831D01*
X53829056Y-124152831D02*
X53781437Y-124105211D01*
X53781437Y-124105211D02*
X53733818Y-124009973D01*
X53733818Y-124009973D02*
X53733818Y-123724259D01*
X53733818Y-123724259D02*
X53781437Y-123629021D01*
X53781437Y-123629021D02*
X53829056Y-123581402D01*
X53829056Y-123581402D02*
X53924294Y-123533783D01*
X53924294Y-123533783D02*
X54067151Y-123533783D01*
X54067151Y-123533783D02*
X54162389Y-123581402D01*
X54162389Y-123581402D02*
X54210008Y-123629021D01*
X54210008Y-123629021D02*
X54257627Y-123724259D01*
X54257627Y-123724259D02*
X54257627Y-124009973D01*
X54257627Y-124009973D02*
X54210008Y-124105211D01*
X54210008Y-124105211D02*
X54162389Y-124152831D01*
X54162389Y-124152831D02*
X54067151Y-124200450D01*
X54067151Y-124200450D02*
X53924294Y-124200450D01*
X54686199Y-124200450D02*
X54686199Y-123533783D01*
X54686199Y-123724259D02*
X54733818Y-123629021D01*
X54733818Y-123629021D02*
X54781437Y-123581402D01*
X54781437Y-123581402D02*
X54876675Y-123533783D01*
X54876675Y-123533783D02*
X54971913Y-123533783D01*
D13*
X76421669Y-44201332D02*
X76421669Y-43391809D01*
X76421669Y-43391809D02*
X76374050Y-43296571D01*
X76374050Y-43296571D02*
X76326431Y-43248952D01*
X76326431Y-43248952D02*
X76231193Y-43201332D01*
X76231193Y-43201332D02*
X76040717Y-43201332D01*
X76040717Y-43201332D02*
X75945479Y-43248952D01*
X75945479Y-43248952D02*
X75897860Y-43296571D01*
X75897860Y-43296571D02*
X75850241Y-43391809D01*
X75850241Y-43391809D02*
X75850241Y-44201332D01*
X75421669Y-43248952D02*
X75278812Y-43201332D01*
X75278812Y-43201332D02*
X75040717Y-43201332D01*
X75040717Y-43201332D02*
X74945479Y-43248952D01*
X74945479Y-43248952D02*
X74897860Y-43296571D01*
X74897860Y-43296571D02*
X74850241Y-43391809D01*
X74850241Y-43391809D02*
X74850241Y-43487047D01*
X74850241Y-43487047D02*
X74897860Y-43582285D01*
X74897860Y-43582285D02*
X74945479Y-43629904D01*
X74945479Y-43629904D02*
X75040717Y-43677523D01*
X75040717Y-43677523D02*
X75231193Y-43725142D01*
X75231193Y-43725142D02*
X75326431Y-43772761D01*
X75326431Y-43772761D02*
X75374050Y-43820380D01*
X75374050Y-43820380D02*
X75421669Y-43915618D01*
X75421669Y-43915618D02*
X75421669Y-44010856D01*
X75421669Y-44010856D02*
X75374050Y-44106094D01*
X75374050Y-44106094D02*
X75326431Y-44153713D01*
X75326431Y-44153713D02*
X75231193Y-44201332D01*
X75231193Y-44201332D02*
X74993098Y-44201332D01*
X74993098Y-44201332D02*
X74850241Y-44153713D01*
X74088336Y-43725142D02*
X73945479Y-43677523D01*
X73945479Y-43677523D02*
X73897860Y-43629904D01*
X73897860Y-43629904D02*
X73850241Y-43534666D01*
X73850241Y-43534666D02*
X73850241Y-43391809D01*
X73850241Y-43391809D02*
X73897860Y-43296571D01*
X73897860Y-43296571D02*
X73945479Y-43248952D01*
X73945479Y-43248952D02*
X74040717Y-43201332D01*
X74040717Y-43201332D02*
X74421669Y-43201332D01*
X74421669Y-43201332D02*
X74421669Y-44201332D01*
X74421669Y-44201332D02*
X74088336Y-44201332D01*
X74088336Y-44201332D02*
X73993098Y-44153713D01*
X73993098Y-44153713D02*
X73945479Y-44106094D01*
X73945479Y-44106094D02*
X73897860Y-44010856D01*
X73897860Y-44010856D02*
X73897860Y-43915618D01*
X73897860Y-43915618D02*
X73945479Y-43820380D01*
X73945479Y-43820380D02*
X73993098Y-43772761D01*
X73993098Y-43772761D02*
X74088336Y-43725142D01*
X74088336Y-43725142D02*
X74421669Y-43725142D01*
X43640476Y-95474819D02*
X43640476Y-94474819D01*
X43640476Y-94474819D02*
X43973809Y-95189104D01*
X43973809Y-95189104D02*
X44307142Y-94474819D01*
X44307142Y-94474819D02*
X44307142Y-95474819D01*
X44735714Y-94570057D02*
X44783333Y-94522438D01*
X44783333Y-94522438D02*
X44878571Y-94474819D01*
X44878571Y-94474819D02*
X45116666Y-94474819D01*
X45116666Y-94474819D02*
X45211904Y-94522438D01*
X45211904Y-94522438D02*
X45259523Y-94570057D01*
X45259523Y-94570057D02*
X45307142Y-94665295D01*
X45307142Y-94665295D02*
X45307142Y-94760533D01*
X45307142Y-94760533D02*
X45259523Y-94903390D01*
X45259523Y-94903390D02*
X44688095Y-95474819D01*
X44688095Y-95474819D02*
X45307142Y-95474819D01*
X53244761Y-83735057D02*
X53149523Y-83687438D01*
X53149523Y-83687438D02*
X53054285Y-83592200D01*
X53054285Y-83592200D02*
X52911428Y-83449342D01*
X52911428Y-83449342D02*
X52816190Y-83401723D01*
X52816190Y-83401723D02*
X52720952Y-83401723D01*
X52768571Y-83639819D02*
X52673333Y-83592200D01*
X52673333Y-83592200D02*
X52578095Y-83496961D01*
X52578095Y-83496961D02*
X52530476Y-83306485D01*
X52530476Y-83306485D02*
X52530476Y-82973152D01*
X52530476Y-82973152D02*
X52578095Y-82782676D01*
X52578095Y-82782676D02*
X52673333Y-82687438D01*
X52673333Y-82687438D02*
X52768571Y-82639819D01*
X52768571Y-82639819D02*
X52959047Y-82639819D01*
X52959047Y-82639819D02*
X53054285Y-82687438D01*
X53054285Y-82687438D02*
X53149523Y-82782676D01*
X53149523Y-82782676D02*
X53197142Y-82973152D01*
X53197142Y-82973152D02*
X53197142Y-83306485D01*
X53197142Y-83306485D02*
X53149523Y-83496961D01*
X53149523Y-83496961D02*
X53054285Y-83592200D01*
X53054285Y-83592200D02*
X52959047Y-83639819D01*
X52959047Y-83639819D02*
X52768571Y-83639819D01*
X54149523Y-83639819D02*
X53578095Y-83639819D01*
X53863809Y-83639819D02*
X53863809Y-82639819D01*
X53863809Y-82639819D02*
X53768571Y-82782676D01*
X53768571Y-82782676D02*
X53673333Y-82877914D01*
X53673333Y-82877914D02*
X53578095Y-82925533D01*
X52609761Y-106980057D02*
X52514523Y-106932438D01*
X52514523Y-106932438D02*
X52419285Y-106837200D01*
X52419285Y-106837200D02*
X52276428Y-106694342D01*
X52276428Y-106694342D02*
X52181190Y-106646723D01*
X52181190Y-106646723D02*
X52085952Y-106646723D01*
X52133571Y-106884819D02*
X52038333Y-106837200D01*
X52038333Y-106837200D02*
X51943095Y-106741961D01*
X51943095Y-106741961D02*
X51895476Y-106551485D01*
X51895476Y-106551485D02*
X51895476Y-106218152D01*
X51895476Y-106218152D02*
X51943095Y-106027676D01*
X51943095Y-106027676D02*
X52038333Y-105932438D01*
X52038333Y-105932438D02*
X52133571Y-105884819D01*
X52133571Y-105884819D02*
X52324047Y-105884819D01*
X52324047Y-105884819D02*
X52419285Y-105932438D01*
X52419285Y-105932438D02*
X52514523Y-106027676D01*
X52514523Y-106027676D02*
X52562142Y-106218152D01*
X52562142Y-106218152D02*
X52562142Y-106551485D01*
X52562142Y-106551485D02*
X52514523Y-106741961D01*
X52514523Y-106741961D02*
X52419285Y-106837200D01*
X52419285Y-106837200D02*
X52324047Y-106884819D01*
X52324047Y-106884819D02*
X52133571Y-106884819D01*
X52895476Y-105884819D02*
X53514523Y-105884819D01*
X53514523Y-105884819D02*
X53181190Y-106265771D01*
X53181190Y-106265771D02*
X53324047Y-106265771D01*
X53324047Y-106265771D02*
X53419285Y-106313390D01*
X53419285Y-106313390D02*
X53466904Y-106361009D01*
X53466904Y-106361009D02*
X53514523Y-106456247D01*
X53514523Y-106456247D02*
X53514523Y-106694342D01*
X53514523Y-106694342D02*
X53466904Y-106789580D01*
X53466904Y-106789580D02*
X53419285Y-106837200D01*
X53419285Y-106837200D02*
X53324047Y-106884819D01*
X53324047Y-106884819D02*
X53038333Y-106884819D01*
X53038333Y-106884819D02*
X52943095Y-106837200D01*
X52943095Y-106837200D02*
X52895476Y-106789580D01*
X43665476Y-105654819D02*
X43665476Y-104654819D01*
X43665476Y-104654819D02*
X43998809Y-105369104D01*
X43998809Y-105369104D02*
X44332142Y-104654819D01*
X44332142Y-104654819D02*
X44332142Y-105654819D01*
X44713095Y-104654819D02*
X45332142Y-104654819D01*
X45332142Y-104654819D02*
X44998809Y-105035771D01*
X44998809Y-105035771D02*
X45141666Y-105035771D01*
X45141666Y-105035771D02*
X45236904Y-105083390D01*
X45236904Y-105083390D02*
X45284523Y-105131009D01*
X45284523Y-105131009D02*
X45332142Y-105226247D01*
X45332142Y-105226247D02*
X45332142Y-105464342D01*
X45332142Y-105464342D02*
X45284523Y-105559580D01*
X45284523Y-105559580D02*
X45236904Y-105607200D01*
X45236904Y-105607200D02*
X45141666Y-105654819D01*
X45141666Y-105654819D02*
X44855952Y-105654819D01*
X44855952Y-105654819D02*
X44760714Y-105607200D01*
X44760714Y-105607200D02*
X44713095Y-105559580D01*
X43640476Y-82774819D02*
X43640476Y-81774819D01*
X43640476Y-81774819D02*
X43973809Y-82489104D01*
X43973809Y-82489104D02*
X44307142Y-81774819D01*
X44307142Y-81774819D02*
X44307142Y-82774819D01*
X45307142Y-82774819D02*
X44735714Y-82774819D01*
X45021428Y-82774819D02*
X45021428Y-81774819D01*
X45021428Y-81774819D02*
X44926190Y-81917676D01*
X44926190Y-81917676D02*
X44830952Y-82012914D01*
X44830952Y-82012914D02*
X44735714Y-82060533D01*
X90416333Y-110436819D02*
X89940143Y-110436819D01*
X89940143Y-110436819D02*
X89940143Y-109436819D01*
X90749667Y-110436819D02*
X90749667Y-109436819D01*
X90749667Y-109436819D02*
X91083000Y-110151104D01*
X91083000Y-110151104D02*
X91416333Y-109436819D01*
X91416333Y-109436819D02*
X91416333Y-110436819D01*
X91797286Y-109436819D02*
X92463952Y-109436819D01*
X92463952Y-109436819D02*
X92035381Y-110436819D01*
X92987762Y-109865390D02*
X92892524Y-109817771D01*
X92892524Y-109817771D02*
X92844905Y-109770152D01*
X92844905Y-109770152D02*
X92797286Y-109674914D01*
X92797286Y-109674914D02*
X92797286Y-109627295D01*
X92797286Y-109627295D02*
X92844905Y-109532057D01*
X92844905Y-109532057D02*
X92892524Y-109484438D01*
X92892524Y-109484438D02*
X92987762Y-109436819D01*
X92987762Y-109436819D02*
X93178238Y-109436819D01*
X93178238Y-109436819D02*
X93273476Y-109484438D01*
X93273476Y-109484438D02*
X93321095Y-109532057D01*
X93321095Y-109532057D02*
X93368714Y-109627295D01*
X93368714Y-109627295D02*
X93368714Y-109674914D01*
X93368714Y-109674914D02*
X93321095Y-109770152D01*
X93321095Y-109770152D02*
X93273476Y-109817771D01*
X93273476Y-109817771D02*
X93178238Y-109865390D01*
X93178238Y-109865390D02*
X92987762Y-109865390D01*
X92987762Y-109865390D02*
X92892524Y-109913009D01*
X92892524Y-109913009D02*
X92844905Y-109960628D01*
X92844905Y-109960628D02*
X92797286Y-110055866D01*
X92797286Y-110055866D02*
X92797286Y-110246342D01*
X92797286Y-110246342D02*
X92844905Y-110341580D01*
X92844905Y-110341580D02*
X92892524Y-110389200D01*
X92892524Y-110389200D02*
X92987762Y-110436819D01*
X92987762Y-110436819D02*
X93178238Y-110436819D01*
X93178238Y-110436819D02*
X93273476Y-110389200D01*
X93273476Y-110389200D02*
X93321095Y-110341580D01*
X93321095Y-110341580D02*
X93368714Y-110246342D01*
X93368714Y-110246342D02*
X93368714Y-110055866D01*
X93368714Y-110055866D02*
X93321095Y-109960628D01*
X93321095Y-109960628D02*
X93273476Y-109913009D01*
X93273476Y-109913009D02*
X93178238Y-109865390D01*
X93987762Y-109436819D02*
X94083000Y-109436819D01*
X94083000Y-109436819D02*
X94178238Y-109484438D01*
X94178238Y-109484438D02*
X94225857Y-109532057D01*
X94225857Y-109532057D02*
X94273476Y-109627295D01*
X94273476Y-109627295D02*
X94321095Y-109817771D01*
X94321095Y-109817771D02*
X94321095Y-110055866D01*
X94321095Y-110055866D02*
X94273476Y-110246342D01*
X94273476Y-110246342D02*
X94225857Y-110341580D01*
X94225857Y-110341580D02*
X94178238Y-110389200D01*
X94178238Y-110389200D02*
X94083000Y-110436819D01*
X94083000Y-110436819D02*
X93987762Y-110436819D01*
X93987762Y-110436819D02*
X93892524Y-110389200D01*
X93892524Y-110389200D02*
X93844905Y-110341580D01*
X93844905Y-110341580D02*
X93797286Y-110246342D01*
X93797286Y-110246342D02*
X93749667Y-110055866D01*
X93749667Y-110055866D02*
X93749667Y-109817771D01*
X93749667Y-109817771D02*
X93797286Y-109627295D01*
X93797286Y-109627295D02*
X93844905Y-109532057D01*
X93844905Y-109532057D02*
X93892524Y-109484438D01*
X93892524Y-109484438D02*
X93987762Y-109436819D01*
X95225857Y-109436819D02*
X94749667Y-109436819D01*
X94749667Y-109436819D02*
X94702048Y-109913009D01*
X94702048Y-109913009D02*
X94749667Y-109865390D01*
X94749667Y-109865390D02*
X94844905Y-109817771D01*
X94844905Y-109817771D02*
X95083000Y-109817771D01*
X95083000Y-109817771D02*
X95178238Y-109865390D01*
X95178238Y-109865390D02*
X95225857Y-109913009D01*
X95225857Y-109913009D02*
X95273476Y-110008247D01*
X95273476Y-110008247D02*
X95273476Y-110246342D01*
X95273476Y-110246342D02*
X95225857Y-110341580D01*
X95225857Y-110341580D02*
X95178238Y-110389200D01*
X95178238Y-110389200D02*
X95083000Y-110436819D01*
X95083000Y-110436819D02*
X94844905Y-110436819D01*
X94844905Y-110436819D02*
X94749667Y-110389200D01*
X94749667Y-110389200D02*
X94702048Y-110341580D01*
X52609761Y-95800057D02*
X52514523Y-95752438D01*
X52514523Y-95752438D02*
X52419285Y-95657200D01*
X52419285Y-95657200D02*
X52276428Y-95514342D01*
X52276428Y-95514342D02*
X52181190Y-95466723D01*
X52181190Y-95466723D02*
X52085952Y-95466723D01*
X52133571Y-95704819D02*
X52038333Y-95657200D01*
X52038333Y-95657200D02*
X51943095Y-95561961D01*
X51943095Y-95561961D02*
X51895476Y-95371485D01*
X51895476Y-95371485D02*
X51895476Y-95038152D01*
X51895476Y-95038152D02*
X51943095Y-94847676D01*
X51943095Y-94847676D02*
X52038333Y-94752438D01*
X52038333Y-94752438D02*
X52133571Y-94704819D01*
X52133571Y-94704819D02*
X52324047Y-94704819D01*
X52324047Y-94704819D02*
X52419285Y-94752438D01*
X52419285Y-94752438D02*
X52514523Y-94847676D01*
X52514523Y-94847676D02*
X52562142Y-95038152D01*
X52562142Y-95038152D02*
X52562142Y-95371485D01*
X52562142Y-95371485D02*
X52514523Y-95561961D01*
X52514523Y-95561961D02*
X52419285Y-95657200D01*
X52419285Y-95657200D02*
X52324047Y-95704819D01*
X52324047Y-95704819D02*
X52133571Y-95704819D01*
X52943095Y-94800057D02*
X52990714Y-94752438D01*
X52990714Y-94752438D02*
X53085952Y-94704819D01*
X53085952Y-94704819D02*
X53324047Y-94704819D01*
X53324047Y-94704819D02*
X53419285Y-94752438D01*
X53419285Y-94752438D02*
X53466904Y-94800057D01*
X53466904Y-94800057D02*
X53514523Y-94895295D01*
X53514523Y-94895295D02*
X53514523Y-94990533D01*
X53514523Y-94990533D02*
X53466904Y-95133390D01*
X53466904Y-95133390D02*
X52895476Y-95704819D01*
X52895476Y-95704819D02*
X53514523Y-95704819D01*
D14*
%TO.C,A1*%
X79099765Y-47596152D02*
X71219765Y-47596152D01*
%TO.C,C1*%
X73620000Y-116500000D02*
X73620000Y-116815000D01*
X73620000Y-116500000D02*
X78860000Y-116500000D01*
X73620000Y-118925000D02*
X73620000Y-119240000D01*
X73620000Y-119240000D02*
X78860000Y-119240000D01*
X78860000Y-116500000D02*
X78860000Y-116815000D01*
X78860000Y-118925000D02*
X78860000Y-119240000D01*
%TO.C,R3*%
X56420000Y-93880000D02*
X62960000Y-93880000D01*
X56420000Y-94210000D02*
X56420000Y-93880000D01*
X56420000Y-96290000D02*
X56420000Y-96620000D01*
X56420000Y-96620000D02*
X62960000Y-96620000D01*
X62960000Y-93880000D02*
X62960000Y-94210000D01*
X62960000Y-96620000D02*
X62960000Y-96290000D01*
%TO.C,M2*%
X43120000Y-99060000D02*
X43120000Y-101660000D01*
X43120000Y-99060000D02*
X45780000Y-99060000D01*
X43120000Y-101660000D02*
X45780000Y-101660000D01*
X44450000Y-96460000D02*
X45780000Y-96460000D01*
X45780000Y-96460000D02*
X45780000Y-97790000D01*
X45780000Y-99060000D02*
X45780000Y-101660000D01*
%TO.C,R2*%
X56420000Y-88800000D02*
X62960000Y-88800000D01*
X56420000Y-89130000D02*
X56420000Y-88800000D01*
X56420000Y-91210000D02*
X56420000Y-91540000D01*
X56420000Y-91540000D02*
X62960000Y-91540000D01*
X62960000Y-88800000D02*
X62960000Y-89130000D01*
X62960000Y-91540000D02*
X62960000Y-91210000D01*
%TO.C,Q1*%
X49740000Y-82030000D02*
X50800000Y-82030000D01*
X49740000Y-83090000D02*
X49740000Y-82030000D01*
X49740000Y-84090000D02*
X49740000Y-88150000D01*
X49740000Y-84090000D02*
X51860000Y-84090000D01*
X49740000Y-88150000D02*
X51860000Y-88150000D01*
X51860000Y-84090000D02*
X51860000Y-88150000D01*
%TO.C,R6*%
X57690000Y-118010000D02*
X64230000Y-118010000D01*
X57690000Y-118340000D02*
X57690000Y-118010000D01*
X57690000Y-120420000D02*
X57690000Y-120750000D01*
X57690000Y-120750000D02*
X64230000Y-120750000D01*
X64230000Y-118010000D02*
X64230000Y-118340000D01*
X64230000Y-120750000D02*
X64230000Y-120420000D01*
%TO.C,G\u002A\u002A\u002A*%
G36*
X68749843Y-128816317D02*
G01*
X68857781Y-128830969D01*
X68910186Y-128862849D01*
X68928829Y-128919472D01*
X68945061Y-128981978D01*
X68979990Y-128976115D01*
X69006982Y-128954313D01*
X69100079Y-128894624D01*
X69227107Y-128852294D01*
X69399738Y-128825290D01*
X69629644Y-128811579D01*
X69842418Y-128808795D01*
X70346946Y-128808795D01*
X70334818Y-128955333D01*
X70322689Y-129101872D01*
X69775613Y-129121410D01*
X69555297Y-129132421D01*
X69367954Y-129147858D01*
X69228199Y-129166181D01*
X69150647Y-129185850D01*
X69147168Y-129187662D01*
X69099382Y-129215749D01*
X69060218Y-129244913D01*
X69028709Y-129282785D01*
X69003886Y-129336998D01*
X68984781Y-129415185D01*
X68970425Y-129524976D01*
X68959850Y-129674006D01*
X68952089Y-129869906D01*
X68946173Y-130120309D01*
X68941133Y-130432847D01*
X68936001Y-130815153D01*
X68935459Y-130856511D01*
X68915920Y-132345257D01*
X68749843Y-132357273D01*
X68583766Y-132369289D01*
X68583766Y-130586795D01*
X68583766Y-128804301D01*
X68749843Y-128816317D01*
G37*
G36*
X84235641Y-128809489D02*
G01*
X84472417Y-128813953D01*
X84681952Y-128821403D01*
X84851077Y-128831875D01*
X84966624Y-128845405D01*
X85000012Y-128853269D01*
X85224861Y-128969030D01*
X85412802Y-129150761D01*
X85493434Y-129269273D01*
X85601766Y-129453564D01*
X85601766Y-130899410D01*
X85601766Y-132345257D01*
X85445459Y-132345257D01*
X85289151Y-132345257D01*
X85269613Y-130911974D01*
X85264353Y-130538659D01*
X85259431Y-130235452D01*
X85254324Y-129994313D01*
X85248508Y-129807201D01*
X85241461Y-129666075D01*
X85232658Y-129562896D01*
X85221576Y-129489621D01*
X85207692Y-129438211D01*
X85190483Y-129400624D01*
X85169425Y-129368821D01*
X85169142Y-129368436D01*
X85107572Y-129291714D01*
X85042420Y-129232682D01*
X84963040Y-129189212D01*
X84858789Y-129159176D01*
X84719018Y-129140447D01*
X84533083Y-129130899D01*
X84290338Y-129128403D01*
X83980136Y-129130832D01*
X83980074Y-129130833D01*
X83139920Y-129140949D01*
X83120382Y-130743103D01*
X83100843Y-132345257D01*
X82962677Y-132356885D01*
X82863099Y-132357460D01*
X82800505Y-132343602D01*
X82796600Y-132340603D01*
X82790602Y-132296741D01*
X82785046Y-132183045D01*
X82780073Y-132007833D01*
X82775824Y-131779425D01*
X82772440Y-131506139D01*
X82770062Y-131196296D01*
X82768831Y-130858213D01*
X82768689Y-130694944D01*
X82768932Y-130282981D01*
X82770063Y-129941890D01*
X82772690Y-129664389D01*
X82777419Y-129443197D01*
X82784856Y-129271034D01*
X82795608Y-129140617D01*
X82810282Y-129044664D01*
X82829483Y-128975896D01*
X82853818Y-128927030D01*
X82883894Y-128890785D01*
X82920317Y-128859879D01*
X82921611Y-128858884D01*
X82980356Y-128843437D01*
X83104041Y-128830727D01*
X83279495Y-128820791D01*
X83493550Y-128813663D01*
X83733039Y-128809380D01*
X83984792Y-128807977D01*
X84235641Y-128809489D01*
G37*
G36*
X60407194Y-129695643D02*
G01*
X60397151Y-132345257D01*
X60182228Y-132355389D01*
X60054519Y-132355956D01*
X59956710Y-132346557D01*
X59922388Y-132335851D01*
X59896302Y-132297381D01*
X59835833Y-132196111D01*
X59744202Y-132037753D01*
X59624630Y-131828018D01*
X59480339Y-131572618D01*
X59314550Y-131277265D01*
X59130483Y-130947670D01*
X58931362Y-130589545D01*
X58720406Y-130208602D01*
X58616364Y-130020180D01*
X58399093Y-129626617D01*
X58190968Y-129250164D01*
X57995376Y-128896913D01*
X57815704Y-128572959D01*
X57655342Y-128284394D01*
X57517675Y-128037311D01*
X57406093Y-127837803D01*
X57323983Y-127691965D01*
X57274733Y-127605889D01*
X57264538Y-127588825D01*
X57148422Y-127458991D01*
X57046562Y-127410491D01*
X56919305Y-127377512D01*
X56909240Y-129818660D01*
X56906445Y-130372830D01*
X56902912Y-130851525D01*
X56898582Y-131257418D01*
X56893398Y-131593185D01*
X56887302Y-131861500D01*
X56880238Y-132065039D01*
X56872147Y-132206476D01*
X56862971Y-132288486D01*
X56855609Y-132312301D01*
X56790508Y-132346475D01*
X56685094Y-132364131D01*
X56660520Y-132364795D01*
X56508997Y-132364795D01*
X56508997Y-129707564D01*
X56508997Y-127050333D01*
X56822868Y-127050333D01*
X57063343Y-127062191D01*
X57244391Y-127101480D01*
X57381622Y-127173777D01*
X57490645Y-127284657D01*
X57494971Y-127290418D01*
X57522923Y-127332669D01*
X57569233Y-127409412D01*
X57635493Y-127523517D01*
X57723295Y-127677856D01*
X57834232Y-127875302D01*
X57969894Y-128118726D01*
X58131875Y-128411000D01*
X58321765Y-128754997D01*
X58541158Y-129153587D01*
X58791645Y-129609644D01*
X59074817Y-130126038D01*
X59392268Y-130705643D01*
X59709625Y-131285583D01*
X60006382Y-131828064D01*
X60025920Y-129448968D01*
X60045459Y-127069872D01*
X60231348Y-127057950D01*
X60417237Y-127046029D01*
X60407194Y-129695643D01*
G37*
G36*
X67763151Y-130167148D02*
G01*
X67762581Y-130570435D01*
X67760101Y-130903799D01*
X67754558Y-131175469D01*
X67744800Y-131393671D01*
X67729671Y-131566635D01*
X67708020Y-131702588D01*
X67678693Y-131809757D01*
X67640536Y-131896370D01*
X67592395Y-131970655D01*
X67533119Y-132040840D01*
X67494838Y-132081204D01*
X67389887Y-132177735D01*
X67279191Y-132250157D01*
X67149797Y-132301620D01*
X66988751Y-132335273D01*
X66783099Y-132354266D01*
X66519888Y-132361749D01*
X66339651Y-132362073D01*
X66019921Y-132356475D01*
X65774452Y-132342615D01*
X65599761Y-132320244D01*
X65530991Y-132303732D01*
X65330882Y-132205384D01*
X65152839Y-132050077D01*
X65018449Y-131859002D01*
X64974661Y-131757532D01*
X64957238Y-131696774D01*
X64943198Y-131621729D01*
X64932198Y-131523917D01*
X64923889Y-131394860D01*
X64917927Y-131226080D01*
X64913964Y-131009098D01*
X64911655Y-130735436D01*
X64910654Y-130396614D01*
X64910536Y-130186818D01*
X64910536Y-128804301D01*
X65076613Y-128816317D01*
X65242689Y-128828333D01*
X65262228Y-130256445D01*
X65267692Y-130646601D01*
X65273235Y-130966385D01*
X65280150Y-131223569D01*
X65289727Y-131425926D01*
X65303258Y-131581227D01*
X65322036Y-131697245D01*
X65347351Y-131781753D01*
X65380496Y-131842522D01*
X65422761Y-131887325D01*
X65475439Y-131923934D01*
X65539821Y-131960122D01*
X65545904Y-131963443D01*
X65604662Y-131989591D01*
X65679034Y-132008375D01*
X65782010Y-132020933D01*
X65926579Y-132028400D01*
X66125729Y-132031913D01*
X66336843Y-132032641D01*
X66589942Y-132031505D01*
X66777899Y-132027339D01*
X66913703Y-132019006D01*
X67010343Y-132005370D01*
X67080808Y-131985295D01*
X67127783Y-131963443D01*
X67193224Y-131926932D01*
X67246851Y-131890662D01*
X67289956Y-131846862D01*
X67323829Y-131787760D01*
X67349762Y-131705584D01*
X67369048Y-131592560D01*
X67382977Y-131440917D01*
X67392841Y-131242883D01*
X67399933Y-130990685D01*
X67405543Y-130676551D01*
X67410963Y-130292708D01*
X67411459Y-130256445D01*
X67430997Y-128828333D01*
X67597074Y-128816317D01*
X67763151Y-128804301D01*
X67763151Y-130167148D01*
G37*
G36*
X80875861Y-128810176D02*
G01*
X81093730Y-128820200D01*
X81268463Y-128836320D01*
X81376925Y-128856853D01*
X81507191Y-128918056D01*
X81646106Y-129017555D01*
X81699936Y-129066841D01*
X81790914Y-129172124D01*
X81857919Y-129289046D01*
X81903738Y-129430429D01*
X81931152Y-129609095D01*
X81942947Y-129837864D01*
X81941907Y-130129558D01*
X81940887Y-130176487D01*
X81928536Y-130704026D01*
X80687825Y-130704026D01*
X79447115Y-130704026D01*
X79447279Y-131172949D01*
X79449249Y-131382835D01*
X79456427Y-131531469D01*
X79470972Y-131635693D01*
X79495043Y-131712349D01*
X79523360Y-131766378D01*
X79565104Y-131830878D01*
X79608966Y-131881921D01*
X79664268Y-131921289D01*
X79740330Y-131950762D01*
X79846477Y-131972120D01*
X79992028Y-131987145D01*
X80186308Y-131997618D01*
X80438636Y-132005320D01*
X80758336Y-132012031D01*
X80814843Y-132013103D01*
X81850382Y-132032641D01*
X81862398Y-132198718D01*
X81874414Y-132364795D01*
X80865936Y-132362181D01*
X80502183Y-132359624D01*
X80211006Y-132353868D01*
X79986886Y-132344663D01*
X79824300Y-132331754D01*
X79717727Y-132314891D01*
X79694889Y-132308724D01*
X79477274Y-132212756D01*
X79314253Y-132071842D01*
X79196513Y-131887933D01*
X79095459Y-131685142D01*
X79095677Y-130608430D01*
X79097296Y-130282057D01*
X79101807Y-129991423D01*
X79103156Y-129944672D01*
X79447151Y-129944672D01*
X79449471Y-130117382D01*
X79455745Y-130260021D01*
X79464939Y-130355150D01*
X79473202Y-130384898D01*
X79517692Y-130391790D01*
X79629916Y-130397997D01*
X79799454Y-130403269D01*
X80015886Y-130407353D01*
X80268795Y-130409996D01*
X80547760Y-130410949D01*
X80551090Y-130410949D01*
X81602927Y-130410949D01*
X81589885Y-129944739D01*
X81578569Y-129705084D01*
X81556108Y-129528868D01*
X81516552Y-129401550D01*
X81453949Y-129308586D01*
X81362350Y-129235434D01*
X81280989Y-129189856D01*
X81175474Y-129158383D01*
X81010805Y-129135301D01*
X80804871Y-129120578D01*
X80575563Y-129114178D01*
X80340772Y-129116067D01*
X80118387Y-129126213D01*
X79926300Y-129144580D01*
X79782401Y-129171134D01*
X79723099Y-129192814D01*
X79610656Y-129269954D01*
X79531788Y-129369980D01*
X79481548Y-129506375D01*
X79454985Y-129692623D01*
X79447151Y-129942208D01*
X79447151Y-129944672D01*
X79103156Y-129944672D01*
X79108899Y-129745716D01*
X79118258Y-129554128D01*
X79129572Y-129425847D01*
X79137354Y-129382414D01*
X79222733Y-129201883D01*
X79363537Y-129037329D01*
X79537368Y-128911944D01*
X79631733Y-128870479D01*
X79745062Y-128846765D01*
X79919072Y-128828336D01*
X80136459Y-128815328D01*
X80379922Y-128807875D01*
X80632157Y-128806113D01*
X80875861Y-128810176D01*
G37*
G36*
X87860025Y-128816472D02*
G01*
X87988037Y-128817812D01*
X88884228Y-128828333D01*
X88886856Y-128926026D01*
X88887777Y-128988645D01*
X88880472Y-129036219D01*
X88855561Y-129070815D01*
X88803663Y-129094498D01*
X88715396Y-129109333D01*
X88581379Y-129117387D01*
X88392232Y-129120726D01*
X88138572Y-129121415D01*
X87999561Y-129121410D01*
X87684404Y-129122665D01*
X87437025Y-129127680D01*
X87247072Y-129138329D01*
X87104193Y-129156488D01*
X86998035Y-129184031D01*
X86918246Y-129222834D01*
X86854474Y-129274771D01*
X86798555Y-129338925D01*
X86750014Y-129414648D01*
X86726028Y-129500563D01*
X86720997Y-129623858D01*
X86723609Y-129702918D01*
X86734997Y-129957156D01*
X87868228Y-130360891D01*
X88242951Y-130496371D01*
X88550202Y-130611714D01*
X88788361Y-130706268D01*
X88955814Y-130779380D01*
X89050940Y-130830396D01*
X89069843Y-130846117D01*
X89101240Y-130897377D01*
X89121624Y-130972033D01*
X89133103Y-131085835D01*
X89137780Y-131254532D01*
X89138228Y-131357573D01*
X89130043Y-131613915D01*
X89101639Y-131808900D01*
X89047241Y-131957982D01*
X88961076Y-132076609D01*
X88837368Y-132180235D01*
X88828488Y-132186408D01*
X88745624Y-132237189D01*
X88654288Y-132277429D01*
X88544622Y-132308314D01*
X88406771Y-132331026D01*
X88230878Y-132346749D01*
X88007087Y-132356664D01*
X87725543Y-132361957D01*
X87376388Y-132363810D01*
X87350459Y-132363840D01*
X86363766Y-132364795D01*
X86363766Y-132208487D01*
X86371372Y-132104364D01*
X86399532Y-132059107D01*
X86432151Y-132052598D01*
X86488890Y-132052305D01*
X86612317Y-132051262D01*
X86790971Y-132049578D01*
X87013391Y-132047365D01*
X87268116Y-132044733D01*
X87477459Y-132042507D01*
X87786820Y-132038567D01*
X88028111Y-132033726D01*
X88211414Y-132027258D01*
X88346813Y-132018440D01*
X88444392Y-132006548D01*
X88514232Y-131990857D01*
X88566418Y-131970644D01*
X88580720Y-131963274D01*
X88697281Y-131876020D01*
X88773060Y-131755972D01*
X88813887Y-131589034D01*
X88825613Y-131371277D01*
X88823942Y-131220478D01*
X88814886Y-131128188D01*
X88792374Y-131074777D01*
X88750339Y-131040611D01*
X88718151Y-131023634D01*
X88653855Y-130996932D01*
X88526385Y-130948516D01*
X88346411Y-130882272D01*
X88124603Y-130802084D01*
X87871628Y-130711839D01*
X87598157Y-130615422D01*
X87575151Y-130607362D01*
X87228400Y-130484231D01*
X86951525Y-130381988D01*
X86739668Y-130298654D01*
X86587971Y-130232250D01*
X86491576Y-130180797D01*
X86451689Y-130149809D01*
X86406106Y-130089842D01*
X86379437Y-130017639D01*
X86366914Y-129911349D01*
X86363767Y-129749121D01*
X86363766Y-129747006D01*
X86369137Y-129544809D01*
X86390475Y-129396332D01*
X86435621Y-129277566D01*
X86512416Y-129164502D01*
X86579388Y-129086705D01*
X86659844Y-129004533D01*
X86742381Y-128940133D01*
X86837334Y-128891531D01*
X86955036Y-128856757D01*
X87105822Y-128833837D01*
X87300026Y-128820797D01*
X87547982Y-128815667D01*
X87860025Y-128816472D01*
G37*
G36*
X62953947Y-128810596D02*
G01*
X63179934Y-128817420D01*
X63353493Y-128831399D01*
X63487459Y-128854663D01*
X63594666Y-128889344D01*
X63687952Y-128937573D01*
X63767896Y-128992302D01*
X63875122Y-129085103D01*
X63954785Y-129190586D01*
X64011171Y-129322079D01*
X64048565Y-129492909D01*
X64071252Y-129716402D01*
X64082561Y-129970939D01*
X64086666Y-130179909D01*
X64086832Y-130368019D01*
X64083297Y-130517918D01*
X64076299Y-130612252D01*
X64073578Y-130627051D01*
X64048564Y-130726711D01*
X62818755Y-130715368D01*
X61588946Y-130704026D01*
X61589118Y-131172949D01*
X61591091Y-131382838D01*
X61598272Y-131531474D01*
X61612820Y-131635701D01*
X61636893Y-131712359D01*
X61665206Y-131766378D01*
X61706950Y-131830878D01*
X61750812Y-131881921D01*
X61806114Y-131921289D01*
X61882177Y-131950762D01*
X61988323Y-131972120D01*
X62133875Y-131987145D01*
X62328154Y-131997618D01*
X62580482Y-132005320D01*
X62900183Y-132012031D01*
X62956689Y-132013103D01*
X63992228Y-132032641D01*
X64004244Y-132198718D01*
X64016260Y-132364795D01*
X63007782Y-132360795D01*
X62727390Y-132358515D01*
X62466525Y-132354194D01*
X62237361Y-132348208D01*
X62052071Y-132340933D01*
X61922827Y-132332742D01*
X61867352Y-132325640D01*
X61686679Y-132251492D01*
X61512372Y-132126711D01*
X61374588Y-131974693D01*
X61338477Y-131915410D01*
X61314721Y-131865714D01*
X61295901Y-131811530D01*
X61281324Y-131743251D01*
X61270295Y-131651268D01*
X61262119Y-131525972D01*
X61256103Y-131357754D01*
X61251553Y-131137005D01*
X61247773Y-130854118D01*
X61245339Y-130626282D01*
X61242376Y-130265965D01*
X61242492Y-129974545D01*
X61243366Y-129930356D01*
X61588997Y-129930356D01*
X61591242Y-130106116D01*
X61597323Y-130251986D01*
X61606259Y-130350863D01*
X61615048Y-130384898D01*
X61659539Y-130391790D01*
X61771762Y-130397997D01*
X61941300Y-130403269D01*
X62157733Y-130407353D01*
X62410641Y-130409996D01*
X62689606Y-130410949D01*
X62692936Y-130410949D01*
X63744773Y-130410949D01*
X63731731Y-129944739D01*
X63720415Y-129705084D01*
X63697954Y-129528868D01*
X63658398Y-129401550D01*
X63595795Y-129308586D01*
X63504196Y-129235434D01*
X63422835Y-129189856D01*
X63321147Y-129160043D01*
X63159590Y-129137729D01*
X62956093Y-129122979D01*
X62728584Y-129115859D01*
X62494995Y-129116435D01*
X62273254Y-129124773D01*
X62081291Y-129140938D01*
X61937035Y-129164997D01*
X61878826Y-129184186D01*
X61762532Y-129254493D01*
X61680623Y-129346009D01*
X61627898Y-129472123D01*
X61599157Y-129646227D01*
X61589197Y-129881711D01*
X61588997Y-129930356D01*
X61243366Y-129930356D01*
X61247078Y-129742783D01*
X61257524Y-129561440D01*
X61275219Y-129421277D01*
X61301554Y-129313057D01*
X61337919Y-129227539D01*
X61385702Y-129155485D01*
X61446295Y-129087657D01*
X61482165Y-129052116D01*
X61573974Y-128972525D01*
X61671809Y-128912023D01*
X61787735Y-128868122D01*
X61933818Y-128838337D01*
X62122125Y-128820179D01*
X62364722Y-128811161D01*
X62662694Y-128808795D01*
X62953947Y-128810596D01*
G37*
G36*
X91680271Y-128809172D02*
G01*
X91876521Y-128811249D01*
X92021080Y-128816441D01*
X92127179Y-128826165D01*
X92208050Y-128841837D01*
X92276922Y-128864874D01*
X92347029Y-128896692D01*
X92376564Y-128911290D01*
X92574230Y-129043458D01*
X92687083Y-129172080D01*
X92724746Y-129231162D01*
X92752099Y-129286307D01*
X92770791Y-129350803D01*
X92782470Y-129437941D01*
X92788785Y-129561010D01*
X92791384Y-129733301D01*
X92791917Y-129968101D01*
X92791920Y-130017200D01*
X92791920Y-130704026D01*
X91551210Y-130704026D01*
X90310500Y-130704026D01*
X90310736Y-131094795D01*
X90316473Y-131346790D01*
X90335900Y-131536523D01*
X90372865Y-131679262D01*
X90431212Y-131790276D01*
X90508166Y-131878555D01*
X90628137Y-131993564D01*
X91612336Y-132003483D01*
X91886388Y-132006990D01*
X92138141Y-132011621D01*
X92355894Y-132017049D01*
X92527944Y-132022945D01*
X92642589Y-132028981D01*
X92684459Y-132033536D01*
X92742720Y-132060629D01*
X92767908Y-132121935D01*
X92772382Y-132209232D01*
X92772382Y-132364795D01*
X91766151Y-132360795D01*
X91487074Y-132358616D01*
X91228453Y-132354580D01*
X91002258Y-132349032D01*
X90820464Y-132342320D01*
X90695043Y-132334790D01*
X90642689Y-132328255D01*
X90398999Y-132233576D01*
X90207352Y-132082330D01*
X90071558Y-131877652D01*
X90058401Y-131847748D01*
X90040297Y-131792215D01*
X90026056Y-131716208D01*
X90015257Y-131610744D01*
X90007477Y-131466840D01*
X90002294Y-131275514D01*
X89999284Y-131027785D01*
X89998027Y-130714670D01*
X89997920Y-130561311D01*
X89998221Y-130230120D01*
X89999436Y-129982870D01*
X90310536Y-129982870D01*
X90313086Y-130147185D01*
X90319940Y-130280907D01*
X90329900Y-130365579D01*
X90336587Y-130384898D01*
X90381026Y-130391726D01*
X90493304Y-130397886D01*
X90663110Y-130403132D01*
X90880130Y-130407220D01*
X91134051Y-130409906D01*
X91414561Y-130410944D01*
X91434958Y-130410949D01*
X92507278Y-130410949D01*
X92493110Y-129971333D01*
X92483528Y-129760529D01*
X92468756Y-129609907D01*
X92445884Y-129501528D01*
X92412004Y-129417455D01*
X92399640Y-129394949D01*
X92337741Y-129302577D01*
X92266022Y-129233331D01*
X92172796Y-129184000D01*
X92046375Y-129151372D01*
X91875073Y-129132235D01*
X91647202Y-129123378D01*
X91404689Y-129121532D01*
X91120545Y-129124003D01*
X90902870Y-129133804D01*
X90740073Y-129154520D01*
X90620558Y-129189733D01*
X90532732Y-129243028D01*
X90465002Y-129317986D01*
X90405774Y-129418192D01*
X90398459Y-129432536D01*
X90354809Y-129533133D01*
X90328109Y-129638878D01*
X90314611Y-129773236D01*
X90310565Y-129959675D01*
X90310536Y-129982870D01*
X89999436Y-129982870D01*
X89999512Y-129967454D01*
X90002382Y-129763687D01*
X90007416Y-129609190D01*
X90015200Y-129494337D01*
X90026320Y-129409499D01*
X90041364Y-129345050D01*
X90060916Y-129291362D01*
X90077448Y-129255341D01*
X90193368Y-129092201D01*
X90364143Y-128949422D01*
X90557310Y-128850056D01*
X90633595Y-128836203D01*
X90775340Y-128824550D01*
X90969870Y-128815705D01*
X91204508Y-128810274D01*
X91419099Y-128808795D01*
X91680271Y-128809172D01*
G37*
G36*
X77224680Y-127050356D02*
G01*
X77524162Y-127051181D01*
X77759900Y-127053943D01*
X77939101Y-127059776D01*
X78068968Y-127069814D01*
X78156706Y-127085193D01*
X78209520Y-127107046D01*
X78234616Y-127136509D01*
X78239198Y-127174715D01*
X78230471Y-127222800D01*
X78219698Y-127265344D01*
X78195200Y-127362949D01*
X76947407Y-127362949D01*
X76571916Y-127364404D01*
X76239573Y-127368626D01*
X75957659Y-127375397D01*
X75733453Y-127384500D01*
X75574236Y-127395718D01*
X75498183Y-127406148D01*
X75280953Y-127489583D01*
X75110966Y-127632093D01*
X74996585Y-127825155D01*
X74959316Y-127955376D01*
X74947146Y-128056097D01*
X74938395Y-128201863D01*
X74933091Y-128374793D01*
X74931261Y-128557007D01*
X74932933Y-128730627D01*
X74938136Y-128877773D01*
X74946897Y-128980563D01*
X74957650Y-129020204D01*
X74996757Y-129034966D01*
X75102519Y-129071628D01*
X75267359Y-129127644D01*
X75483701Y-129200471D01*
X75743967Y-129287563D01*
X76040579Y-129386375D01*
X76365961Y-129494363D01*
X76609042Y-129574797D01*
X77010545Y-129707948D01*
X77343912Y-129819687D01*
X77615459Y-129912377D01*
X77831498Y-129988386D01*
X77998342Y-130050078D01*
X78122307Y-130099820D01*
X78209705Y-130139976D01*
X78266850Y-130172913D01*
X78300055Y-130200996D01*
X78308044Y-130211393D01*
X78335948Y-130271619D01*
X78354530Y-130360780D01*
X78365273Y-130492968D01*
X78369665Y-130682278D01*
X78369951Y-130798711D01*
X78367267Y-131006120D01*
X78360639Y-131202671D01*
X78351081Y-131365562D01*
X78340195Y-131468448D01*
X78266612Y-131695464D01*
X78129791Y-131909421D01*
X77944623Y-132095328D01*
X77726000Y-132238193D01*
X77492008Y-132322345D01*
X77394880Y-132334230D01*
X77225979Y-132344412D01*
X76991669Y-132352724D01*
X76698316Y-132358997D01*
X76352286Y-132363064D01*
X75959943Y-132364756D01*
X75886981Y-132364795D01*
X74479888Y-132364795D01*
X74491904Y-132198718D01*
X74503920Y-132032641D01*
X76014583Y-132013103D01*
X77525247Y-131993564D01*
X77675353Y-131873555D01*
X77779666Y-131782255D01*
X77855455Y-131690627D01*
X77907142Y-131584144D01*
X77939152Y-131448276D01*
X77955907Y-131268493D01*
X77961833Y-131030267D01*
X77962167Y-130931546D01*
X77962228Y-130377527D01*
X76330766Y-129843039D01*
X75951769Y-129717748D01*
X75607559Y-129601722D01*
X75304461Y-129497217D01*
X75048797Y-129406489D01*
X74846893Y-129331793D01*
X74705073Y-129275384D01*
X74629660Y-129239517D01*
X74621151Y-129233316D01*
X74591455Y-129198900D01*
X74570383Y-129153503D01*
X74556490Y-129084297D01*
X74548329Y-128978453D01*
X74544454Y-128823141D01*
X74543420Y-128605534D01*
X74543433Y-128543823D01*
X74544524Y-128306013D01*
X74548602Y-128130565D01*
X74557460Y-128001695D01*
X74572892Y-127903621D01*
X74596691Y-127820559D01*
X74630651Y-127736725D01*
X74636663Y-127723260D01*
X74769532Y-127508405D01*
X74954855Y-127318303D01*
X75170156Y-127173351D01*
X75305776Y-127116082D01*
X75371036Y-127098003D01*
X75448896Y-127083490D01*
X75548139Y-127072170D01*
X75677544Y-127063671D01*
X75845892Y-127057620D01*
X76061964Y-127053643D01*
X76334540Y-127051369D01*
X76672402Y-127050424D01*
X76854249Y-127050333D01*
X77224680Y-127050356D01*
G37*
G36*
X72297705Y-128774688D02*
G01*
X72459540Y-128776974D01*
X73188403Y-128789257D01*
X73357122Y-128907939D01*
X73560749Y-129092990D01*
X73699463Y-129312937D01*
X73741294Y-129429429D01*
X73753352Y-129513745D01*
X73763143Y-129662752D01*
X73770665Y-129863020D01*
X73775920Y-130101118D01*
X73778907Y-130363617D01*
X73779625Y-130637087D01*
X73778076Y-130908097D01*
X73774259Y-131163218D01*
X73768173Y-131389020D01*
X73759820Y-131572071D01*
X73749199Y-131698944D01*
X73741294Y-131744161D01*
X73636621Y-131977608D01*
X73463622Y-132180781D01*
X73357098Y-132265651D01*
X73188354Y-132384333D01*
X72419829Y-132396131D01*
X72156521Y-132399922D01*
X71958411Y-132401258D01*
X71812552Y-132398902D01*
X71705998Y-132391620D01*
X71625803Y-132378177D01*
X71559020Y-132357339D01*
X71492703Y-132327871D01*
X71442572Y-132302929D01*
X71224945Y-132152939D01*
X71067335Y-131954073D01*
X70973517Y-131711175D01*
X70970272Y-131696585D01*
X70958196Y-131600921D01*
X70947528Y-131440542D01*
X70938761Y-131228879D01*
X70932385Y-130979366D01*
X70928894Y-130705436D01*
X70928382Y-130552887D01*
X70929811Y-130201753D01*
X70930675Y-130157721D01*
X71285455Y-130157721D01*
X71287236Y-130476787D01*
X71288702Y-130632864D01*
X71292178Y-130956267D01*
X71295928Y-131210905D01*
X71300664Y-131406164D01*
X71307097Y-131551431D01*
X71315940Y-131656093D01*
X71327903Y-131729537D01*
X71343699Y-131781151D01*
X71364039Y-131820320D01*
X71380544Y-131844248D01*
X71452437Y-131930063D01*
X71532641Y-131993728D01*
X71633663Y-132038415D01*
X71768013Y-132067292D01*
X71948198Y-132083530D01*
X72186727Y-132090299D01*
X72354689Y-132091135D01*
X72602948Y-132089738D01*
X72786737Y-132084730D01*
X72919702Y-132074886D01*
X73015491Y-132058981D01*
X73087751Y-132035791D01*
X73115910Y-132022811D01*
X73230514Y-131942180D01*
X73331097Y-131835267D01*
X73340603Y-131821708D01*
X73366881Y-131780066D01*
X73387379Y-131736691D01*
X73402817Y-131681859D01*
X73413909Y-131605844D01*
X73421374Y-131498921D01*
X73425929Y-131351364D01*
X73428291Y-131153448D01*
X73429177Y-130895447D01*
X73429305Y-130618838D01*
X73428660Y-130275324D01*
X73425778Y-130000509D01*
X73419243Y-129784943D01*
X73407634Y-129619178D01*
X73389535Y-129493762D01*
X73363525Y-129399245D01*
X73328187Y-129326179D01*
X73282102Y-129265112D01*
X73223852Y-129206594D01*
X73216270Y-129199564D01*
X73177364Y-129165525D01*
X73137242Y-129140483D01*
X73083996Y-129123057D01*
X73005722Y-129111867D01*
X72890514Y-129105532D01*
X72726466Y-129102671D01*
X72501673Y-129101903D01*
X72373945Y-129101872D01*
X72114418Y-129102431D01*
X71920985Y-129104875D01*
X71781588Y-129110358D01*
X71684170Y-129120032D01*
X71616674Y-129135048D01*
X71567043Y-129156560D01*
X71527170Y-129182804D01*
X71458041Y-129236600D01*
X71403036Y-129291563D01*
X71360653Y-129356834D01*
X71329389Y-129441553D01*
X71307740Y-129554861D01*
X71294204Y-129705898D01*
X71287276Y-129903805D01*
X71285455Y-130157721D01*
X70930675Y-130157721D01*
X70935367Y-129918651D01*
X70946947Y-129693492D01*
X70966453Y-129516188D01*
X70995783Y-129376647D01*
X71036837Y-129264782D01*
X71091514Y-129170503D01*
X71161715Y-129083719D01*
X71215565Y-129027555D01*
X71307284Y-128943316D01*
X71400251Y-128879085D01*
X71506291Y-128832481D01*
X71637230Y-128801122D01*
X71804895Y-128782625D01*
X72021111Y-128774608D01*
X72297705Y-128774688D01*
G37*
G36*
X50908490Y-125914523D02*
G01*
X50990081Y-125927021D01*
X51094875Y-125950905D01*
X51230131Y-125988404D01*
X51403106Y-126041751D01*
X51621060Y-126113177D01*
X51891249Y-126204911D01*
X52220932Y-126319187D01*
X52581766Y-126445702D01*
X52911457Y-126562405D01*
X53219055Y-126672612D01*
X53496525Y-126773348D01*
X53735832Y-126861635D01*
X53928943Y-126934497D01*
X54067823Y-126988958D01*
X54144438Y-127022041D01*
X54156334Y-127029040D01*
X54170680Y-127046749D01*
X54186884Y-127078145D01*
X54206800Y-127129822D01*
X54232281Y-127208372D01*
X54265181Y-127320389D01*
X54307356Y-127472466D01*
X54360657Y-127671197D01*
X54426939Y-127923173D01*
X54508056Y-128234990D01*
X54605862Y-128613239D01*
X54651269Y-128789257D01*
X54709760Y-129015684D01*
X54762325Y-129218396D01*
X54805546Y-129384271D01*
X54836005Y-129500192D01*
X54850076Y-129552332D01*
X54835702Y-129602279D01*
X54785560Y-129707598D01*
X54705475Y-129857495D01*
X54601272Y-130041176D01*
X54478778Y-130247846D01*
X54442353Y-130307778D01*
X54298692Y-130541864D01*
X54186806Y-130719786D01*
X54098142Y-130852325D01*
X54024144Y-130950260D01*
X53956258Y-131024372D01*
X53885929Y-131085441D01*
X53804602Y-131144247D01*
X53748864Y-131181671D01*
X53560469Y-131308765D01*
X53359419Y-131447855D01*
X53155866Y-131591530D01*
X52959963Y-131732376D01*
X52781860Y-131862982D01*
X52631712Y-131975934D01*
X52519669Y-132063819D01*
X52455884Y-132119227D01*
X52444997Y-132133689D01*
X52462639Y-132177562D01*
X52511629Y-132278508D01*
X52586061Y-132424895D01*
X52680029Y-132605091D01*
X52777151Y-132787919D01*
X52883881Y-132989587D01*
X52976374Y-133168931D01*
X53048699Y-133314072D01*
X53094923Y-133413131D01*
X53109305Y-133453049D01*
X53077544Y-133475315D01*
X52979288Y-133489810D01*
X52810080Y-133497007D01*
X52684334Y-133498026D01*
X52259364Y-133498026D01*
X51502257Y-132907501D01*
X51260552Y-132717838D01*
X51074429Y-132568625D01*
X50936904Y-132453478D01*
X50840993Y-132366010D01*
X50779712Y-132299837D01*
X50746077Y-132248574D01*
X50733104Y-132205835D01*
X50732906Y-132204116D01*
X50716127Y-132123807D01*
X50693829Y-132091636D01*
X50650836Y-132114325D01*
X50568154Y-132172441D01*
X50495421Y-132228405D01*
X50395158Y-132303407D01*
X50317603Y-132352946D01*
X50288211Y-132364795D01*
X50250181Y-132340231D01*
X50161457Y-132271050D01*
X50030236Y-132164014D01*
X49864714Y-132025889D01*
X49673085Y-131863437D01*
X49483294Y-131700487D01*
X48714011Y-131036180D01*
X47892965Y-131035581D01*
X47645882Y-131034088D01*
X47424472Y-131030257D01*
X47240953Y-131024504D01*
X47107545Y-131017242D01*
X47036465Y-131008887D01*
X47029187Y-131006274D01*
X46993402Y-130968440D01*
X46918649Y-130879963D01*
X46812818Y-130750827D01*
X46683797Y-130591013D01*
X46539476Y-130410505D01*
X46387743Y-130219284D01*
X46236488Y-130027333D01*
X46093600Y-129844635D01*
X45966968Y-129681173D01*
X45864481Y-129546928D01*
X45794027Y-129451884D01*
X45763497Y-129406022D01*
X45762843Y-129403884D01*
X45770116Y-129350013D01*
X45788897Y-129241154D01*
X46245296Y-129241154D01*
X46263073Y-129305233D01*
X46308840Y-129390030D01*
X46389643Y-129508427D01*
X46512533Y-129673309D01*
X46523733Y-129688026D01*
X46639184Y-129836301D01*
X46739284Y-129958734D01*
X46813956Y-130043426D01*
X46853120Y-130078478D01*
X46854707Y-130078795D01*
X46892195Y-130049459D01*
X46961111Y-129971832D01*
X47047835Y-129861489D01*
X47065156Y-129838173D01*
X47156939Y-129716371D01*
X47224819Y-129643342D01*
X47290997Y-129604750D01*
X47377671Y-129586261D01*
X47469721Y-129576942D01*
X47626533Y-129560361D01*
X47777563Y-129540616D01*
X47846091Y-129529701D01*
X47959031Y-129520527D01*
X48040042Y-129550916D01*
X48090322Y-129592589D01*
X48171016Y-129710162D01*
X48187767Y-129834998D01*
X48151945Y-129953496D01*
X48074925Y-130052053D01*
X47968078Y-130117069D01*
X47842778Y-130134941D01*
X47710396Y-130092066D01*
X47685897Y-130076292D01*
X47590892Y-130035807D01*
X47498309Y-130056445D01*
X47399162Y-130142870D01*
X47299472Y-130276855D01*
X47234540Y-130377551D01*
X47194640Y-130455307D01*
X47186724Y-130513089D01*
X47217749Y-130553861D01*
X47294666Y-130580588D01*
X47424431Y-130596235D01*
X47613996Y-130603765D01*
X47870317Y-130606145D01*
X48072303Y-130606333D01*
X48887270Y-130606333D01*
X49192480Y-130870103D01*
X49347123Y-131003844D01*
X49535750Y-131167115D01*
X49733310Y-131338229D01*
X49897155Y-131480235D01*
X50296621Y-131826598D01*
X50668761Y-131546881D01*
X50819443Y-131435321D01*
X50951142Y-131340955D01*
X51049266Y-131274033D01*
X51098179Y-131245183D01*
X51123320Y-131246601D01*
X51140228Y-131281471D01*
X51150543Y-131361401D01*
X51155907Y-131498001D01*
X51157797Y-131666999D01*
X51160136Y-132110795D01*
X51753720Y-132564713D01*
X51938766Y-132705138D01*
X52101674Y-132826705D01*
X52232710Y-132922319D01*
X52322139Y-132984884D01*
X52360227Y-133007306D01*
X52360756Y-133007160D01*
X52348334Y-132970528D01*
X52305013Y-132877755D01*
X52237003Y-132741479D01*
X52150513Y-132574341D01*
X52116525Y-132509950D01*
X52023580Y-132332337D01*
X51945542Y-132178617D01*
X51889071Y-132062269D01*
X51860832Y-131996772D01*
X51858843Y-131988606D01*
X51889610Y-131957864D01*
X51976550Y-131888538D01*
X52111617Y-131786589D01*
X52286769Y-131657978D01*
X52493962Y-131508667D01*
X52725152Y-131344618D01*
X52775826Y-131308974D01*
X53012216Y-131141768D01*
X53227376Y-130987317D01*
X53413030Y-130851741D01*
X53560906Y-130741160D01*
X53662728Y-130661697D01*
X53710222Y-130619471D01*
X53712446Y-130616103D01*
X53702780Y-130600424D01*
X53654864Y-130588267D01*
X53561499Y-130579263D01*
X53415487Y-130573043D01*
X53209630Y-130569239D01*
X52936730Y-130567483D01*
X52758375Y-130567257D01*
X51784667Y-130567257D01*
X51689599Y-130440257D01*
X51607715Y-130319812D01*
X51535570Y-130196495D01*
X51530299Y-130186257D01*
X51466067Y-130059257D01*
X50705071Y-130059257D01*
X50470844Y-130060304D01*
X50265839Y-130063222D01*
X50101911Y-130067677D01*
X49990915Y-130073334D01*
X49944705Y-130079859D01*
X49944074Y-130080736D01*
X49963679Y-130139800D01*
X50010246Y-130230361D01*
X50065403Y-130320251D01*
X50110776Y-130377305D01*
X50115603Y-130381043D01*
X50207530Y-130407125D01*
X50339506Y-130406091D01*
X50479218Y-130380357D01*
X50567785Y-130347234D01*
X50660097Y-130308107D01*
X50731738Y-130307725D01*
X50826632Y-130346051D01*
X50828677Y-130347025D01*
X50957595Y-130442775D01*
X51015858Y-130570895D01*
X51001681Y-130726809D01*
X50990086Y-130760686D01*
X50921514Y-130878655D01*
X50821847Y-130938154D01*
X50680924Y-130942229D01*
X50515996Y-130902792D01*
X50355013Y-130865197D01*
X50186671Y-130845456D01*
X50110093Y-130844855D01*
X49989237Y-130845329D01*
X49898674Y-130835066D01*
X49874810Y-130826750D01*
X49837163Y-130781801D01*
X49773867Y-130684496D01*
X49695551Y-130551704D01*
X49651171Y-130471935D01*
X49555433Y-130299661D01*
X49483609Y-130184477D01*
X49423671Y-130114074D01*
X49363593Y-130076141D01*
X49291350Y-130058369D01*
X49241571Y-130052680D01*
X49188685Y-130044541D01*
X49142952Y-130024702D01*
X49096196Y-129983052D01*
X49040242Y-129909478D01*
X48966912Y-129793870D01*
X48868029Y-129626117D01*
X48796592Y-129502410D01*
X48487187Y-128965103D01*
X47379015Y-128965103D01*
X47047996Y-128965675D01*
X46787445Y-128967640D01*
X46589683Y-128971370D01*
X46447032Y-128977237D01*
X46351813Y-128985613D01*
X46296346Y-128996872D01*
X46272954Y-129011385D01*
X46270843Y-129018833D01*
X46263509Y-129095326D01*
X46248458Y-129184910D01*
X46245296Y-129241154D01*
X45788897Y-129241154D01*
X45789887Y-129235418D01*
X45819083Y-129075963D01*
X45854632Y-128887513D01*
X45893461Y-128685931D01*
X45932499Y-128487080D01*
X45946746Y-128416085D01*
X46388074Y-128416085D01*
X46390024Y-128438892D01*
X46401378Y-128456899D01*
X46430393Y-128470673D01*
X46485326Y-128480781D01*
X46574433Y-128487789D01*
X46705972Y-128492265D01*
X46888200Y-128494776D01*
X47129373Y-128495890D01*
X47437748Y-128496172D01*
X47554325Y-128496180D01*
X47889280Y-128496511D01*
X48154692Y-128497825D01*
X48359173Y-128500601D01*
X48511332Y-128505321D01*
X48619780Y-128512464D01*
X48693126Y-128522510D01*
X48739982Y-128535940D01*
X48768957Y-128553235D01*
X48780388Y-128564564D01*
X48821501Y-128623057D01*
X48891656Y-128734699D01*
X48981681Y-128884463D01*
X49082408Y-129057323D01*
X49102322Y-129092103D01*
X49364445Y-129551257D01*
X50504183Y-129551855D01*
X50796139Y-129552959D01*
X51063343Y-129555786D01*
X51295623Y-129560085D01*
X51482804Y-129565603D01*
X51614711Y-129572088D01*
X51681173Y-129579288D01*
X51686359Y-129581163D01*
X51727808Y-129627076D01*
X51795175Y-129719437D01*
X51871489Y-129834564D01*
X52014180Y-130059257D01*
X53027163Y-130059257D01*
X54040145Y-130059257D01*
X54199956Y-129806214D01*
X54276080Y-129683189D01*
X54332518Y-129587233D01*
X54358977Y-129535963D01*
X54359766Y-129532676D01*
X54323323Y-129522485D01*
X54224371Y-129515579D01*
X54078476Y-129511735D01*
X53901204Y-129510733D01*
X53708122Y-129512353D01*
X53514795Y-129516373D01*
X53336791Y-129522572D01*
X53189674Y-129530729D01*
X53089012Y-129540624D01*
X53050689Y-129551257D01*
X52999514Y-129576114D01*
X52902135Y-129589556D01*
X52870761Y-129590333D01*
X52721572Y-129560146D01*
X52603050Y-129480014D01*
X52533675Y-129365584D01*
X52523151Y-129296027D01*
X52552245Y-129199033D01*
X52624467Y-129095180D01*
X52717223Y-129009385D01*
X52807921Y-128966565D01*
X52822991Y-128965343D01*
X52907789Y-128983142D01*
X53006310Y-129023959D01*
X53077957Y-129049350D01*
X53186875Y-129066787D01*
X53344941Y-129077296D01*
X53564034Y-129081908D01*
X53680387Y-129082333D01*
X53879928Y-129080416D01*
X54048363Y-129075142D01*
X54171883Y-129067232D01*
X54236679Y-129057405D01*
X54243063Y-129053026D01*
X54233975Y-129004137D01*
X54209289Y-128899211D01*
X54173656Y-128757693D01*
X54158991Y-128701333D01*
X54074390Y-128378949D01*
X53201869Y-128378949D01*
X52329347Y-128378949D01*
X52214482Y-128584103D01*
X52155769Y-128692809D01*
X52108751Y-128778811D01*
X52063971Y-128844740D01*
X52011973Y-128893229D01*
X51943299Y-128926910D01*
X51848494Y-128948416D01*
X51718101Y-128960378D01*
X51542663Y-128965431D01*
X51312724Y-128966205D01*
X51018828Y-128965333D01*
X50845804Y-128965103D01*
X50515524Y-128964686D01*
X50254775Y-128963126D01*
X50054937Y-128959955D01*
X49907390Y-128954704D01*
X49803513Y-128946906D01*
X49734688Y-128936095D01*
X49692293Y-128921801D01*
X49667708Y-128903559D01*
X49665551Y-128901088D01*
X49626939Y-128844846D01*
X49558394Y-128735190D01*
X49468733Y-128586579D01*
X49366772Y-128413470D01*
X49337915Y-128363781D01*
X49063909Y-127890487D01*
X47914088Y-127880116D01*
X46764267Y-127869745D01*
X46631452Y-127997347D01*
X46491795Y-128157531D01*
X46408499Y-128311313D01*
X46388074Y-128416085D01*
X45946746Y-128416085D01*
X45968673Y-128306824D01*
X45998909Y-128161028D01*
X46020137Y-128065554D01*
X46027062Y-128039631D01*
X46062216Y-127986879D01*
X46143884Y-127888393D01*
X46263438Y-127753823D01*
X46412250Y-127592817D01*
X46581690Y-127415025D01*
X46613272Y-127382487D01*
X47314471Y-127382487D01*
X48365503Y-127392168D01*
X48679837Y-127395311D01*
X48925281Y-127398752D01*
X49111100Y-127403239D01*
X49246556Y-127409519D01*
X49340914Y-127418336D01*
X49403436Y-127430438D01*
X49443385Y-127446570D01*
X49470026Y-127467479D01*
X49483122Y-127482199D01*
X49520649Y-127522244D01*
X49552835Y-127527807D01*
X49593935Y-127489758D01*
X49658206Y-127398967D01*
X49691779Y-127348573D01*
X49833851Y-127134597D01*
X50551397Y-127121773D01*
X50839913Y-127114614D01*
X51055786Y-127104518D01*
X51204488Y-127091046D01*
X51291490Y-127073757D01*
X51317708Y-127060103D01*
X51410813Y-127015765D01*
X51531259Y-127017415D01*
X51645877Y-127061584D01*
X51691233Y-127099180D01*
X51782687Y-127235736D01*
X51799280Y-127369628D01*
X51762454Y-127477660D01*
X51667269Y-127586556D01*
X51533276Y-127630701D01*
X51398967Y-127615157D01*
X51323539Y-127603716D01*
X51186458Y-127592194D01*
X51004221Y-127581630D01*
X50793320Y-127573067D01*
X50681432Y-127569840D01*
X50070636Y-127554689D01*
X49929201Y-127747362D01*
X49854073Y-127856846D01*
X49802783Y-127945247D01*
X49787766Y-127986457D01*
X49807439Y-128047953D01*
X49856645Y-128148112D01*
X49920663Y-128261180D01*
X49984775Y-128361399D01*
X50034260Y-128423014D01*
X50039890Y-128427608D01*
X50089336Y-128435612D01*
X50205194Y-128441925D01*
X50375733Y-128446295D01*
X50589226Y-128448474D01*
X50833943Y-128448212D01*
X50959060Y-128447146D01*
X51837277Y-128437564D01*
X51977392Y-128196529D01*
X52041869Y-128082976D01*
X52093932Y-127995653D01*
X52144418Y-127931142D01*
X52204162Y-127886026D01*
X52284001Y-127856886D01*
X52394770Y-127840307D01*
X52547305Y-127832869D01*
X52752442Y-127831156D01*
X53021017Y-127831751D01*
X53133628Y-127831872D01*
X53391410Y-127830676D01*
X53620971Y-127827321D01*
X53811498Y-127822152D01*
X53952181Y-127815518D01*
X54032207Y-127807765D01*
X54046620Y-127802564D01*
X54035881Y-127752257D01*
X54008466Y-127650698D01*
X53976041Y-127539238D01*
X53905993Y-127305220D01*
X52481880Y-126806560D01*
X52068137Y-126663207D01*
X51711124Y-126542686D01*
X51413963Y-126445981D01*
X51179779Y-126374080D01*
X51011693Y-126327966D01*
X50912829Y-126308624D01*
X50901459Y-126308055D01*
X50819174Y-126311913D01*
X50672039Y-126322664D01*
X50472948Y-126339206D01*
X50234795Y-126360439D01*
X49970473Y-126385264D01*
X49787766Y-126403099D01*
X48830382Y-126497988D01*
X48184579Y-126806984D01*
X47916235Y-126938581D01*
X47712577Y-127046194D01*
X47565586Y-127134503D01*
X47467238Y-127208188D01*
X47426623Y-127249234D01*
X47314471Y-127382487D01*
X46613272Y-127382487D01*
X46631411Y-127363799D01*
X46838032Y-127153928D01*
X47001703Y-126993481D01*
X47132111Y-126874111D01*
X47238943Y-126787475D01*
X47331888Y-126725225D01*
X47420632Y-126679018D01*
X47432488Y-126673700D01*
X47554530Y-126619049D01*
X47725844Y-126541304D01*
X47924830Y-126450312D01*
X48129888Y-126355921D01*
X48155132Y-126344253D01*
X48652190Y-126114392D01*
X49640055Y-126013659D01*
X49922814Y-125985622D01*
X50191662Y-125960443D01*
X50433067Y-125939277D01*
X50633499Y-125923274D01*
X50779425Y-125913590D01*
X50842843Y-125911178D01*
X50908490Y-125914523D01*
G37*
%TO.C,R7*%
X56420000Y-98960000D02*
X62960000Y-98960000D01*
X56420000Y-99290000D02*
X56420000Y-98960000D01*
X56420000Y-101370000D02*
X56420000Y-101700000D01*
X56420000Y-101700000D02*
X62960000Y-101700000D01*
X62960000Y-98960000D02*
X62960000Y-99290000D01*
X62960000Y-101700000D02*
X62960000Y-101370000D01*
%TO.C,Q3*%
X49740000Y-107430000D02*
X50800000Y-107430000D01*
X49740000Y-108490000D02*
X49740000Y-107430000D01*
X49740000Y-109490000D02*
X49740000Y-113550000D01*
X49740000Y-109490000D02*
X51860000Y-109490000D01*
X49740000Y-113550000D02*
X51860000Y-113550000D01*
X51860000Y-109490000D02*
X51860000Y-113550000D01*
%TO.C,M3*%
X43145000Y-109240000D02*
X43145000Y-111840000D01*
X43145000Y-109240000D02*
X45805000Y-109240000D01*
X43145000Y-111840000D02*
X45805000Y-111840000D01*
X44475000Y-106640000D02*
X45805000Y-106640000D01*
X45805000Y-106640000D02*
X45805000Y-107970000D01*
X45805000Y-109240000D02*
X45805000Y-111840000D01*
%TO.C,R4*%
X85820000Y-100430000D02*
X79280000Y-100430000D01*
X85820000Y-100100000D02*
X85820000Y-100430000D01*
X85820000Y-98020000D02*
X85820000Y-97690000D01*
X85820000Y-97690000D02*
X79280000Y-97690000D01*
X79280000Y-100430000D02*
X79280000Y-100100000D01*
X79280000Y-97690000D02*
X79280000Y-98020000D01*
%TO.C,R1*%
X56420000Y-83720000D02*
X62960000Y-83720000D01*
X56420000Y-84050000D02*
X56420000Y-83720000D01*
X56420000Y-86130000D02*
X56420000Y-86460000D01*
X56420000Y-86460000D02*
X62960000Y-86460000D01*
X62960000Y-83720000D02*
X62960000Y-84050000D01*
X62960000Y-86460000D02*
X62960000Y-86130000D01*
%TO.C,M1*%
X43120000Y-86360000D02*
X43120000Y-88960000D01*
X43120000Y-86360000D02*
X45780000Y-86360000D01*
X43120000Y-88960000D02*
X45780000Y-88960000D01*
X44450000Y-83760000D02*
X45780000Y-83760000D01*
X45780000Y-83760000D02*
X45780000Y-85090000D01*
X45780000Y-86360000D02*
X45780000Y-88960000D01*
%TO.C,LM7805*%
X86320000Y-111030000D02*
X86320000Y-115671000D01*
X86320000Y-111030000D02*
X96560000Y-111030000D01*
X86320000Y-112540000D02*
X96560000Y-112540000D01*
X86320000Y-115671000D02*
X96560000Y-115671000D01*
X89590000Y-111030000D02*
X89590000Y-112540000D01*
X93291000Y-111030000D02*
X93291000Y-112540000D01*
X96560000Y-111030000D02*
X96560000Y-115671000D01*
%TO.C,R8*%
X56420000Y-104040000D02*
X62960000Y-104040000D01*
X56420000Y-104370000D02*
X56420000Y-104040000D01*
X56420000Y-106450000D02*
X56420000Y-106780000D01*
X56420000Y-106780000D02*
X62960000Y-106780000D01*
X62960000Y-104040000D02*
X62960000Y-104370000D01*
X62960000Y-106780000D02*
X62960000Y-106450000D01*
%TO.C,R5*%
X79280000Y-92610000D02*
X85820000Y-92610000D01*
X79280000Y-92940000D02*
X79280000Y-92610000D01*
X79280000Y-95020000D02*
X79280000Y-95350000D01*
X79280000Y-95350000D02*
X85820000Y-95350000D01*
X85820000Y-92610000D02*
X85820000Y-92940000D01*
X85820000Y-95350000D02*
X85820000Y-95020000D01*
%TO.C,U2*%
X72566660Y-86520000D02*
X95566660Y-86520000D01*
X95566660Y-86520000D02*
X95566660Y-106520000D01*
X95566660Y-106520000D02*
X72566660Y-106520000D01*
X72566660Y-106520000D02*
X72566660Y-86520000D01*
X92972355Y-86665982D02*
X94972355Y-86665982D01*
X94972355Y-86665982D02*
X94972355Y-106304082D01*
X94972355Y-106304082D02*
X92972355Y-106304082D01*
X92972355Y-106304082D02*
X92972355Y-86665982D01*
%TO.C,R9*%
X56420000Y-109120000D02*
X62960000Y-109120000D01*
X56420000Y-109450000D02*
X56420000Y-109120000D01*
X56420000Y-111530000D02*
X56420000Y-111860000D01*
X56420000Y-111860000D02*
X62960000Y-111860000D01*
X62960000Y-109120000D02*
X62960000Y-109450000D01*
X62960000Y-111860000D02*
X62960000Y-111530000D01*
%TO.C,C2*%
X73620000Y-111660000D02*
X73620000Y-111975000D01*
X73620000Y-111660000D02*
X78860000Y-111660000D01*
X73620000Y-114085000D02*
X73620000Y-114400000D01*
X73620000Y-114400000D02*
X78860000Y-114400000D01*
X78860000Y-111660000D02*
X78860000Y-111975000D01*
X78860000Y-114085000D02*
X78860000Y-114400000D01*
%TO.C,Q2*%
X49740000Y-94730000D02*
X50800000Y-94730000D01*
X49740000Y-95790000D02*
X49740000Y-94730000D01*
X49740000Y-96790000D02*
X49740000Y-100850000D01*
X49740000Y-96790000D02*
X51860000Y-96790000D01*
X49740000Y-100850000D02*
X51860000Y-100850000D01*
X51860000Y-96790000D02*
X51860000Y-100850000D01*
%TO.C,J1*%
X45390000Y-119490000D02*
X45390000Y-121990000D01*
X45390000Y-121990000D02*
X47890000Y-121990000D01*
X45690000Y-117670000D02*
X45690000Y-121690000D01*
X45690000Y-119380000D02*
X46190000Y-119380000D01*
X45690000Y-120190000D02*
X46690000Y-120190000D01*
X45690000Y-121690000D02*
X53410000Y-121690000D01*
X46190000Y-118170000D02*
X52910000Y-118170000D01*
X46190000Y-119380000D02*
X46190000Y-118170000D01*
X46690000Y-120190000D02*
X46690000Y-121690000D01*
X52410000Y-120190000D02*
X52410000Y-121690000D01*
X52910000Y-118170000D02*
X52910000Y-119380000D01*
X52910000Y-119380000D02*
X53410000Y-119380000D01*
X53410000Y-117670000D02*
X45690000Y-117670000D01*
X53410000Y-120190000D02*
X52410000Y-120190000D01*
X53410000Y-121690000D02*
X53410000Y-117670000D01*
%TO.C,J2*%
X86030000Y-122030000D02*
X86030000Y-124530000D01*
X86030000Y-124530000D02*
X88530000Y-124530000D01*
X86330000Y-120210000D02*
X86330000Y-124230000D01*
X86330000Y-121920000D02*
X86830000Y-121920000D01*
X86330000Y-122730000D02*
X87330000Y-122730000D01*
X86330000Y-124230000D02*
X94050000Y-124230000D01*
X86830000Y-120710000D02*
X93550000Y-120710000D01*
X86830000Y-121920000D02*
X86830000Y-120710000D01*
X87330000Y-122730000D02*
X87330000Y-124230000D01*
X93050000Y-122730000D02*
X93050000Y-124230000D01*
X93550000Y-120710000D02*
X93550000Y-121920000D01*
X93550000Y-121920000D02*
X94050000Y-121920000D01*
X94050000Y-120210000D02*
X86330000Y-120210000D01*
X94050000Y-122730000D02*
X93050000Y-122730000D01*
X94050000Y-124230000D02*
X94050000Y-120210000D01*
%TD*%
M02*
