M48
; DRILL file {KiCad 7.0.6} date Sun Jul 23 20:47:25 2023
; FORMAT={-:-/ absolute / inch / decimal}
; #@! TF.CreationDate,2023-07-23T20:47:25-06:00
; #@! TF.GenerationSoftware,Kicad,Pcbnew,7.0.6
; #@! TF.FileFunction,Plated,1,2,PTH
FMAT,2
INCH
; #@! TA.AperFunction,Plated,PTH,ViaDrill
T1C0.0157
; #@! TA.AperFunction,Plated,PTH,ComponentDrill
T2C0.0315
; #@! TA.AperFunction,Plated,PTH,ComponentDrill
T3C0.0394
; #@! TA.AperFunction,Plated,PTH,ComponentDrill
T4C0.0433
%
G90
G05
T1
X2.75Y-2.725
X2.8Y-2.6187
X2.85Y-2.525
X2.95Y-2.875
X3.0455Y-2.025
X3.0705Y-1.9187
X3.125Y-1.825
X3.2Y-2.15
T2
X2.0Y-3.2713
X2.0Y-3.35
X2.0Y-3.4287
X2.0Y-3.7713
X2.0Y-3.85
X2.0Y-3.9287
X2.0Y-4.2713
X2.0Y-4.35
X2.0Y-4.4287
X2.2Y-3.35
X2.2Y-3.55
X2.2Y-3.75
X2.2Y-3.95
X2.2Y-4.15
X2.2Y-4.35
X2.25Y-4.7
X2.5Y-3.35
X2.5Y-3.55
X2.5Y-3.75
X2.5Y-3.95
X2.5Y-4.15
X2.5Y-4.35
X2.55Y-4.7
X2.9031Y-4.45
X2.9031Y-4.6406
X3.1Y-3.7
X3.1Y-3.9
X3.1Y-4.45
X3.1Y-4.6406
X3.4Y-3.7
X3.4Y-3.9
T3
X1.75Y-3.35
X1.75Y-3.45
X1.75Y-3.85
X1.75Y-3.95
X1.751Y-4.2508
X1.751Y-4.3508
X1.759Y-2.025
X1.759Y-2.125
X1.759Y-2.225
X1.759Y-2.325
X1.759Y-2.425
X1.759Y-2.525
X1.759Y-2.625
X1.759Y-2.725
X1.759Y-2.825
X1.759Y-2.925
X1.759Y-3.025
X1.759Y-3.125
X1.859Y-2.025
X1.859Y-2.125
X1.859Y-2.225
X1.859Y-2.325
X1.859Y-2.425
X1.859Y-2.525
X1.859Y-2.625
X1.859Y-2.725
X1.859Y-2.825
X1.859Y-2.925
X1.859Y-3.025
X1.859Y-3.125
X1.9016Y-4.7
X1.959Y-1.725
X1.959Y-1.825
X1.959Y-1.925
X1.959Y-2.025
X1.959Y-2.125
X1.959Y-2.225
X1.959Y-2.325
X1.959Y-2.425
X1.959Y-2.525
X1.959Y-2.625
X1.959Y-2.725
X1.959Y-2.825
X1.959Y-2.925
X1.959Y-3.025
X1.959Y-3.125
X2.0016Y-4.7
X2.059Y-1.725
X2.059Y-1.825
X2.059Y-1.925
X2.059Y-2.025
X2.059Y-2.125
X2.059Y-2.225
X2.059Y-2.325
X2.059Y-2.425
X2.059Y-2.525
X2.059Y-2.625
X2.059Y-2.725
X2.059Y-2.825
X2.059Y-2.925
X2.059Y-3.025
X2.059Y-3.125
X2.159Y-1.725
X2.159Y-1.825
X2.159Y-1.925
X2.159Y-2.025
X2.159Y-2.125
X2.159Y-2.225
X2.159Y-2.325
X2.159Y-2.425
X2.159Y-2.525
X2.159Y-2.625
X2.159Y-2.725
X2.159Y-2.825
X2.159Y-2.925
X2.159Y-3.025
X2.159Y-3.125
X2.259Y-1.725
X2.259Y-1.825
X2.259Y-1.925
X2.259Y-2.025
X2.259Y-2.125
X2.259Y-2.225
X2.259Y-2.325
X2.259Y-2.425
X2.259Y-2.525
X2.259Y-2.625
X2.259Y-2.725
X2.259Y-2.825
X2.259Y-2.925
X2.259Y-3.025
X2.259Y-3.125
X2.359Y-1.725
X2.359Y-1.825
X2.359Y-1.925
X2.359Y-2.025
X2.359Y-2.125
X2.359Y-2.225
X2.359Y-2.325
X2.359Y-2.425
X2.359Y-2.525
X2.359Y-2.625
X2.359Y-2.725
X2.359Y-2.825
X2.359Y-2.925
X2.359Y-3.025
X2.359Y-3.125
X2.459Y-1.725
X2.459Y-1.825
X2.459Y-1.925
X2.459Y-2.025
X2.459Y-2.125
X2.459Y-2.225
X2.459Y-2.325
X2.459Y-2.425
X2.459Y-2.525
X2.459Y-2.625
X2.459Y-2.725
X2.459Y-2.825
X2.459Y-2.925
X2.459Y-3.025
X2.459Y-3.125
X2.559Y-1.7187
X2.559Y-1.8187
X2.559Y-1.9187
X2.559Y-2.0187
X2.559Y-2.1187
X2.559Y-2.2187
X2.559Y-2.3187
X2.559Y-2.4187
X2.559Y-2.5187
X2.559Y-2.6187
X2.559Y-2.7187
X2.559Y-2.8187
X2.559Y-2.9187
X2.559Y-3.0187
X2.559Y-3.1187
X2.659Y-1.7187
X2.659Y-1.8187
X2.659Y-1.9187
X2.659Y-2.0187
X2.659Y-2.1187
X2.659Y-2.2187
X2.659Y-2.3187
X2.659Y-2.4187
X2.659Y-2.5187
X2.659Y-2.6187
X2.659Y-2.7187
X2.659Y-2.8187
X2.659Y-2.9187
X2.659Y-3.0187
X2.659Y-3.1187
X3.259Y-1.7187
X3.259Y-1.8187
X3.259Y-1.9187
X3.259Y-2.0187
X3.259Y-2.1187
X3.259Y-2.2187
X3.259Y-2.3187
X3.259Y-2.4187
X3.259Y-2.5187
X3.259Y-2.6187
X3.259Y-2.7187
X3.259Y-2.8187
X3.259Y-2.9187
X3.259Y-3.0187
X3.259Y-3.1187
X3.359Y-1.7187
X3.359Y-1.8187
X3.359Y-1.9187
X3.359Y-2.0187
X3.359Y-2.1187
X3.359Y-2.2187
X3.359Y-2.3187
X3.359Y-2.4187
X3.359Y-2.5187
X3.359Y-2.6187
X3.359Y-2.7187
X3.359Y-2.8187
X3.359Y-2.9187
X3.359Y-3.0187
X3.359Y-3.1187
X3.459Y-1.725
X3.459Y-1.825
X3.459Y-1.925
X3.459Y-2.025
X3.459Y-2.125
X3.459Y-2.225
X3.459Y-2.325
X3.459Y-2.425
X3.459Y-2.525
X3.459Y-2.625
X3.459Y-2.725
X3.459Y-2.825
X3.459Y-2.925
X3.459Y-3.025
X3.459Y-3.125
X3.5016Y-4.8
X3.559Y-2.025
X3.559Y-2.125
X3.559Y-2.225
X3.559Y-2.325
X3.559Y-2.425
X3.559Y-2.525
X3.559Y-2.625
X3.559Y-2.725
X3.559Y-2.825
X3.559Y-2.925
X3.559Y-3.025
X3.559Y-3.125
X3.6016Y-4.8
X3.659Y-2.025
X3.659Y-2.125
X3.659Y-2.225
X3.659Y-2.325
X3.659Y-2.425
X3.659Y-2.525
X3.659Y-2.625
X3.659Y-2.725
X3.659Y-2.825
X3.659Y-2.925
X3.659Y-3.025
X3.659Y-3.125
X3.7Y-3.4494
X3.7Y-3.5494
X3.7Y-3.6494
X3.7Y-3.7494
X3.7Y-3.8494
X3.7Y-3.9494
X3.7Y-4.0494
X3.7Y-4.1494
X3.759Y-2.025
X3.759Y-2.125
X3.759Y-2.225
X3.759Y-2.325
X3.759Y-2.425
X3.759Y-2.525
X3.759Y-2.625
X3.759Y-2.725
X3.759Y-2.825
X3.759Y-2.925
X3.759Y-3.025
X3.759Y-3.125
T4
X3.5Y-4.5
X3.6Y-4.5
X3.7Y-4.5
T0
M30
