%TF.GenerationSoftware,KiCad,Pcbnew,7.0.6*%
%TF.CreationDate,2023-07-23T20:47:22-06:00*%
%TF.ProjectId,Air,4169722e-6b69-4636-9164-5f7063625858,2*%
%TF.SameCoordinates,Original*%
%TF.FileFunction,Copper,L2,Bot*%
%TF.FilePolarity,Positive*%
%FSLAX46Y46*%
G04 Gerber Fmt 4.6, Leading zero omitted, Abs format (unit mm)*
G04 Created by KiCad (PCBNEW 7.0.6) date 2023-07-23 20:47:22*
%MOMM*%
%LPD*%
G01*
G04 APERTURE LIST*
G04 Aperture macros list*
%AMRoundRect*
0 Rectangle with rounded corners*
0 $1 Rounding radius*
0 $2 $3 $4 $5 $6 $7 $8 $9 X,Y pos of 4 corners*
0 Add a 4 corners polygon primitive as box body*
4,1,4,$2,$3,$4,$5,$6,$7,$8,$9,$2,$3,0*
0 Add four circle primitives for the rounded corners*
1,1,$1+$1,$2,$3*
1,1,$1+$1,$4,$5*
1,1,$1+$1,$6,$7*
1,1,$1+$1,$8,$9*
0 Add four rect primitives between the rounded corners*
20,1,$1+$1,$2,$3,$4,$5,0*
20,1,$1+$1,$4,$5,$6,$7,0*
20,1,$1+$1,$6,$7,$8,$9,0*
20,1,$1+$1,$8,$9,$2,$3,0*%
G04 Aperture macros list end*
%TA.AperFunction,ComponentPad*%
%ADD10O,1.600000X1.600000*%
%TD*%
%TA.AperFunction,ComponentPad*%
%ADD11R,1.600000X1.600000*%
%TD*%
%TA.AperFunction,ComponentPad*%
%ADD12C,1.600000*%
%TD*%
%TA.AperFunction,ComponentPad*%
%ADD13R,1.700000X1.700000*%
%TD*%
%TA.AperFunction,ComponentPad*%
%ADD14O,1.700000X1.700000*%
%TD*%
%TA.AperFunction,ComponentPad*%
%ADD15C,1.700000*%
%TD*%
%TA.AperFunction,ComponentPad*%
%ADD16R,1.350000X1.350000*%
%TD*%
%TA.AperFunction,ComponentPad*%
%ADD17O,1.350000X1.350000*%
%TD*%
%TA.AperFunction,ComponentPad*%
%ADD18R,1.905000X2.000000*%
%TD*%
%TA.AperFunction,ComponentPad*%
%ADD19O,1.905000X2.000000*%
%TD*%
%TA.AperFunction,ComponentPad*%
%ADD20RoundRect,0.400000X-0.400000X-0.450000X0.400000X-0.450000X0.400000X0.450000X-0.400000X0.450000X0*%
%TD*%
%TA.AperFunction,ComponentPad*%
%ADD21RoundRect,0.250000X-0.600000X-0.750000X0.600000X-0.750000X0.600000X0.750000X-0.600000X0.750000X0*%
%TD*%
%TA.AperFunction,ComponentPad*%
%ADD22O,1.700000X2.000000*%
%TD*%
%TA.AperFunction,ViaPad*%
%ADD23C,0.800000*%
%TD*%
%TA.AperFunction,Conductor*%
%ADD24C,0.300000*%
%TD*%
%TA.AperFunction,Conductor*%
%ADD25C,0.500000*%
%TD*%
G04 APERTURE END LIST*
D10*
%TO.P,A1,30,VIN*%
%TO.N,/VIN_5v*%
X64999765Y-79216152D03*
X67539765Y-79216152D03*
%TO.P,A1,29,GND*%
%TO.N,GND*%
X64999765Y-76676152D03*
X67539765Y-76676152D03*
%TO.P,A1,28,~{RESET}*%
%TO.N,unconnected-(A1-~{RESET}-Pad28)*%
X64999765Y-74136152D03*
X67539765Y-74136152D03*
%TO.P,A1,27,+5V*%
%TO.N,+5V*%
X64999765Y-71596152D03*
X67539765Y-71596152D03*
%TO.P,A1,26,A7*%
%TO.N,unconnected-(A1-A7-Pad26)*%
X64999765Y-69056152D03*
X67539765Y-69056152D03*
%TO.P,A1,25,A6*%
%TO.N,unconnected-(A1-A6-Pad25)*%
X64999765Y-66516152D03*
X67539765Y-66516152D03*
%TO.P,A1,24,A5*%
%TO.N,unconnected-(A1-A5-Pad24)*%
X64999765Y-63976152D03*
X67539765Y-63976152D03*
%TO.P,A1,23,A4*%
%TO.N,unconnected-(A1-A4-Pad23)*%
X64999765Y-61436152D03*
X67539765Y-61436152D03*
%TO.P,A1,22,A3*%
%TO.N,unconnected-(A1-A3-Pad22)*%
X64999765Y-58896152D03*
X67539765Y-58896152D03*
%TO.P,A1,21,A2*%
%TO.N,unconnected-(A1-A2-Pad21)*%
X64999765Y-56356152D03*
X67539765Y-56356152D03*
%TO.P,A1,20,A1*%
%TO.N,unconnected-(A1-A1-Pad20)*%
X64999765Y-53816152D03*
X67539765Y-53816152D03*
%TO.P,A1,19,A0*%
%TO.N,/A0_VBat*%
X64999765Y-51276152D03*
X67539765Y-51276152D03*
%TO.P,A1,18,AREF*%
%TO.N,unconnected-(A1-AREF-Pad18)*%
X64999765Y-48736152D03*
X67539765Y-48736152D03*
%TO.P,A1,17,3V3*%
%TO.N,unconnected-(A1-3V3-Pad17)*%
X64999765Y-46196152D03*
X67539765Y-46196152D03*
%TO.P,A1,16,D13*%
%TO.N,/D13_SCK*%
X64999765Y-43656152D03*
X67539765Y-43656152D03*
%TO.P,A1,15,D12*%
%TO.N,/D12_MISO*%
X82779765Y-43656152D03*
X85319765Y-43656152D03*
%TO.P,A1,14,D11*%
%TO.N,/D11_MOSI*%
X82779765Y-46196152D03*
X85319765Y-46196152D03*
%TO.P,A1,13,D10*%
%TO.N,/D10_CSN*%
X82779765Y-48736152D03*
X85319765Y-48736152D03*
%TO.P,A1,12,D9*%
%TO.N,/D9_CE*%
X82779765Y-51276152D03*
X85319765Y-51276152D03*
%TO.P,A1,11,D8*%
%TO.N,/D8_IRQ*%
X82779765Y-53816152D03*
X85319765Y-53816152D03*
%TO.P,A1,10,D7*%
%TO.N,unconnected-(A1-D7-Pad10)*%
X82779765Y-56356152D03*
X85319765Y-56356152D03*
%TO.P,A1,9,D6*%
%TO.N,unconnected-(A1-D6-Pad9)*%
X82779765Y-58896152D03*
X85319765Y-58896152D03*
%TO.P,A1,8,D5*%
%TO.N,unconnected-(A1-D5-Pad8)*%
X82779765Y-61436152D03*
X85319765Y-61436152D03*
%TO.P,A1,7,D4*%
%TO.N,/D4_F3*%
X82779765Y-63976152D03*
X85319765Y-63976152D03*
%TO.P,A1,6,D3*%
%TO.N,/D3_F2*%
X82779765Y-66516152D03*
X85319765Y-66516152D03*
%TO.P,A1,5,D2*%
%TO.N,/D2_F1*%
X82779765Y-69056152D03*
X85319765Y-69056152D03*
%TO.P,A1,4,GND*%
%TO.N,GND*%
X82779765Y-71596152D03*
X85319765Y-71596152D03*
%TO.P,A1,3,~{RESET}*%
%TO.N,unconnected-(A1-~{RESET}-Pad3)*%
X82779765Y-74136152D03*
X85319765Y-74136152D03*
%TO.P,A1,2,D0/RX*%
%TO.N,unconnected-(A1-D0{slash}RX-Pad2)*%
X82779765Y-76676152D03*
X85319765Y-76676152D03*
D11*
%TO.P,A1,1,D1/TX*%
%TO.N,unconnected-(A1-D1{slash}TX-Pad1)*%
X82779765Y-79216152D03*
X85319765Y-79216152D03*
%TD*%
D12*
%TO.P,C1,1*%
%TO.N,+12V*%
X73740000Y-117870000D03*
%TO.P,C1,2*%
%TO.N,GND*%
X78740000Y-117870000D03*
%TD*%
%TO.P,R3,1*%
%TO.N,/D3_F2*%
X55880000Y-95250000D03*
D10*
%TO.P,R3,2*%
%TO.N,GND*%
X63500000Y-95250000D03*
%TD*%
D13*
%TO.P,M2,1,+*%
%TO.N,+12V*%
X44450000Y-97790000D03*
D14*
%TO.P,M2,2,-*%
%TO.N,Net-(M2--)*%
X44450000Y-100330000D03*
%TD*%
D15*
%TO.P,REF\u002A\u002A,1*%
%TO.N,N/C*%
X52299765Y-43815000D03*
D14*
%TO.P,REF\u002A\u002A,2*%
X52299765Y-46355000D03*
%TO.P,REF\u002A\u002A,3*%
X52299765Y-48895000D03*
%TO.P,REF\u002A\u002A,4*%
X52299765Y-51435000D03*
%TO.P,REF\u002A\u002A,5*%
X52299765Y-53975000D03*
%TO.P,REF\u002A\u002A,6*%
X52299765Y-56515000D03*
%TO.P,REF\u002A\u002A,7*%
X52299765Y-59055000D03*
%TO.P,REF\u002A\u002A,8*%
X52299765Y-61595000D03*
%TO.P,REF\u002A\u002A,9*%
X52299765Y-64135000D03*
%TO.P,REF\u002A\u002A,10*%
X52299765Y-66675000D03*
%TO.P,REF\u002A\u002A,11*%
X52299765Y-69215000D03*
%TO.P,REF\u002A\u002A,12*%
X52299765Y-71755000D03*
%TO.P,REF\u002A\u002A,13*%
X52299765Y-74295000D03*
%TO.P,REF\u002A\u002A,14*%
X52299765Y-76835000D03*
%TO.P,REF\u002A\u002A,15*%
X52299765Y-79375000D03*
%TD*%
D12*
%TO.P,R2,1*%
%TO.N,Net-(Q1-E)*%
X55880000Y-90170000D03*
D10*
%TO.P,R2,2*%
%TO.N,GND*%
X63500000Y-90170000D03*
%TD*%
D16*
%TO.P,Q1,1,C*%
%TO.N,Net-(M1--)*%
X50800000Y-83090000D03*
D17*
%TO.P,Q1,2,B*%
%TO.N,/D2_F1*%
X50800000Y-85090000D03*
%TO.P,Q1,3,E*%
%TO.N,Net-(Q1-E)*%
X50800000Y-87090000D03*
%TD*%
D15*
%TO.P,REF\u002A\u002A,1*%
%TO.N,N/C*%
X87859765Y-43815000D03*
D14*
%TO.P,REF\u002A\u002A,2*%
X87859765Y-46355000D03*
%TO.P,REF\u002A\u002A,3*%
X87859765Y-48895000D03*
%TO.P,REF\u002A\u002A,4*%
X87859765Y-51435000D03*
%TO.P,REF\u002A\u002A,5*%
X87859765Y-53975000D03*
%TO.P,REF\u002A\u002A,6*%
X87859765Y-56515000D03*
%TO.P,REF\u002A\u002A,7*%
X87859765Y-59055000D03*
%TO.P,REF\u002A\u002A,8*%
X87859765Y-61595000D03*
%TO.P,REF\u002A\u002A,9*%
X87859765Y-64135000D03*
%TO.P,REF\u002A\u002A,10*%
X87859765Y-66675000D03*
%TO.P,REF\u002A\u002A,11*%
X87859765Y-69215000D03*
%TO.P,REF\u002A\u002A,12*%
X87859765Y-71755000D03*
%TO.P,REF\u002A\u002A,13*%
X87859765Y-74295000D03*
%TO.P,REF\u002A\u002A,14*%
X87859765Y-76835000D03*
%TO.P,REF\u002A\u002A,15*%
X87859765Y-79375000D03*
%TD*%
D12*
%TO.P,R6,1*%
%TO.N,Net-(J1-Pin_1)*%
X57150000Y-119380000D03*
D10*
%TO.P,R6,2*%
%TO.N,GND*%
X64770000Y-119380000D03*
%TD*%
D15*
%TO.P,REF\u002A\u002A,1*%
%TO.N,N/C*%
X95479765Y-51435000D03*
D14*
%TO.P,REF\u002A\u002A,2*%
X95479765Y-53975000D03*
%TO.P,REF\u002A\u002A,3*%
X95479765Y-56515000D03*
%TO.P,REF\u002A\u002A,4*%
X95479765Y-59055000D03*
%TO.P,REF\u002A\u002A,5*%
X95479765Y-61595000D03*
%TO.P,REF\u002A\u002A,6*%
X95479765Y-64135000D03*
%TO.P,REF\u002A\u002A,7*%
X95479765Y-66675000D03*
%TO.P,REF\u002A\u002A,8*%
X95479765Y-69215000D03*
%TO.P,REF\u002A\u002A,9*%
X95479765Y-71755000D03*
%TO.P,REF\u002A\u002A,10*%
X95479765Y-74295000D03*
%TO.P,REF\u002A\u002A,11*%
X95479765Y-76835000D03*
%TO.P,REF\u002A\u002A,12*%
X95479765Y-79375000D03*
%TD*%
D12*
%TO.P,R7,1*%
%TO.N,Net-(Q2-E)*%
X55880000Y-100330000D03*
D10*
%TO.P,R7,2*%
%TO.N,GND*%
X63500000Y-100330000D03*
%TD*%
D16*
%TO.P,Q3,1,C*%
%TO.N,Net-(M3--)*%
X50800000Y-108490000D03*
D17*
%TO.P,Q3,2,B*%
%TO.N,/D4_F3*%
X50800000Y-110490000D03*
%TO.P,Q3,3,E*%
%TO.N,Net-(Q3-E)*%
X50800000Y-112490000D03*
%TD*%
D15*
%TO.P,REF\u002A\u002A,1*%
%TO.N,N/C*%
X92939765Y-51435000D03*
D14*
%TO.P,REF\u002A\u002A,2*%
X92939765Y-53975000D03*
%TO.P,REF\u002A\u002A,3*%
X92939765Y-56515000D03*
%TO.P,REF\u002A\u002A,4*%
X92939765Y-59055000D03*
%TO.P,REF\u002A\u002A,5*%
X92939765Y-61595000D03*
%TO.P,REF\u002A\u002A,6*%
X92939765Y-64135000D03*
%TO.P,REF\u002A\u002A,7*%
X92939765Y-66675000D03*
%TO.P,REF\u002A\u002A,8*%
X92939765Y-69215000D03*
%TO.P,REF\u002A\u002A,9*%
X92939765Y-71755000D03*
%TO.P,REF\u002A\u002A,10*%
X92939765Y-74295000D03*
%TO.P,REF\u002A\u002A,11*%
X92939765Y-76835000D03*
%TO.P,REF\u002A\u002A,12*%
X92939765Y-79375000D03*
%TD*%
D15*
%TO.P,REF\u002A\u002A,1*%
%TO.N,N/C*%
X54839765Y-43815000D03*
D14*
%TO.P,REF\u002A\u002A,2*%
X54839765Y-46355000D03*
%TO.P,REF\u002A\u002A,3*%
X54839765Y-48895000D03*
%TO.P,REF\u002A\u002A,4*%
X54839765Y-51435000D03*
%TO.P,REF\u002A\u002A,5*%
X54839765Y-53975000D03*
%TO.P,REF\u002A\u002A,6*%
X54839765Y-56515000D03*
%TO.P,REF\u002A\u002A,7*%
X54839765Y-59055000D03*
%TO.P,REF\u002A\u002A,8*%
X54839765Y-61595000D03*
%TO.P,REF\u002A\u002A,9*%
X54839765Y-64135000D03*
%TO.P,REF\u002A\u002A,10*%
X54839765Y-66675000D03*
%TO.P,REF\u002A\u002A,11*%
X54839765Y-69215000D03*
%TO.P,REF\u002A\u002A,12*%
X54839765Y-71755000D03*
%TO.P,REF\u002A\u002A,13*%
X54839765Y-74295000D03*
%TO.P,REF\u002A\u002A,14*%
X54839765Y-76835000D03*
%TO.P,REF\u002A\u002A,15*%
X54839765Y-79375000D03*
%TD*%
D15*
%TO.P,REF\u002A\u002A,1*%
%TO.N,N/C*%
X62459765Y-43815000D03*
D14*
%TO.P,REF\u002A\u002A,2*%
X62459765Y-46355000D03*
%TO.P,REF\u002A\u002A,3*%
X62459765Y-48895000D03*
%TO.P,REF\u002A\u002A,4*%
X62459765Y-51435000D03*
%TO.P,REF\u002A\u002A,5*%
X62459765Y-53975000D03*
%TO.P,REF\u002A\u002A,6*%
X62459765Y-56515000D03*
%TO.P,REF\u002A\u002A,7*%
X62459765Y-59055000D03*
%TO.P,REF\u002A\u002A,8*%
X62459765Y-61595000D03*
%TO.P,REF\u002A\u002A,9*%
X62459765Y-64135000D03*
%TO.P,REF\u002A\u002A,10*%
X62459765Y-66675000D03*
%TO.P,REF\u002A\u002A,11*%
X62459765Y-69215000D03*
%TO.P,REF\u002A\u002A,12*%
X62459765Y-71755000D03*
%TO.P,REF\u002A\u002A,13*%
X62459765Y-74295000D03*
%TO.P,REF\u002A\u002A,14*%
X62459765Y-76835000D03*
%TO.P,REF\u002A\u002A,15*%
X62459765Y-79375000D03*
%TD*%
D15*
%TO.P,REF\u002A\u002A,1*%
%TO.N,N/C*%
X44679765Y-51435000D03*
D14*
%TO.P,REF\u002A\u002A,2*%
X44679765Y-53975000D03*
%TO.P,REF\u002A\u002A,3*%
X44679765Y-56515000D03*
%TO.P,REF\u002A\u002A,4*%
X44679765Y-59055000D03*
%TO.P,REF\u002A\u002A,5*%
X44679765Y-61595000D03*
%TO.P,REF\u002A\u002A,6*%
X44679765Y-64135000D03*
%TO.P,REF\u002A\u002A,7*%
X44679765Y-66675000D03*
%TO.P,REF\u002A\u002A,8*%
X44679765Y-69215000D03*
%TO.P,REF\u002A\u002A,9*%
X44679765Y-71755000D03*
%TO.P,REF\u002A\u002A,10*%
X44679765Y-74295000D03*
%TO.P,REF\u002A\u002A,11*%
X44679765Y-76835000D03*
%TO.P,REF\u002A\u002A,12*%
X44679765Y-79375000D03*
%TD*%
D13*
%TO.P,M3,1,+*%
%TO.N,+12V*%
X44475000Y-107970000D03*
D14*
%TO.P,M3,2,-*%
%TO.N,Net-(M3--)*%
X44475000Y-110510000D03*
%TD*%
D15*
%TO.P,REF\u002A\u002A,1*%
%TO.N,N/C*%
X47219765Y-51435000D03*
D14*
%TO.P,REF\u002A\u002A,2*%
X47219765Y-53975000D03*
%TO.P,REF\u002A\u002A,3*%
X47219765Y-56515000D03*
%TO.P,REF\u002A\u002A,4*%
X47219765Y-59055000D03*
%TO.P,REF\u002A\u002A,5*%
X47219765Y-61595000D03*
%TO.P,REF\u002A\u002A,6*%
X47219765Y-64135000D03*
%TO.P,REF\u002A\u002A,7*%
X47219765Y-66675000D03*
%TO.P,REF\u002A\u002A,8*%
X47219765Y-69215000D03*
%TO.P,REF\u002A\u002A,9*%
X47219765Y-71755000D03*
%TO.P,REF\u002A\u002A,10*%
X47219765Y-74295000D03*
%TO.P,REF\u002A\u002A,11*%
X47219765Y-76835000D03*
%TO.P,REF\u002A\u002A,12*%
X47219765Y-79375000D03*
%TD*%
D12*
%TO.P,R4,1*%
%TO.N,+12V*%
X86360000Y-99060000D03*
D10*
%TO.P,R4,2*%
%TO.N,/A0_VBat*%
X78740000Y-99060000D03*
%TD*%
D12*
%TO.P,R1,1*%
%TO.N,/D2_F1*%
X55880000Y-85090000D03*
D10*
%TO.P,R1,2*%
%TO.N,GND*%
X63500000Y-85090000D03*
%TD*%
D13*
%TO.P,M1,1,+*%
%TO.N,+12V*%
X44450000Y-85090000D03*
D14*
%TO.P,M1,2,-*%
%TO.N,Net-(M1--)*%
X44450000Y-87630000D03*
%TD*%
D18*
%TO.P,LM7805,1,VI*%
%TO.N,+12V*%
X88900000Y-114300000D03*
D19*
%TO.P,LM7805,2,GND*%
%TO.N,GND*%
X91440000Y-114300000D03*
%TO.P,LM7805,3,VO*%
%TO.N,/VIN_5v*%
X93980000Y-114300000D03*
%TD*%
D12*
%TO.P,R8,1*%
%TO.N,/D4_F3*%
X55880000Y-105410000D03*
D10*
%TO.P,R8,2*%
%TO.N,GND*%
X63500000Y-105410000D03*
%TD*%
D12*
%TO.P,R5,1*%
%TO.N,/A0_VBat*%
X78740000Y-93980000D03*
D10*
%TO.P,R5,2*%
%TO.N,GND*%
X86360000Y-93980000D03*
%TD*%
D15*
%TO.P,REF\u002A\u002A,1*%
%TO.N,N/C*%
X57379765Y-43815000D03*
D14*
%TO.P,REF\u002A\u002A,2*%
X57379765Y-46355000D03*
%TO.P,REF\u002A\u002A,3*%
X57379765Y-48895000D03*
%TO.P,REF\u002A\u002A,4*%
X57379765Y-51435000D03*
%TO.P,REF\u002A\u002A,5*%
X57379765Y-53975000D03*
%TO.P,REF\u002A\u002A,6*%
X57379765Y-56515000D03*
%TO.P,REF\u002A\u002A,7*%
X57379765Y-59055000D03*
%TO.P,REF\u002A\u002A,8*%
X57379765Y-61595000D03*
%TO.P,REF\u002A\u002A,9*%
X57379765Y-64135000D03*
%TO.P,REF\u002A\u002A,10*%
X57379765Y-66675000D03*
%TO.P,REF\u002A\u002A,11*%
X57379765Y-69215000D03*
%TO.P,REF\u002A\u002A,12*%
X57379765Y-71755000D03*
%TO.P,REF\u002A\u002A,13*%
X57379765Y-74295000D03*
%TO.P,REF\u002A\u002A,14*%
X57379765Y-76835000D03*
%TO.P,REF\u002A\u002A,15*%
X57379765Y-79375000D03*
%TD*%
D20*
%TO.P,U2,1,GND*%
%TO.N,GND*%
X93980000Y-87614119D03*
D12*
%TO.P,U2,2,IRQ*%
%TO.N,/D8_IRQ*%
X93980000Y-90154119D03*
%TO.P,U2,3,MISO*%
%TO.N,/D12_MISO*%
X93980000Y-92694119D03*
%TO.P,U2,4,MOSI*%
%TO.N,/D11_MOSI*%
X93980000Y-95234119D03*
%TO.P,U2,5,SCK*%
%TO.N,/D13_SCK*%
X93980000Y-97774119D03*
%TO.P,U2,6,CSN*%
%TO.N,/D10_CSN*%
X93980000Y-100314119D03*
%TO.P,U2,7,CE*%
%TO.N,/D9_CE*%
X93980000Y-102854119D03*
%TO.P,U2,8,VCC*%
%TO.N,+5V*%
X93980000Y-105394119D03*
%TD*%
%TO.P,R9,1*%
%TO.N,Net-(Q3-E)*%
X55880000Y-110490000D03*
D10*
%TO.P,R9,2*%
%TO.N,GND*%
X63500000Y-110490000D03*
%TD*%
D12*
%TO.P,C2,1*%
%TO.N,/VIN_5v*%
X73740000Y-113030000D03*
%TO.P,C2,2*%
%TO.N,GND*%
X78740000Y-113030000D03*
%TD*%
D16*
%TO.P,Q2,1,C*%
%TO.N,Net-(M2--)*%
X50800000Y-95790000D03*
D17*
%TO.P,Q2,2,B*%
%TO.N,/D3_F2*%
X50800000Y-97790000D03*
%TO.P,Q2,3,E*%
%TO.N,Net-(Q2-E)*%
X50800000Y-99790000D03*
%TD*%
D15*
%TO.P,REF\u002A\u002A,1*%
%TO.N,N/C*%
X90399765Y-51435000D03*
D14*
%TO.P,REF\u002A\u002A,2*%
X90399765Y-53975000D03*
%TO.P,REF\u002A\u002A,3*%
X90399765Y-56515000D03*
%TO.P,REF\u002A\u002A,4*%
X90399765Y-59055000D03*
%TO.P,REF\u002A\u002A,5*%
X90399765Y-61595000D03*
%TO.P,REF\u002A\u002A,6*%
X90399765Y-64135000D03*
%TO.P,REF\u002A\u002A,7*%
X90399765Y-66675000D03*
%TO.P,REF\u002A\u002A,8*%
X90399765Y-69215000D03*
%TO.P,REF\u002A\u002A,9*%
X90399765Y-71755000D03*
%TO.P,REF\u002A\u002A,10*%
X90399765Y-74295000D03*
%TO.P,REF\u002A\u002A,11*%
X90399765Y-76835000D03*
%TO.P,REF\u002A\u002A,12*%
X90399765Y-79375000D03*
%TD*%
D15*
%TO.P,REF\u002A\u002A,1*%
%TO.N,N/C*%
X59919765Y-43815000D03*
D14*
%TO.P,REF\u002A\u002A,2*%
X59919765Y-46355000D03*
%TO.P,REF\u002A\u002A,3*%
X59919765Y-48895000D03*
%TO.P,REF\u002A\u002A,4*%
X59919765Y-51435000D03*
%TO.P,REF\u002A\u002A,5*%
X59919765Y-53975000D03*
%TO.P,REF\u002A\u002A,6*%
X59919765Y-56515000D03*
%TO.P,REF\u002A\u002A,7*%
X59919765Y-59055000D03*
%TO.P,REF\u002A\u002A,8*%
X59919765Y-61595000D03*
%TO.P,REF\u002A\u002A,9*%
X59919765Y-64135000D03*
%TO.P,REF\u002A\u002A,10*%
X59919765Y-66675000D03*
%TO.P,REF\u002A\u002A,11*%
X59919765Y-69215000D03*
%TO.P,REF\u002A\u002A,12*%
X59919765Y-71755000D03*
%TO.P,REF\u002A\u002A,13*%
X59919765Y-74295000D03*
%TO.P,REF\u002A\u002A,14*%
X59919765Y-76835000D03*
%TO.P,REF\u002A\u002A,15*%
X59919765Y-79375000D03*
%TD*%
D21*
%TO.P,J1,1,Pin_1*%
%TO.N,Net-(J1-Pin_1)*%
X48300000Y-119380000D03*
D22*
%TO.P,J1,2,Pin_2*%
%TO.N,+12V*%
X50840000Y-119380000D03*
%TD*%
D15*
%TO.P,REF\u002A\u002A,1*%
%TO.N,N/C*%
X49759765Y-43815000D03*
D14*
%TO.P,REF\u002A\u002A,2*%
X49759765Y-46355000D03*
%TO.P,REF\u002A\u002A,3*%
X49759765Y-48895000D03*
%TO.P,REF\u002A\u002A,4*%
X49759765Y-51435000D03*
%TO.P,REF\u002A\u002A,5*%
X49759765Y-53975000D03*
%TO.P,REF\u002A\u002A,6*%
X49759765Y-56515000D03*
%TO.P,REF\u002A\u002A,7*%
X49759765Y-59055000D03*
%TO.P,REF\u002A\u002A,8*%
X49759765Y-61595000D03*
%TO.P,REF\u002A\u002A,9*%
X49759765Y-64135000D03*
%TO.P,REF\u002A\u002A,10*%
X49759765Y-66675000D03*
%TO.P,REF\u002A\u002A,11*%
X49759765Y-69215000D03*
%TO.P,REF\u002A\u002A,12*%
X49759765Y-71755000D03*
%TO.P,REF\u002A\u002A,13*%
X49759765Y-74295000D03*
%TO.P,REF\u002A\u002A,14*%
X49759765Y-76835000D03*
%TO.P,REF\u002A\u002A,15*%
X49759765Y-79375000D03*
%TD*%
D21*
%TO.P,J2,1,Pin_1*%
%TO.N,+12V*%
X88940000Y-121920000D03*
D22*
%TO.P,J2,2,Pin_2*%
%TO.N,GND*%
X91480000Y-121920000D03*
%TD*%
D23*
%TO.N,+5V*%
X74930000Y-73025000D03*
%TO.N,/D2_F1*%
X69850000Y-69215000D03*
%TO.N,/D3_F2*%
X71120000Y-66516152D03*
%TO.N,/D4_F3*%
X72390000Y-64135000D03*
%TO.N,/D8_IRQ*%
X81280000Y-54610000D03*
%TO.N,/D9_CE*%
X77355500Y-51435000D03*
%TO.N,/D10_CSN*%
X77990500Y-48736152D03*
%TO.N,/D11_MOSI*%
X79375000Y-46355000D03*
%TD*%
D24*
%TO.N,unconnected-(A1-D1{slash}TX-Pad1)*%
X82779765Y-79216152D02*
X85319765Y-79216152D01*
%TO.N,unconnected-(A1-D0{slash}RX-Pad2)*%
X82779765Y-76676152D02*
X85319765Y-76676152D01*
%TO.N,unconnected-(A1-~{RESET}-Pad3)*%
X85319765Y-74136152D02*
X82779765Y-74136152D01*
%TO.N,GND*%
X82779765Y-71596152D02*
X77699765Y-76676152D01*
X87614119Y-93980000D02*
X93980000Y-87614119D01*
X77699765Y-76676152D02*
X67539765Y-76676152D01*
X86360000Y-93980000D02*
X87614119Y-93980000D01*
D25*
X64770000Y-119380000D02*
X64770000Y-111760000D01*
D24*
X82779765Y-71596152D02*
X85319765Y-71596152D01*
D25*
X64770000Y-111760000D02*
X63500000Y-110490000D01*
D24*
X64770000Y-119380000D02*
X77230000Y-119380000D01*
X67539765Y-76676152D02*
X64999765Y-76676152D01*
D25*
X63500000Y-110490000D02*
X63500000Y-85090000D01*
D24*
X77230000Y-119380000D02*
X78740000Y-117870000D01*
%TO.N,unconnected-(A1-D5-Pad8)*%
X82779765Y-61436152D02*
X85319765Y-61436152D01*
%TO.N,unconnected-(A1-D6-Pad9)*%
X85319765Y-58896152D02*
X82779765Y-58896152D01*
%TO.N,unconnected-(A1-D7-Pad10)*%
X82779765Y-56356152D02*
X85319765Y-56356152D01*
%TO.N,unconnected-(A1-3V3-Pad17)*%
X67539765Y-46196152D02*
X64999765Y-46196152D01*
%TO.N,unconnected-(A1-AREF-Pad18)*%
X67539765Y-48736152D02*
X64999765Y-48736152D01*
%TO.N,unconnected-(A1-A1-Pad20)*%
X67539765Y-53816152D02*
X64999765Y-53816152D01*
%TO.N,unconnected-(A1-A2-Pad21)*%
X67539765Y-56356152D02*
X64999765Y-56356152D01*
%TO.N,unconnected-(A1-A3-Pad22)*%
X67539765Y-58896152D02*
X64999765Y-58896152D01*
%TO.N,unconnected-(A1-A4-Pad23)*%
X67539765Y-61436152D02*
X64999765Y-61436152D01*
%TO.N,unconnected-(A1-A5-Pad24)*%
X67539765Y-63976152D02*
X64999765Y-63976152D01*
%TO.N,unconnected-(A1-A6-Pad25)*%
X67539765Y-66516152D02*
X64999765Y-66516152D01*
%TO.N,unconnected-(A1-A7-Pad26)*%
X67539765Y-69056152D02*
X64999765Y-69056152D01*
%TO.N,+5V*%
X68272038Y-72328425D02*
X67539765Y-71596152D01*
X74930000Y-73025000D02*
X74233425Y-72328425D01*
X67539765Y-71596152D02*
X64999765Y-71596152D01*
X74233425Y-72328425D02*
X68272038Y-72328425D01*
%TO.N,unconnected-(A1-~{RESET}-Pad28)*%
X67539765Y-74136152D02*
X64999765Y-74136152D01*
D25*
%TO.N,+12V*%
X74990000Y-116620000D02*
X86580000Y-116620000D01*
X86580000Y-116620000D02*
X88900000Y-114300000D01*
X73740000Y-117870000D02*
X74990000Y-116620000D01*
%TO.N,Net-(M1--)*%
X44450000Y-87630000D02*
X48990000Y-83090000D01*
X48990000Y-83090000D02*
X50800000Y-83090000D01*
%TO.N,Net-(M2--)*%
X44450000Y-100330000D02*
X48990000Y-95790000D01*
X48990000Y-95790000D02*
X50800000Y-95790000D01*
%TO.N,Net-(M3--)*%
X48800000Y-110490000D02*
X44495000Y-110490000D01*
X44495000Y-110490000D02*
X44475000Y-110510000D01*
X48800000Y-110490000D02*
X50800000Y-108490000D01*
D24*
%TO.N,/D2_F1*%
X82779765Y-69056152D02*
X85319765Y-69056152D01*
X69850000Y-69215000D02*
X70008848Y-69056152D01*
D25*
X55880000Y-85090000D02*
X50800000Y-85090000D01*
D24*
X70008848Y-69056152D02*
X82779765Y-69056152D01*
%TO.N,/D3_F2*%
X82779765Y-66516152D02*
X85319765Y-66516152D01*
D25*
X53340000Y-97790000D02*
X55880000Y-95250000D01*
D24*
X71120000Y-66516152D02*
X82779765Y-66516152D01*
D25*
X50800000Y-97790000D02*
X53340000Y-97790000D01*
D24*
%TO.N,/D4_F3*%
X72548848Y-63976152D02*
X82779765Y-63976152D01*
X82779765Y-63976152D02*
X85319765Y-63976152D01*
X72390000Y-64135000D02*
X72548848Y-63976152D01*
D25*
X50800000Y-110490000D02*
X55880000Y-105410000D01*
D24*
%TO.N,/D8_IRQ*%
X82779765Y-53816152D02*
X82073848Y-53816152D01*
X82073848Y-53816152D02*
X81280000Y-54610000D01*
X85319765Y-53816152D02*
X82779765Y-53816152D01*
%TO.N,/D9_CE*%
X77514348Y-51276152D02*
X82779765Y-51276152D01*
X82779765Y-51276152D02*
X85319765Y-51276152D01*
X77355500Y-51435000D02*
X77514348Y-51276152D01*
%TO.N,/D10_CSN*%
X85319765Y-48736152D02*
X82779765Y-48736152D01*
X77990500Y-48736152D02*
X82779765Y-48736152D01*
%TO.N,/D11_MOSI*%
X82779765Y-46196152D02*
X79533848Y-46196152D01*
X79533848Y-46196152D02*
X79375000Y-46355000D01*
X82779765Y-46196152D02*
X85319765Y-46196152D01*
%TO.N,/D12_MISO*%
X85319765Y-43656152D02*
X82779765Y-43656152D01*
%TO.N,/D13_SCK*%
X67539765Y-43656152D02*
X64999765Y-43656152D01*
D25*
%TO.N,/A0_VBat*%
X78740000Y-93980000D02*
X78740000Y-99060000D01*
D24*
X67539765Y-51276152D02*
X64999765Y-51276152D01*
D25*
%TO.N,/VIN_5v*%
X67539765Y-108099765D02*
X73700000Y-114260000D01*
X73740000Y-113030000D02*
X73740000Y-114220000D01*
D24*
X67539765Y-79216152D02*
X64999765Y-79216152D01*
D25*
X67539765Y-79216152D02*
X67539765Y-108099765D01*
%TO.N,Net-(Q1-E)*%
X50800000Y-87090000D02*
X53880000Y-90170000D01*
X53880000Y-90170000D02*
X55880000Y-90170000D01*
D24*
%TO.N,Net-(J1-Pin_1)*%
X57150000Y-119380000D02*
X55800000Y-120730000D01*
X49650000Y-120730000D02*
X48300000Y-119380000D01*
X55800000Y-120730000D02*
X49650000Y-120730000D01*
D25*
%TO.N,Net-(Q2-E)*%
X55340000Y-99790000D02*
X55880000Y-100330000D01*
X50800000Y-99790000D02*
X55340000Y-99790000D01*
%TO.N,Net-(Q3-E)*%
X50800000Y-112490000D02*
X53880000Y-112490000D01*
X53880000Y-112490000D02*
X55880000Y-110490000D01*
%TD*%
M02*
