%TF.GenerationSoftware,KiCad,Pcbnew,7.0.6*%
%TF.CreationDate,2023-07-23T20:47:22-06:00*%
%TF.ProjectId,Air,4169722e-6b69-4636-9164-5f7063625858,2*%
%TF.SameCoordinates,Original*%
%TF.FileFunction,Soldermask,Bot*%
%TF.FilePolarity,Negative*%
%FSLAX46Y46*%
G04 Gerber Fmt 4.6, Leading zero omitted, Abs format (unit mm)*
G04 Created by KiCad (PCBNEW 7.0.6) date 2023-07-23 20:47:22*
%MOMM*%
%LPD*%
G01*
G04 APERTURE LIST*
G04 Aperture macros list*
%AMRoundRect*
0 Rectangle with rounded corners*
0 $1 Rounding radius*
0 $2 $3 $4 $5 $6 $7 $8 $9 X,Y pos of 4 corners*
0 Add a 4 corners polygon primitive as box body*
4,1,4,$2,$3,$4,$5,$6,$7,$8,$9,$2,$3,0*
0 Add four circle primitives for the rounded corners*
1,1,$1+$1,$2,$3*
1,1,$1+$1,$4,$5*
1,1,$1+$1,$6,$7*
1,1,$1+$1,$8,$9*
0 Add four rect primitives between the rounded corners*
20,1,$1+$1,$2,$3,$4,$5,0*
20,1,$1+$1,$4,$5,$6,$7,0*
20,1,$1+$1,$6,$7,$8,$9,0*
20,1,$1+$1,$8,$9,$2,$3,0*%
G04 Aperture macros list end*
%ADD10O,1.600000X1.600000*%
%ADD11R,1.600000X1.600000*%
%ADD12C,1.600000*%
%ADD13R,1.700000X1.700000*%
%ADD14O,1.700000X1.700000*%
%ADD15C,1.700000*%
%ADD16R,1.350000X1.350000*%
%ADD17O,1.350000X1.350000*%
%ADD18R,1.905000X2.000000*%
%ADD19O,1.905000X2.000000*%
%ADD20RoundRect,0.400000X-0.400000X-0.450000X0.400000X-0.450000X0.400000X0.450000X-0.400000X0.450000X0*%
%ADD21RoundRect,0.250000X-0.600000X-0.750000X0.600000X-0.750000X0.600000X0.750000X-0.600000X0.750000X0*%
%ADD22O,1.700000X2.000000*%
G04 APERTURE END LIST*
D10*
%TO.C,A1*%
X64999765Y-79216152D03*
X67539765Y-79216152D03*
X64999765Y-76676152D03*
X67539765Y-76676152D03*
X64999765Y-74136152D03*
X67539765Y-74136152D03*
X64999765Y-71596152D03*
X67539765Y-71596152D03*
X64999765Y-69056152D03*
X67539765Y-69056152D03*
X64999765Y-66516152D03*
X67539765Y-66516152D03*
X64999765Y-63976152D03*
X67539765Y-63976152D03*
X64999765Y-61436152D03*
X67539765Y-61436152D03*
X64999765Y-58896152D03*
X67539765Y-58896152D03*
X64999765Y-56356152D03*
X67539765Y-56356152D03*
X64999765Y-53816152D03*
X67539765Y-53816152D03*
X64999765Y-51276152D03*
X67539765Y-51276152D03*
X64999765Y-48736152D03*
X67539765Y-48736152D03*
X64999765Y-46196152D03*
X67539765Y-46196152D03*
X64999765Y-43656152D03*
X67539765Y-43656152D03*
X82779765Y-43656152D03*
X85319765Y-43656152D03*
X82779765Y-46196152D03*
X85319765Y-46196152D03*
X82779765Y-48736152D03*
X85319765Y-48736152D03*
X82779765Y-51276152D03*
X85319765Y-51276152D03*
X82779765Y-53816152D03*
X85319765Y-53816152D03*
X82779765Y-56356152D03*
X85319765Y-56356152D03*
X82779765Y-58896152D03*
X85319765Y-58896152D03*
X82779765Y-61436152D03*
X85319765Y-61436152D03*
X82779765Y-63976152D03*
X85319765Y-63976152D03*
X82779765Y-66516152D03*
X85319765Y-66516152D03*
X82779765Y-69056152D03*
X85319765Y-69056152D03*
X82779765Y-71596152D03*
X85319765Y-71596152D03*
X82779765Y-74136152D03*
X85319765Y-74136152D03*
X82779765Y-76676152D03*
X85319765Y-76676152D03*
D11*
X82779765Y-79216152D03*
X85319765Y-79216152D03*
%TD*%
D12*
%TO.C,C1*%
X73740000Y-117870000D03*
X78740000Y-117870000D03*
%TD*%
%TO.C,R3*%
X55880000Y-95250000D03*
D10*
X63500000Y-95250000D03*
%TD*%
D13*
%TO.C,M2*%
X44450000Y-97790000D03*
D14*
X44450000Y-100330000D03*
%TD*%
D15*
%TO.C,REF\u002A\u002A*%
X52299765Y-43815000D03*
D14*
X52299765Y-46355000D03*
X52299765Y-48895000D03*
X52299765Y-51435000D03*
X52299765Y-53975000D03*
X52299765Y-56515000D03*
X52299765Y-59055000D03*
X52299765Y-61595000D03*
X52299765Y-64135000D03*
X52299765Y-66675000D03*
X52299765Y-69215000D03*
X52299765Y-71755000D03*
X52299765Y-74295000D03*
X52299765Y-76835000D03*
X52299765Y-79375000D03*
%TD*%
D12*
%TO.C,R2*%
X55880000Y-90170000D03*
D10*
X63500000Y-90170000D03*
%TD*%
D16*
%TO.C,Q1*%
X50800000Y-83090000D03*
D17*
X50800000Y-85090000D03*
X50800000Y-87090000D03*
%TD*%
D15*
%TO.C,REF\u002A\u002A*%
X87859765Y-43815000D03*
D14*
X87859765Y-46355000D03*
X87859765Y-48895000D03*
X87859765Y-51435000D03*
X87859765Y-53975000D03*
X87859765Y-56515000D03*
X87859765Y-59055000D03*
X87859765Y-61595000D03*
X87859765Y-64135000D03*
X87859765Y-66675000D03*
X87859765Y-69215000D03*
X87859765Y-71755000D03*
X87859765Y-74295000D03*
X87859765Y-76835000D03*
X87859765Y-79375000D03*
%TD*%
D12*
%TO.C,R6*%
X57150000Y-119380000D03*
D10*
X64770000Y-119380000D03*
%TD*%
D15*
%TO.C,REF\u002A\u002A*%
X95479765Y-51435000D03*
D14*
X95479765Y-53975000D03*
X95479765Y-56515000D03*
X95479765Y-59055000D03*
X95479765Y-61595000D03*
X95479765Y-64135000D03*
X95479765Y-66675000D03*
X95479765Y-69215000D03*
X95479765Y-71755000D03*
X95479765Y-74295000D03*
X95479765Y-76835000D03*
X95479765Y-79375000D03*
%TD*%
D12*
%TO.C,R7*%
X55880000Y-100330000D03*
D10*
X63500000Y-100330000D03*
%TD*%
D16*
%TO.C,Q3*%
X50800000Y-108490000D03*
D17*
X50800000Y-110490000D03*
X50800000Y-112490000D03*
%TD*%
D15*
%TO.C,REF\u002A\u002A*%
X92939765Y-51435000D03*
D14*
X92939765Y-53975000D03*
X92939765Y-56515000D03*
X92939765Y-59055000D03*
X92939765Y-61595000D03*
X92939765Y-64135000D03*
X92939765Y-66675000D03*
X92939765Y-69215000D03*
X92939765Y-71755000D03*
X92939765Y-74295000D03*
X92939765Y-76835000D03*
X92939765Y-79375000D03*
%TD*%
D15*
%TO.C,REF\u002A\u002A*%
X54839765Y-43815000D03*
D14*
X54839765Y-46355000D03*
X54839765Y-48895000D03*
X54839765Y-51435000D03*
X54839765Y-53975000D03*
X54839765Y-56515000D03*
X54839765Y-59055000D03*
X54839765Y-61595000D03*
X54839765Y-64135000D03*
X54839765Y-66675000D03*
X54839765Y-69215000D03*
X54839765Y-71755000D03*
X54839765Y-74295000D03*
X54839765Y-76835000D03*
X54839765Y-79375000D03*
%TD*%
D15*
%TO.C,REF\u002A\u002A*%
X62459765Y-43815000D03*
D14*
X62459765Y-46355000D03*
X62459765Y-48895000D03*
X62459765Y-51435000D03*
X62459765Y-53975000D03*
X62459765Y-56515000D03*
X62459765Y-59055000D03*
X62459765Y-61595000D03*
X62459765Y-64135000D03*
X62459765Y-66675000D03*
X62459765Y-69215000D03*
X62459765Y-71755000D03*
X62459765Y-74295000D03*
X62459765Y-76835000D03*
X62459765Y-79375000D03*
%TD*%
D15*
%TO.C,REF\u002A\u002A*%
X44679765Y-51435000D03*
D14*
X44679765Y-53975000D03*
X44679765Y-56515000D03*
X44679765Y-59055000D03*
X44679765Y-61595000D03*
X44679765Y-64135000D03*
X44679765Y-66675000D03*
X44679765Y-69215000D03*
X44679765Y-71755000D03*
X44679765Y-74295000D03*
X44679765Y-76835000D03*
X44679765Y-79375000D03*
%TD*%
D13*
%TO.C,M3*%
X44475000Y-107970000D03*
D14*
X44475000Y-110510000D03*
%TD*%
D15*
%TO.C,REF\u002A\u002A*%
X47219765Y-51435000D03*
D14*
X47219765Y-53975000D03*
X47219765Y-56515000D03*
X47219765Y-59055000D03*
X47219765Y-61595000D03*
X47219765Y-64135000D03*
X47219765Y-66675000D03*
X47219765Y-69215000D03*
X47219765Y-71755000D03*
X47219765Y-74295000D03*
X47219765Y-76835000D03*
X47219765Y-79375000D03*
%TD*%
D12*
%TO.C,R4*%
X86360000Y-99060000D03*
D10*
X78740000Y-99060000D03*
%TD*%
D12*
%TO.C,R1*%
X55880000Y-85090000D03*
D10*
X63500000Y-85090000D03*
%TD*%
D13*
%TO.C,M1*%
X44450000Y-85090000D03*
D14*
X44450000Y-87630000D03*
%TD*%
D18*
%TO.C,LM7805*%
X88900000Y-114300000D03*
D19*
X91440000Y-114300000D03*
X93980000Y-114300000D03*
%TD*%
D12*
%TO.C,R8*%
X55880000Y-105410000D03*
D10*
X63500000Y-105410000D03*
%TD*%
D12*
%TO.C,R5*%
X78740000Y-93980000D03*
D10*
X86360000Y-93980000D03*
%TD*%
D15*
%TO.C,REF\u002A\u002A*%
X57379765Y-43815000D03*
D14*
X57379765Y-46355000D03*
X57379765Y-48895000D03*
X57379765Y-51435000D03*
X57379765Y-53975000D03*
X57379765Y-56515000D03*
X57379765Y-59055000D03*
X57379765Y-61595000D03*
X57379765Y-64135000D03*
X57379765Y-66675000D03*
X57379765Y-69215000D03*
X57379765Y-71755000D03*
X57379765Y-74295000D03*
X57379765Y-76835000D03*
X57379765Y-79375000D03*
%TD*%
D20*
%TO.C,U2*%
X93980000Y-87614119D03*
D12*
X93980000Y-90154119D03*
X93980000Y-92694119D03*
X93980000Y-95234119D03*
X93980000Y-97774119D03*
X93980000Y-100314119D03*
X93980000Y-102854119D03*
X93980000Y-105394119D03*
%TD*%
%TO.C,R9*%
X55880000Y-110490000D03*
D10*
X63500000Y-110490000D03*
%TD*%
D12*
%TO.C,C2*%
X73740000Y-113030000D03*
X78740000Y-113030000D03*
%TD*%
D16*
%TO.C,Q2*%
X50800000Y-95790000D03*
D17*
X50800000Y-97790000D03*
X50800000Y-99790000D03*
%TD*%
D15*
%TO.C,REF\u002A\u002A*%
X90399765Y-51435000D03*
D14*
X90399765Y-53975000D03*
X90399765Y-56515000D03*
X90399765Y-59055000D03*
X90399765Y-61595000D03*
X90399765Y-64135000D03*
X90399765Y-66675000D03*
X90399765Y-69215000D03*
X90399765Y-71755000D03*
X90399765Y-74295000D03*
X90399765Y-76835000D03*
X90399765Y-79375000D03*
%TD*%
D15*
%TO.C,REF\u002A\u002A*%
X59919765Y-43815000D03*
D14*
X59919765Y-46355000D03*
X59919765Y-48895000D03*
X59919765Y-51435000D03*
X59919765Y-53975000D03*
X59919765Y-56515000D03*
X59919765Y-59055000D03*
X59919765Y-61595000D03*
X59919765Y-64135000D03*
X59919765Y-66675000D03*
X59919765Y-69215000D03*
X59919765Y-71755000D03*
X59919765Y-74295000D03*
X59919765Y-76835000D03*
X59919765Y-79375000D03*
%TD*%
D21*
%TO.C,J1*%
X48300000Y-119380000D03*
D22*
X50840000Y-119380000D03*
%TD*%
D15*
%TO.C,REF\u002A\u002A*%
X49759765Y-43815000D03*
D14*
X49759765Y-46355000D03*
X49759765Y-48895000D03*
X49759765Y-51435000D03*
X49759765Y-53975000D03*
X49759765Y-56515000D03*
X49759765Y-59055000D03*
X49759765Y-61595000D03*
X49759765Y-64135000D03*
X49759765Y-66675000D03*
X49759765Y-69215000D03*
X49759765Y-71755000D03*
X49759765Y-74295000D03*
X49759765Y-76835000D03*
X49759765Y-79375000D03*
%TD*%
D21*
%TO.C,J2*%
X88940000Y-121920000D03*
D22*
X91480000Y-121920000D03*
%TD*%
M02*
