M48
; DRILL file {KiCad 7.0.6} date Sat Jul 22 19:39:00 2023
; FORMAT={-:-/ absolute / inch / decimal}
; #@! TF.CreationDate,2023-07-22T19:39:00-06:00
; #@! TF.GenerationSoftware,Kicad,Pcbnew,7.0.6
; #@! TF.FileFunction,Plated,1,2,PTH
FMAT,2
INCH
; #@! TA.AperFunction,Plated,PTH,ViaDrill
T1C0.0157
; #@! TA.AperFunction,Plated,PTH,ComponentDrill
T2C0.0315
; #@! TA.AperFunction,Plated,PTH,ComponentDrill
T3C0.0394
; #@! TA.AperFunction,Plated,PTH,ComponentDrill
T4C0.0433
%
G90
G05
T1
X2.4559Y-3.7134
X2.4691Y-2.8137
X2.4691Y-3.8137
X2.4902Y-2.9131
X2.5058Y-3.9133
X2.519Y-3.0136
X2.5363Y-4.0124
X2.5495Y-3.1126
X2.5559Y-4.1134
X2.5691Y-3.2137
T2
X2.4031Y-4.7754
X2.6Y-4.7754
X2.8Y-4.7754
X2.9969Y-4.7754
X3.3Y-3.7
X3.3006Y-3.8903
X3.3006Y-4.1
X3.6Y-3.7
X3.6006Y-3.8903
X3.6006Y-4.1
T3
X1.7327Y-2.1
X1.7327Y-2.2
X1.7327Y-2.9123
X1.7327Y-3.0123
X1.7327Y-3.8158
X1.7327Y-3.9158
X1.9016Y-4.6
X2.0016Y-4.6
X2.003Y-2.1176
X2.003Y-3.0139
X2.0041Y-3.9174
X2.1325Y-1.8068
X2.1325Y-1.9068
X2.1325Y-2.0068
X2.1325Y-2.1068
X2.1325Y-2.2068
X2.1325Y-2.3068
X2.1325Y-2.4068
X2.1325Y-2.5068
X2.1325Y-2.6068
X2.1325Y-2.7068
X2.1325Y-2.8068
X2.1325Y-2.9068
X2.1325Y-3.0068
X2.1325Y-3.1068
X2.1325Y-3.2068
X2.1325Y-3.3068
X2.1325Y-3.4068
X2.1325Y-3.5068
X2.1325Y-3.6068
X2.1325Y-3.7068
X2.1325Y-3.8068
X2.1325Y-3.9068
X2.1325Y-4.0068
X2.1325Y-4.1068
X2.2325Y-1.8068
X2.2325Y-1.9068
X2.2325Y-2.0068
X2.2325Y-2.1068
X2.2325Y-2.2068
X2.2325Y-2.3068
X2.2325Y-2.4068
X2.2325Y-2.5068
X2.2325Y-2.6068
X2.2325Y-2.7068
X2.2325Y-2.8068
X2.2325Y-2.9068
X2.2325Y-3.0068
X2.2325Y-3.1068
X2.2325Y-3.2068
X2.2325Y-3.3068
X2.2325Y-3.4068
X2.2325Y-3.5068
X2.2325Y-3.6068
X2.2325Y-3.7068
X2.2325Y-3.8068
X2.2325Y-3.9068
X2.2325Y-4.0068
X2.2325Y-4.1068
X2.3325Y-1.8068
X2.3325Y-1.9068
X2.3325Y-2.0068
X2.3325Y-2.1068
X2.3325Y-2.2068
X2.3325Y-2.3068
X2.3325Y-2.4068
X2.3325Y-2.5068
X2.3325Y-2.6068
X2.3325Y-2.7068
X2.3325Y-2.8068
X2.3325Y-2.9068
X2.3325Y-3.0068
X2.3325Y-3.1068
X2.3325Y-3.2068
X2.3325Y-3.3068
X2.3325Y-3.4068
X2.3325Y-3.5068
X2.3325Y-3.6068
X2.3325Y-3.7068
X2.3325Y-3.8068
X2.3325Y-3.9068
X2.3325Y-4.0068
X2.3325Y-4.1068
X2.6823Y-1.8177
X2.6823Y-1.9177
X2.6823Y-2.0177
X2.6823Y-2.1177
X2.6823Y-2.2177
X2.6823Y-2.3177
X2.6823Y-2.714
X2.6823Y-2.814
X2.6823Y-2.914
X2.6823Y-3.014
X2.6823Y-3.114
X2.6823Y-3.214
X2.6834Y-3.6174
X2.6834Y-3.7174
X2.6834Y-3.8174
X2.6834Y-3.9174
X2.6834Y-4.0174
X2.6834Y-4.1174
X2.9Y-1.7248
X2.9Y-1.8248
X2.9Y-1.9248
X2.9Y-2.0248
X2.9Y-2.1248
X2.9Y-2.2248
X2.9Y-2.3248
X2.9Y-2.4248
X2.9Y-2.5248
X2.9Y-2.6248
X2.9Y-2.7248
X2.9Y-2.8248
X2.9Y-2.9248
X2.9Y-3.0248
X2.9Y-3.1248
X3.1Y-3.5
X3.2Y-3.5
X3.3Y-3.5
X3.4Y-3.5
X3.5Y-1.7248
X3.5Y-1.8248
X3.5Y-1.9248
X3.5Y-2.0248
X3.5Y-2.1248
X3.5Y-2.2248
X3.5Y-2.3248
X3.5Y-2.4248
X3.5Y-2.5248
X3.5Y-2.6248
X3.5Y-2.7248
X3.5Y-2.8248
X3.5Y-2.9248
X3.5Y-3.0248
X3.5Y-3.1248
X3.5Y-3.5
X3.5016Y-4.6
X3.6Y-3.5
X3.6016Y-4.6
X3.7Y-3.5
X3.8Y-3.5
T4
X2.003Y-2.0176
X2.003Y-2.9139
X2.0041Y-3.8174
X2.6Y-4.6
X2.7Y-4.6
X2.8Y-4.6
T0
M30
