%TF.GenerationSoftware,KiCad,Pcbnew,7.0.6*%
%TF.CreationDate,2023-07-22T19:38:55-06:00*%
%TF.ProjectId,Vib,5669622e-6b69-4636-9164-5f7063625858,3*%
%TF.SameCoordinates,Original*%
%TF.FileFunction,Soldermask,Top*%
%TF.FilePolarity,Negative*%
%FSLAX46Y46*%
G04 Gerber Fmt 4.6, Leading zero omitted, Abs format (unit mm)*
G04 Created by KiCad (PCBNEW 7.0.6) date 2023-07-22 19:38:55*
%MOMM*%
%LPD*%
G01*
G04 APERTURE LIST*
G04 Aperture macros list*
%AMRoundRect*
0 Rectangle with rounded corners*
0 $1 Rounding radius*
0 $2 $3 $4 $5 $6 $7 $8 $9 X,Y pos of 4 corners*
0 Add a 4 corners polygon primitive as box body*
4,1,4,$2,$3,$4,$5,$6,$7,$8,$9,$2,$3,0*
0 Add four circle primitives for the rounded corners*
1,1,$1+$1,$2,$3*
1,1,$1+$1,$4,$5*
1,1,$1+$1,$6,$7*
1,1,$1+$1,$8,$9*
0 Add four rect primitives between the rounded corners*
20,1,$1+$1,$2,$3,$4,$5,0*
20,1,$1+$1,$4,$5,$6,$7,0*
20,1,$1+$1,$6,$7,$8,$9,0*
20,1,$1+$1,$8,$9,$2,$3,0*%
G04 Aperture macros list end*
%ADD10O,1.700000X2.000000*%
%ADD11RoundRect,0.250000X-0.600000X-0.750000X0.600000X-0.750000X0.600000X0.750000X-0.600000X0.750000X0*%
%ADD12O,2.000000X1.700000*%
%ADD13RoundRect,0.250000X0.750000X-0.600000X0.750000X0.600000X-0.750000X0.600000X-0.750000X-0.600000X0*%
%ADD14R,1.700000X1.700000*%
%ADD15O,1.700000X1.700000*%
%ADD16C,1.600000*%
%ADD17C,1.700000*%
%ADD18O,1.600000X1.600000*%
%ADD19R,1.600000X1.600000*%
%ADD20O,1.905000X2.000000*%
%ADD21R,1.905000X2.000000*%
%ADD22RoundRect,0.400000X0.450000X-0.400000X0.450000X0.400000X-0.450000X0.400000X-0.450000X-0.400000X0*%
G04 APERTURE END LIST*
D10*
%TO.C,J4*%
X91480000Y-116840000D03*
D11*
X88940000Y-116840000D03*
%TD*%
D10*
%TO.C,LED Connector*%
X50840000Y-116840000D03*
D11*
X48300000Y-116840000D03*
%TD*%
D12*
%TO.C,J1*%
X44009513Y-96920804D03*
D13*
X44009513Y-99460804D03*
%TD*%
D12*
%TO.C,J2*%
X44009513Y-73972611D03*
D13*
X44009513Y-76512611D03*
%TD*%
D12*
%TO.C,J3*%
X44009513Y-53340000D03*
D13*
X44009513Y-55880000D03*
%TD*%
D14*
%TO.C,REF\u002A\u002A*%
X56705780Y-45893906D03*
D15*
X56705780Y-48433906D03*
X56705780Y-50973906D03*
X56705780Y-53513906D03*
X56705780Y-56053906D03*
X56705780Y-58593906D03*
X56705780Y-61133906D03*
X56705780Y-63673906D03*
X56705780Y-66213906D03*
X56705780Y-68753906D03*
X56705780Y-71293906D03*
X56705780Y-73833906D03*
X56705780Y-76373906D03*
X56705780Y-78913906D03*
X56705780Y-81453906D03*
X56705780Y-83993906D03*
X56705780Y-86533906D03*
X56705780Y-89073906D03*
X56705780Y-91613906D03*
X56705780Y-94153906D03*
X56705780Y-96693906D03*
X56705780Y-99233906D03*
X56705780Y-101773906D03*
X56705780Y-104313906D03*
%TD*%
%TO.C,REF\u002A\u002A*%
X54165780Y-104313906D03*
X54165780Y-101773906D03*
X54165780Y-99233906D03*
X54165780Y-96693906D03*
X54165780Y-94153906D03*
X54165780Y-91613906D03*
X54165780Y-89073906D03*
X54165780Y-86533906D03*
X54165780Y-83993906D03*
X54165780Y-81453906D03*
X54165780Y-78913906D03*
X54165780Y-76373906D03*
X54165780Y-73833906D03*
X54165780Y-71293906D03*
X54165780Y-68753906D03*
X54165780Y-66213906D03*
X54165780Y-63673906D03*
X54165780Y-61133906D03*
X54165780Y-58593906D03*
X54165780Y-56053906D03*
X54165780Y-53513906D03*
X54165780Y-50973906D03*
X54165780Y-48433906D03*
D14*
X54165780Y-45893906D03*
%TD*%
%TO.C,REF\u002A\u002A*%
X59245780Y-45893906D03*
D15*
X59245780Y-48433906D03*
X59245780Y-50973906D03*
X59245780Y-53513906D03*
X59245780Y-56053906D03*
X59245780Y-58593906D03*
X59245780Y-61133906D03*
X59245780Y-63673906D03*
X59245780Y-66213906D03*
X59245780Y-68753906D03*
X59245780Y-71293906D03*
X59245780Y-73833906D03*
X59245780Y-76373906D03*
X59245780Y-78913906D03*
X59245780Y-81453906D03*
X59245780Y-83993906D03*
X59245780Y-86533906D03*
X59245780Y-89073906D03*
X59245780Y-91613906D03*
X59245780Y-94153906D03*
X59245780Y-96693906D03*
X59245780Y-99233906D03*
X59245780Y-101773906D03*
X59245780Y-104313906D03*
%TD*%
D16*
%TO.C,C1*%
X66040000Y-121295000D03*
X61040000Y-121295000D03*
%TD*%
D17*
%TO.C,U3*%
X50875934Y-51247611D03*
D16*
X50875934Y-53787611D03*
X68130128Y-46169872D03*
X68130128Y-48709872D03*
X68130128Y-51249872D03*
X68130128Y-53789872D03*
X68130128Y-56329872D03*
X68130128Y-58869872D03*
%TD*%
D18*
%TO.C,A1*%
X73660000Y-79370000D03*
X73660000Y-76830000D03*
X73660000Y-74290000D03*
X73660000Y-71750000D03*
X73660000Y-69210000D03*
X73660000Y-66670000D03*
X73660000Y-64130000D03*
X73660000Y-61590000D03*
X73660000Y-59050000D03*
X73660000Y-56510000D03*
X73660000Y-53970000D03*
X73660000Y-51430000D03*
X73660000Y-48890000D03*
X73660000Y-46350000D03*
X73660000Y-43810000D03*
X88900000Y-43810000D03*
X88900000Y-46350000D03*
X88900000Y-48890000D03*
X88900000Y-51430000D03*
X88900000Y-53970000D03*
X88900000Y-56510000D03*
X88900000Y-59050000D03*
X88900000Y-61590000D03*
X88900000Y-64130000D03*
X88900000Y-66670000D03*
X88900000Y-69210000D03*
X88900000Y-71750000D03*
X88900000Y-74290000D03*
X88900000Y-76830000D03*
D19*
X88900000Y-79370000D03*
%TD*%
D16*
%TO.C,C2*%
X76120000Y-121295000D03*
X71120000Y-121295000D03*
%TD*%
D18*
%TO.C,R3*%
X91455881Y-104140000D03*
D16*
X83835881Y-104140000D03*
%TD*%
D18*
%TO.C,R2*%
X91440000Y-93980000D03*
D16*
X83820000Y-93980000D03*
%TD*%
D20*
%TO.C,U5*%
X71120000Y-116840000D03*
X68580000Y-116840000D03*
D21*
X66040000Y-116840000D03*
%TD*%
D18*
%TO.C,R1*%
X83835881Y-98813340D03*
D16*
X91455881Y-98813340D03*
%TD*%
D17*
%TO.C,U1*%
X50903531Y-96960804D03*
D16*
X50903531Y-99500804D03*
X68157725Y-91883065D03*
X68157725Y-94423065D03*
X68157725Y-96963065D03*
X68157725Y-99503065D03*
X68157725Y-102043065D03*
X68157725Y-104583065D03*
%TD*%
%TO.C,U4*%
X96520000Y-88900000D03*
X93980000Y-88900000D03*
X91440000Y-88900000D03*
X88900000Y-88900000D03*
X86360000Y-88900000D03*
X83820000Y-88900000D03*
X81280000Y-88900000D03*
D22*
X78740000Y-88900000D03*
%TD*%
D17*
%TO.C,U2*%
X50875934Y-74012611D03*
D16*
X50875934Y-76552611D03*
X68130128Y-68934872D03*
X68130128Y-71474872D03*
X68130128Y-74014872D03*
X68130128Y-76554872D03*
X68130128Y-79094872D03*
X68130128Y-81634872D03*
%TD*%
M02*
