%TF.GenerationSoftware,KiCad,Pcbnew,7.0.6*%
%TF.CreationDate,2023-07-22T19:38:55-06:00*%
%TF.ProjectId,Vib,5669622e-6b69-4636-9164-5f7063625858,3*%
%TF.SameCoordinates,Original*%
%TF.FileFunction,Legend,Bot*%
%TF.FilePolarity,Positive*%
%FSLAX46Y46*%
G04 Gerber Fmt 4.6, Leading zero omitted, Abs format (unit mm)*
G04 Created by KiCad (PCBNEW 7.0.6) date 2023-07-22 19:38:55*
%MOMM*%
%LPD*%
G01*
G04 APERTURE LIST*
%ADD10C,0.250000*%
G04 APERTURE END LIST*
D10*
X78916075Y-133643628D02*
X78582742Y-134643628D01*
X78582742Y-134643628D02*
X78249409Y-133643628D01*
X77916075Y-134643628D02*
X77916075Y-133976961D01*
X77916075Y-133643628D02*
X77963694Y-133691247D01*
X77963694Y-133691247D02*
X77916075Y-133738866D01*
X77916075Y-133738866D02*
X77868456Y-133691247D01*
X77868456Y-133691247D02*
X77916075Y-133643628D01*
X77916075Y-133643628D02*
X77916075Y-133738866D01*
X77439885Y-134643628D02*
X77439885Y-133643628D01*
X77439885Y-134024580D02*
X77344647Y-133976961D01*
X77344647Y-133976961D02*
X77154171Y-133976961D01*
X77154171Y-133976961D02*
X77058933Y-134024580D01*
X77058933Y-134024580D02*
X77011314Y-134072199D01*
X77011314Y-134072199D02*
X76963695Y-134167437D01*
X76963695Y-134167437D02*
X76963695Y-134453151D01*
X76963695Y-134453151D02*
X77011314Y-134548389D01*
X77011314Y-134548389D02*
X77058933Y-134596009D01*
X77058933Y-134596009D02*
X77154171Y-134643628D01*
X77154171Y-134643628D02*
X77344647Y-134643628D01*
X77344647Y-134643628D02*
X77439885Y-134596009D01*
X76535123Y-134643628D02*
X76535123Y-133976961D01*
X76535123Y-134167437D02*
X76487504Y-134072199D01*
X76487504Y-134072199D02*
X76439885Y-134024580D01*
X76439885Y-134024580D02*
X76344647Y-133976961D01*
X76344647Y-133976961D02*
X76249409Y-133976961D01*
X75487504Y-134643628D02*
X75487504Y-134119818D01*
X75487504Y-134119818D02*
X75535123Y-134024580D01*
X75535123Y-134024580D02*
X75630361Y-133976961D01*
X75630361Y-133976961D02*
X75820837Y-133976961D01*
X75820837Y-133976961D02*
X75916075Y-134024580D01*
X75487504Y-134596009D02*
X75582742Y-134643628D01*
X75582742Y-134643628D02*
X75820837Y-134643628D01*
X75820837Y-134643628D02*
X75916075Y-134596009D01*
X75916075Y-134596009D02*
X75963694Y-134500770D01*
X75963694Y-134500770D02*
X75963694Y-134405532D01*
X75963694Y-134405532D02*
X75916075Y-134310294D01*
X75916075Y-134310294D02*
X75820837Y-134262675D01*
X75820837Y-134262675D02*
X75582742Y-134262675D01*
X75582742Y-134262675D02*
X75487504Y-134215056D01*
X75154170Y-133976961D02*
X74773218Y-133976961D01*
X75011313Y-133643628D02*
X75011313Y-134500770D01*
X75011313Y-134500770D02*
X74963694Y-134596009D01*
X74963694Y-134596009D02*
X74868456Y-134643628D01*
X74868456Y-134643628D02*
X74773218Y-134643628D01*
X74439884Y-134643628D02*
X74439884Y-133976961D01*
X74439884Y-133643628D02*
X74487503Y-133691247D01*
X74487503Y-133691247D02*
X74439884Y-133738866D01*
X74439884Y-133738866D02*
X74392265Y-133691247D01*
X74392265Y-133691247D02*
X74439884Y-133643628D01*
X74439884Y-133643628D02*
X74439884Y-133738866D01*
X73820837Y-134643628D02*
X73916075Y-134596009D01*
X73916075Y-134596009D02*
X73963694Y-134548389D01*
X73963694Y-134548389D02*
X74011313Y-134453151D01*
X74011313Y-134453151D02*
X74011313Y-134167437D01*
X74011313Y-134167437D02*
X73963694Y-134072199D01*
X73963694Y-134072199D02*
X73916075Y-134024580D01*
X73916075Y-134024580D02*
X73820837Y-133976961D01*
X73820837Y-133976961D02*
X73677980Y-133976961D01*
X73677980Y-133976961D02*
X73582742Y-134024580D01*
X73582742Y-134024580D02*
X73535123Y-134072199D01*
X73535123Y-134072199D02*
X73487504Y-134167437D01*
X73487504Y-134167437D02*
X73487504Y-134453151D01*
X73487504Y-134453151D02*
X73535123Y-134548389D01*
X73535123Y-134548389D02*
X73582742Y-134596009D01*
X73582742Y-134596009D02*
X73677980Y-134643628D01*
X73677980Y-134643628D02*
X73820837Y-134643628D01*
X73058932Y-133976961D02*
X73058932Y-134643628D01*
X73058932Y-134072199D02*
X73011313Y-134024580D01*
X73011313Y-134024580D02*
X72916075Y-133976961D01*
X72916075Y-133976961D02*
X72773218Y-133976961D01*
X72773218Y-133976961D02*
X72677980Y-134024580D01*
X72677980Y-134024580D02*
X72630361Y-134119818D01*
X72630361Y-134119818D02*
X72630361Y-134643628D01*
X71392265Y-134643628D02*
X71392265Y-133643628D01*
X71392265Y-133643628D02*
X71058932Y-134357913D01*
X71058932Y-134357913D02*
X70725599Y-133643628D01*
X70725599Y-133643628D02*
X70725599Y-134643628D01*
X70106551Y-134643628D02*
X70201789Y-134596009D01*
X70201789Y-134596009D02*
X70249408Y-134548389D01*
X70249408Y-134548389D02*
X70297027Y-134453151D01*
X70297027Y-134453151D02*
X70297027Y-134167437D01*
X70297027Y-134167437D02*
X70249408Y-134072199D01*
X70249408Y-134072199D02*
X70201789Y-134024580D01*
X70201789Y-134024580D02*
X70106551Y-133976961D01*
X70106551Y-133976961D02*
X69963694Y-133976961D01*
X69963694Y-133976961D02*
X69868456Y-134024580D01*
X69868456Y-134024580D02*
X69820837Y-134072199D01*
X69820837Y-134072199D02*
X69773218Y-134167437D01*
X69773218Y-134167437D02*
X69773218Y-134453151D01*
X69773218Y-134453151D02*
X69820837Y-134548389D01*
X69820837Y-134548389D02*
X69868456Y-134596009D01*
X69868456Y-134596009D02*
X69963694Y-134643628D01*
X69963694Y-134643628D02*
X70106551Y-134643628D01*
X68916075Y-134643628D02*
X68916075Y-133643628D01*
X68916075Y-134596009D02*
X69011313Y-134643628D01*
X69011313Y-134643628D02*
X69201789Y-134643628D01*
X69201789Y-134643628D02*
X69297027Y-134596009D01*
X69297027Y-134596009D02*
X69344646Y-134548389D01*
X69344646Y-134548389D02*
X69392265Y-134453151D01*
X69392265Y-134453151D02*
X69392265Y-134167437D01*
X69392265Y-134167437D02*
X69344646Y-134072199D01*
X69344646Y-134072199D02*
X69297027Y-134024580D01*
X69297027Y-134024580D02*
X69201789Y-133976961D01*
X69201789Y-133976961D02*
X69011313Y-133976961D01*
X69011313Y-133976961D02*
X68916075Y-134024580D01*
X68011313Y-133976961D02*
X68011313Y-134643628D01*
X68439884Y-133976961D02*
X68439884Y-134500770D01*
X68439884Y-134500770D02*
X68392265Y-134596009D01*
X68392265Y-134596009D02*
X68297027Y-134643628D01*
X68297027Y-134643628D02*
X68154170Y-134643628D01*
X68154170Y-134643628D02*
X68058932Y-134596009D01*
X68058932Y-134596009D02*
X68011313Y-134548389D01*
X67392265Y-134643628D02*
X67487503Y-134596009D01*
X67487503Y-134596009D02*
X67535122Y-134500770D01*
X67535122Y-134500770D02*
X67535122Y-133643628D01*
X66630360Y-134596009D02*
X66725598Y-134643628D01*
X66725598Y-134643628D02*
X66916074Y-134643628D01*
X66916074Y-134643628D02*
X67011312Y-134596009D01*
X67011312Y-134596009D02*
X67058931Y-134500770D01*
X67058931Y-134500770D02*
X67058931Y-134119818D01*
X67058931Y-134119818D02*
X67011312Y-134024580D01*
X67011312Y-134024580D02*
X66916074Y-133976961D01*
X66916074Y-133976961D02*
X66725598Y-133976961D01*
X66725598Y-133976961D02*
X66630360Y-134024580D01*
X66630360Y-134024580D02*
X66582741Y-134119818D01*
X66582741Y-134119818D02*
X66582741Y-134215056D01*
X66582741Y-134215056D02*
X67058931Y-134310294D01*
X65392264Y-134643628D02*
X65392264Y-133643628D01*
X65392264Y-133643628D02*
X65058931Y-134357913D01*
X65058931Y-134357913D02*
X64725598Y-133643628D01*
X64725598Y-133643628D02*
X64725598Y-134643628D01*
X64249407Y-134643628D02*
X64249407Y-133643628D01*
X64154169Y-134262675D02*
X63868455Y-134643628D01*
X63868455Y-133976961D02*
X64249407Y-134357913D01*
X63487502Y-133738866D02*
X63439883Y-133691247D01*
X63439883Y-133691247D02*
X63344645Y-133643628D01*
X63344645Y-133643628D02*
X63106550Y-133643628D01*
X63106550Y-133643628D02*
X63011312Y-133691247D01*
X63011312Y-133691247D02*
X62963693Y-133738866D01*
X62963693Y-133738866D02*
X62916074Y-133834104D01*
X62916074Y-133834104D02*
X62916074Y-133929342D01*
X62916074Y-133929342D02*
X62963693Y-134072199D01*
X62963693Y-134072199D02*
X63535121Y-134643628D01*
X63535121Y-134643628D02*
X62916074Y-134643628D01*
X81225600Y-136253628D02*
X81225600Y-135253628D01*
X81225600Y-135253628D02*
X80654172Y-136253628D01*
X80654172Y-136253628D02*
X80654172Y-135253628D01*
X79797029Y-136206009D02*
X79892267Y-136253628D01*
X79892267Y-136253628D02*
X80082743Y-136253628D01*
X80082743Y-136253628D02*
X80177981Y-136206009D01*
X80177981Y-136206009D02*
X80225600Y-136110770D01*
X80225600Y-136110770D02*
X80225600Y-135729818D01*
X80225600Y-135729818D02*
X80177981Y-135634580D01*
X80177981Y-135634580D02*
X80082743Y-135586961D01*
X80082743Y-135586961D02*
X79892267Y-135586961D01*
X79892267Y-135586961D02*
X79797029Y-135634580D01*
X79797029Y-135634580D02*
X79749410Y-135729818D01*
X79749410Y-135729818D02*
X79749410Y-135825056D01*
X79749410Y-135825056D02*
X80225600Y-135920294D01*
X78892267Y-135586961D02*
X78892267Y-136253628D01*
X79320838Y-135586961D02*
X79320838Y-136110770D01*
X79320838Y-136110770D02*
X79273219Y-136206009D01*
X79273219Y-136206009D02*
X79177981Y-136253628D01*
X79177981Y-136253628D02*
X79035124Y-136253628D01*
X79035124Y-136253628D02*
X78939886Y-136206009D01*
X78939886Y-136206009D02*
X78892267Y-136158389D01*
X78416076Y-136253628D02*
X78416076Y-135586961D01*
X78416076Y-135777437D02*
X78368457Y-135682199D01*
X78368457Y-135682199D02*
X78320838Y-135634580D01*
X78320838Y-135634580D02*
X78225600Y-135586961D01*
X78225600Y-135586961D02*
X78130362Y-135586961D01*
X77654171Y-136253628D02*
X77749409Y-136206009D01*
X77749409Y-136206009D02*
X77797028Y-136158389D01*
X77797028Y-136158389D02*
X77844647Y-136063151D01*
X77844647Y-136063151D02*
X77844647Y-135777437D01*
X77844647Y-135777437D02*
X77797028Y-135682199D01*
X77797028Y-135682199D02*
X77749409Y-135634580D01*
X77749409Y-135634580D02*
X77654171Y-135586961D01*
X77654171Y-135586961D02*
X77511314Y-135586961D01*
X77511314Y-135586961D02*
X77416076Y-135634580D01*
X77416076Y-135634580D02*
X77368457Y-135682199D01*
X77368457Y-135682199D02*
X77320838Y-135777437D01*
X77320838Y-135777437D02*
X77320838Y-136063151D01*
X77320838Y-136063151D02*
X77368457Y-136158389D01*
X77368457Y-136158389D02*
X77416076Y-136206009D01*
X77416076Y-136206009D02*
X77511314Y-136253628D01*
X77511314Y-136253628D02*
X77654171Y-136253628D01*
X77035123Y-135253628D02*
X76463695Y-135253628D01*
X76749409Y-136253628D02*
X76749409Y-135253628D01*
X75749409Y-136206009D02*
X75844647Y-136253628D01*
X75844647Y-136253628D02*
X76035123Y-136253628D01*
X76035123Y-136253628D02*
X76130361Y-136206009D01*
X76130361Y-136206009D02*
X76177980Y-136110770D01*
X76177980Y-136110770D02*
X76177980Y-135729818D01*
X76177980Y-135729818D02*
X76130361Y-135634580D01*
X76130361Y-135634580D02*
X76035123Y-135586961D01*
X76035123Y-135586961D02*
X75844647Y-135586961D01*
X75844647Y-135586961D02*
X75749409Y-135634580D01*
X75749409Y-135634580D02*
X75701790Y-135729818D01*
X75701790Y-135729818D02*
X75701790Y-135825056D01*
X75701790Y-135825056D02*
X76177980Y-135920294D01*
X74844647Y-136206009D02*
X74939885Y-136253628D01*
X74939885Y-136253628D02*
X75130361Y-136253628D01*
X75130361Y-136253628D02*
X75225599Y-136206009D01*
X75225599Y-136206009D02*
X75273218Y-136158389D01*
X75273218Y-136158389D02*
X75320837Y-136063151D01*
X75320837Y-136063151D02*
X75320837Y-135777437D01*
X75320837Y-135777437D02*
X75273218Y-135682199D01*
X75273218Y-135682199D02*
X75225599Y-135634580D01*
X75225599Y-135634580D02*
X75130361Y-135586961D01*
X75130361Y-135586961D02*
X74939885Y-135586961D01*
X74939885Y-135586961D02*
X74844647Y-135634580D01*
X74416075Y-136253628D02*
X74416075Y-135253628D01*
X73987504Y-136253628D02*
X73987504Y-135729818D01*
X73987504Y-135729818D02*
X74035123Y-135634580D01*
X74035123Y-135634580D02*
X74130361Y-135586961D01*
X74130361Y-135586961D02*
X74273218Y-135586961D01*
X74273218Y-135586961D02*
X74368456Y-135634580D01*
X74368456Y-135634580D02*
X74416075Y-135682199D01*
X73558932Y-136206009D02*
X73463694Y-136253628D01*
X73463694Y-136253628D02*
X73273218Y-136253628D01*
X73273218Y-136253628D02*
X73177980Y-136206009D01*
X73177980Y-136206009D02*
X73130361Y-136110770D01*
X73130361Y-136110770D02*
X73130361Y-136063151D01*
X73130361Y-136063151D02*
X73177980Y-135967913D01*
X73177980Y-135967913D02*
X73273218Y-135920294D01*
X73273218Y-135920294D02*
X73416075Y-135920294D01*
X73416075Y-135920294D02*
X73511313Y-135872675D01*
X73511313Y-135872675D02*
X73558932Y-135777437D01*
X73558932Y-135777437D02*
X73558932Y-135729818D01*
X73558932Y-135729818D02*
X73511313Y-135634580D01*
X73511313Y-135634580D02*
X73416075Y-135586961D01*
X73416075Y-135586961D02*
X73273218Y-135586961D01*
X73273218Y-135586961D02*
X73177980Y-135634580D01*
X71368456Y-136253628D02*
X71701789Y-135777437D01*
X71939884Y-136253628D02*
X71939884Y-135253628D01*
X71939884Y-135253628D02*
X71558932Y-135253628D01*
X71558932Y-135253628D02*
X71463694Y-135301247D01*
X71463694Y-135301247D02*
X71416075Y-135348866D01*
X71416075Y-135348866D02*
X71368456Y-135444104D01*
X71368456Y-135444104D02*
X71368456Y-135586961D01*
X71368456Y-135586961D02*
X71416075Y-135682199D01*
X71416075Y-135682199D02*
X71463694Y-135729818D01*
X71463694Y-135729818D02*
X71558932Y-135777437D01*
X71558932Y-135777437D02*
X71939884Y-135777437D01*
X70558932Y-136206009D02*
X70654170Y-136253628D01*
X70654170Y-136253628D02*
X70844646Y-136253628D01*
X70844646Y-136253628D02*
X70939884Y-136206009D01*
X70939884Y-136206009D02*
X70987503Y-136110770D01*
X70987503Y-136110770D02*
X70987503Y-135729818D01*
X70987503Y-135729818D02*
X70939884Y-135634580D01*
X70939884Y-135634580D02*
X70844646Y-135586961D01*
X70844646Y-135586961D02*
X70654170Y-135586961D01*
X70654170Y-135586961D02*
X70558932Y-135634580D01*
X70558932Y-135634580D02*
X70511313Y-135729818D01*
X70511313Y-135729818D02*
X70511313Y-135825056D01*
X70511313Y-135825056D02*
X70987503Y-135920294D01*
X70130360Y-136206009D02*
X70035122Y-136253628D01*
X70035122Y-136253628D02*
X69844646Y-136253628D01*
X69844646Y-136253628D02*
X69749408Y-136206009D01*
X69749408Y-136206009D02*
X69701789Y-136110770D01*
X69701789Y-136110770D02*
X69701789Y-136063151D01*
X69701789Y-136063151D02*
X69749408Y-135967913D01*
X69749408Y-135967913D02*
X69844646Y-135920294D01*
X69844646Y-135920294D02*
X69987503Y-135920294D01*
X69987503Y-135920294D02*
X70082741Y-135872675D01*
X70082741Y-135872675D02*
X70130360Y-135777437D01*
X70130360Y-135777437D02*
X70130360Y-135729818D01*
X70130360Y-135729818D02*
X70082741Y-135634580D01*
X70082741Y-135634580D02*
X69987503Y-135586961D01*
X69987503Y-135586961D02*
X69844646Y-135586961D01*
X69844646Y-135586961D02*
X69749408Y-135634580D01*
X68892265Y-136206009D02*
X68987503Y-136253628D01*
X68987503Y-136253628D02*
X69177979Y-136253628D01*
X69177979Y-136253628D02*
X69273217Y-136206009D01*
X69273217Y-136206009D02*
X69320836Y-136110770D01*
X69320836Y-136110770D02*
X69320836Y-135729818D01*
X69320836Y-135729818D02*
X69273217Y-135634580D01*
X69273217Y-135634580D02*
X69177979Y-135586961D01*
X69177979Y-135586961D02*
X68987503Y-135586961D01*
X68987503Y-135586961D02*
X68892265Y-135634580D01*
X68892265Y-135634580D02*
X68844646Y-135729818D01*
X68844646Y-135729818D02*
X68844646Y-135825056D01*
X68844646Y-135825056D02*
X69320836Y-135920294D01*
X67987503Y-136253628D02*
X67987503Y-135729818D01*
X67987503Y-135729818D02*
X68035122Y-135634580D01*
X68035122Y-135634580D02*
X68130360Y-135586961D01*
X68130360Y-135586961D02*
X68320836Y-135586961D01*
X68320836Y-135586961D02*
X68416074Y-135634580D01*
X67987503Y-136206009D02*
X68082741Y-136253628D01*
X68082741Y-136253628D02*
X68320836Y-136253628D01*
X68320836Y-136253628D02*
X68416074Y-136206009D01*
X68416074Y-136206009D02*
X68463693Y-136110770D01*
X68463693Y-136110770D02*
X68463693Y-136015532D01*
X68463693Y-136015532D02*
X68416074Y-135920294D01*
X68416074Y-135920294D02*
X68320836Y-135872675D01*
X68320836Y-135872675D02*
X68082741Y-135872675D01*
X68082741Y-135872675D02*
X67987503Y-135825056D01*
X67511312Y-136253628D02*
X67511312Y-135586961D01*
X67511312Y-135777437D02*
X67463693Y-135682199D01*
X67463693Y-135682199D02*
X67416074Y-135634580D01*
X67416074Y-135634580D02*
X67320836Y-135586961D01*
X67320836Y-135586961D02*
X67225598Y-135586961D01*
X66463693Y-136206009D02*
X66558931Y-136253628D01*
X66558931Y-136253628D02*
X66749407Y-136253628D01*
X66749407Y-136253628D02*
X66844645Y-136206009D01*
X66844645Y-136206009D02*
X66892264Y-136158389D01*
X66892264Y-136158389D02*
X66939883Y-136063151D01*
X66939883Y-136063151D02*
X66939883Y-135777437D01*
X66939883Y-135777437D02*
X66892264Y-135682199D01*
X66892264Y-135682199D02*
X66844645Y-135634580D01*
X66844645Y-135634580D02*
X66749407Y-135586961D01*
X66749407Y-135586961D02*
X66558931Y-135586961D01*
X66558931Y-135586961D02*
X66463693Y-135634580D01*
X66035121Y-136253628D02*
X66035121Y-135253628D01*
X65606550Y-136253628D02*
X65606550Y-135729818D01*
X65606550Y-135729818D02*
X65654169Y-135634580D01*
X65654169Y-135634580D02*
X65749407Y-135586961D01*
X65749407Y-135586961D02*
X65892264Y-135586961D01*
X65892264Y-135586961D02*
X65987502Y-135634580D01*
X65987502Y-135634580D02*
X66035121Y-135682199D01*
X63844645Y-135301247D02*
X63939883Y-135253628D01*
X63939883Y-135253628D02*
X64082740Y-135253628D01*
X64082740Y-135253628D02*
X64225597Y-135301247D01*
X64225597Y-135301247D02*
X64320835Y-135396485D01*
X64320835Y-135396485D02*
X64368454Y-135491723D01*
X64368454Y-135491723D02*
X64416073Y-135682199D01*
X64416073Y-135682199D02*
X64416073Y-135825056D01*
X64416073Y-135825056D02*
X64368454Y-136015532D01*
X64368454Y-136015532D02*
X64320835Y-136110770D01*
X64320835Y-136110770D02*
X64225597Y-136206009D01*
X64225597Y-136206009D02*
X64082740Y-136253628D01*
X64082740Y-136253628D02*
X63987502Y-136253628D01*
X63987502Y-136253628D02*
X63844645Y-136206009D01*
X63844645Y-136206009D02*
X63797026Y-136158389D01*
X63797026Y-136158389D02*
X63797026Y-135825056D01*
X63797026Y-135825056D02*
X63987502Y-135825056D01*
X63368454Y-136253628D02*
X63368454Y-135586961D01*
X63368454Y-135777437D02*
X63320835Y-135682199D01*
X63320835Y-135682199D02*
X63273216Y-135634580D01*
X63273216Y-135634580D02*
X63177978Y-135586961D01*
X63177978Y-135586961D02*
X63082740Y-135586961D01*
X62606549Y-136253628D02*
X62701787Y-136206009D01*
X62701787Y-136206009D02*
X62749406Y-136158389D01*
X62749406Y-136158389D02*
X62797025Y-136063151D01*
X62797025Y-136063151D02*
X62797025Y-135777437D01*
X62797025Y-135777437D02*
X62749406Y-135682199D01*
X62749406Y-135682199D02*
X62701787Y-135634580D01*
X62701787Y-135634580D02*
X62606549Y-135586961D01*
X62606549Y-135586961D02*
X62463692Y-135586961D01*
X62463692Y-135586961D02*
X62368454Y-135634580D01*
X62368454Y-135634580D02*
X62320835Y-135682199D01*
X62320835Y-135682199D02*
X62273216Y-135777437D01*
X62273216Y-135777437D02*
X62273216Y-136063151D01*
X62273216Y-136063151D02*
X62320835Y-136158389D01*
X62320835Y-136158389D02*
X62368454Y-136206009D01*
X62368454Y-136206009D02*
X62463692Y-136253628D01*
X62463692Y-136253628D02*
X62606549Y-136253628D01*
X61416073Y-135586961D02*
X61416073Y-136253628D01*
X61844644Y-135586961D02*
X61844644Y-136110770D01*
X61844644Y-136110770D02*
X61797025Y-136206009D01*
X61797025Y-136206009D02*
X61701787Y-136253628D01*
X61701787Y-136253628D02*
X61558930Y-136253628D01*
X61558930Y-136253628D02*
X61463692Y-136206009D01*
X61463692Y-136206009D02*
X61416073Y-136158389D01*
X60939882Y-135586961D02*
X60939882Y-136586961D01*
X60939882Y-135634580D02*
X60844644Y-135586961D01*
X60844644Y-135586961D02*
X60654168Y-135586961D01*
X60654168Y-135586961D02*
X60558930Y-135634580D01*
X60558930Y-135634580D02*
X60511311Y-135682199D01*
X60511311Y-135682199D02*
X60463692Y-135777437D01*
X60463692Y-135777437D02*
X60463692Y-136063151D01*
X60463692Y-136063151D02*
X60511311Y-136158389D01*
X60511311Y-136158389D02*
X60558930Y-136206009D01*
X60558930Y-136206009D02*
X60654168Y-136253628D01*
X60654168Y-136253628D02*
X60844644Y-136253628D01*
X60844644Y-136253628D02*
X60939882Y-136206009D01*
X75868456Y-137339818D02*
X75725599Y-137387437D01*
X75725599Y-137387437D02*
X75677980Y-137435056D01*
X75677980Y-137435056D02*
X75630361Y-137530294D01*
X75630361Y-137530294D02*
X75630361Y-137673151D01*
X75630361Y-137673151D02*
X75677980Y-137768389D01*
X75677980Y-137768389D02*
X75725599Y-137816009D01*
X75725599Y-137816009D02*
X75820837Y-137863628D01*
X75820837Y-137863628D02*
X76201789Y-137863628D01*
X76201789Y-137863628D02*
X76201789Y-136863628D01*
X76201789Y-136863628D02*
X75868456Y-136863628D01*
X75868456Y-136863628D02*
X75773218Y-136911247D01*
X75773218Y-136911247D02*
X75725599Y-136958866D01*
X75725599Y-136958866D02*
X75677980Y-137054104D01*
X75677980Y-137054104D02*
X75677980Y-137149342D01*
X75677980Y-137149342D02*
X75725599Y-137244580D01*
X75725599Y-137244580D02*
X75773218Y-137292199D01*
X75773218Y-137292199D02*
X75868456Y-137339818D01*
X75868456Y-137339818D02*
X76201789Y-137339818D01*
X75297027Y-137196961D02*
X75058932Y-137863628D01*
X74820837Y-137196961D02*
X75058932Y-137863628D01*
X75058932Y-137863628D02*
X75154170Y-138101723D01*
X75154170Y-138101723D02*
X75201789Y-138149342D01*
X75201789Y-138149342D02*
X75297027Y-138196961D01*
X73201789Y-137863628D02*
X73677979Y-137863628D01*
X73677979Y-137863628D02*
X73677979Y-136863628D01*
X72439884Y-137196961D02*
X72439884Y-137863628D01*
X72868455Y-137196961D02*
X72868455Y-137720770D01*
X72868455Y-137720770D02*
X72820836Y-137816009D01*
X72820836Y-137816009D02*
X72725598Y-137863628D01*
X72725598Y-137863628D02*
X72582741Y-137863628D01*
X72582741Y-137863628D02*
X72487503Y-137816009D01*
X72487503Y-137816009D02*
X72439884Y-137768389D01*
X71963693Y-137863628D02*
X71963693Y-136863628D01*
X71868455Y-137482675D02*
X71582741Y-137863628D01*
X71582741Y-137196961D02*
X71963693Y-137577913D01*
X70773217Y-137816009D02*
X70868455Y-137863628D01*
X70868455Y-137863628D02*
X71058931Y-137863628D01*
X71058931Y-137863628D02*
X71154169Y-137816009D01*
X71154169Y-137816009D02*
X71201788Y-137720770D01*
X71201788Y-137720770D02*
X71201788Y-137339818D01*
X71201788Y-137339818D02*
X71154169Y-137244580D01*
X71154169Y-137244580D02*
X71058931Y-137196961D01*
X71058931Y-137196961D02*
X70868455Y-137196961D01*
X70868455Y-137196961D02*
X70773217Y-137244580D01*
X70773217Y-137244580D02*
X70725598Y-137339818D01*
X70725598Y-137339818D02*
X70725598Y-137435056D01*
X70725598Y-137435056D02*
X71201788Y-137530294D01*
X68963693Y-137768389D02*
X69011312Y-137816009D01*
X69011312Y-137816009D02*
X69154169Y-137863628D01*
X69154169Y-137863628D02*
X69249407Y-137863628D01*
X69249407Y-137863628D02*
X69392264Y-137816009D01*
X69392264Y-137816009D02*
X69487502Y-137720770D01*
X69487502Y-137720770D02*
X69535121Y-137625532D01*
X69535121Y-137625532D02*
X69582740Y-137435056D01*
X69582740Y-137435056D02*
X69582740Y-137292199D01*
X69582740Y-137292199D02*
X69535121Y-137101723D01*
X69535121Y-137101723D02*
X69487502Y-137006485D01*
X69487502Y-137006485D02*
X69392264Y-136911247D01*
X69392264Y-136911247D02*
X69249407Y-136863628D01*
X69249407Y-136863628D02*
X69154169Y-136863628D01*
X69154169Y-136863628D02*
X69011312Y-136911247D01*
X69011312Y-136911247D02*
X68963693Y-136958866D01*
X68154169Y-137816009D02*
X68249407Y-137863628D01*
X68249407Y-137863628D02*
X68439883Y-137863628D01*
X68439883Y-137863628D02*
X68535121Y-137816009D01*
X68535121Y-137816009D02*
X68582740Y-137720770D01*
X68582740Y-137720770D02*
X68582740Y-137339818D01*
X68582740Y-137339818D02*
X68535121Y-137244580D01*
X68535121Y-137244580D02*
X68439883Y-137196961D01*
X68439883Y-137196961D02*
X68249407Y-137196961D01*
X68249407Y-137196961D02*
X68154169Y-137244580D01*
X68154169Y-137244580D02*
X68106550Y-137339818D01*
X68106550Y-137339818D02*
X68106550Y-137435056D01*
X68106550Y-137435056D02*
X68582740Y-137530294D01*
X67677978Y-137196961D02*
X67677978Y-138196961D01*
X67677978Y-137244580D02*
X67582740Y-137196961D01*
X67582740Y-137196961D02*
X67392264Y-137196961D01*
X67392264Y-137196961D02*
X67297026Y-137244580D01*
X67297026Y-137244580D02*
X67249407Y-137292199D01*
X67249407Y-137292199D02*
X67201788Y-137387437D01*
X67201788Y-137387437D02*
X67201788Y-137673151D01*
X67201788Y-137673151D02*
X67249407Y-137768389D01*
X67249407Y-137768389D02*
X67297026Y-137816009D01*
X67297026Y-137816009D02*
X67392264Y-137863628D01*
X67392264Y-137863628D02*
X67582740Y-137863628D01*
X67582740Y-137863628D02*
X67677978Y-137816009D01*
X66868454Y-137196961D02*
X66344645Y-137196961D01*
X66344645Y-137196961D02*
X66868454Y-137863628D01*
X66868454Y-137863628D02*
X66344645Y-137863628D01*
X65535121Y-137863628D02*
X65535121Y-137339818D01*
X65535121Y-137339818D02*
X65582740Y-137244580D01*
X65582740Y-137244580D02*
X65677978Y-137196961D01*
X65677978Y-137196961D02*
X65868454Y-137196961D01*
X65868454Y-137196961D02*
X65963692Y-137244580D01*
X65535121Y-137816009D02*
X65630359Y-137863628D01*
X65630359Y-137863628D02*
X65868454Y-137863628D01*
X65868454Y-137863628D02*
X65963692Y-137816009D01*
X65963692Y-137816009D02*
X66011311Y-137720770D01*
X66011311Y-137720770D02*
X66011311Y-137625532D01*
X66011311Y-137625532D02*
X65963692Y-137530294D01*
X65963692Y-137530294D02*
X65868454Y-137482675D01*
X65868454Y-137482675D02*
X65630359Y-137482675D01*
X65630359Y-137482675D02*
X65535121Y-137435056D01*
M02*
